%TF.GenerationSoftware,KiCad,Pcbnew,5.1.5+dfsg1-2build2*%
%TF.CreationDate,2021-01-07T21:04:46-03:00*%
%TF.ProjectId,Punkatoo,50756e6b-6174-46f6-9f2e-6b696361645f,rev?*%
%TF.SameCoordinates,Original*%
%TF.FileFunction,Soldermask,Top*%
%TF.FilePolarity,Negative*%
%FSLAX46Y46*%
G04 Gerber Fmt 4.6, Leading zero omitted, Abs format (unit mm)*
G04 Created by KiCad (PCBNEW 5.1.5+dfsg1-2build2) date 2021-01-07 21:04:46*
%MOMM*%
%LPD*%
G04 APERTURE LIST*
%ADD10O,1.800000X1.800000*%
%ADD11R,1.800000X1.800000*%
%ADD12C,3.600000*%
%ADD13C,1.497000*%
%ADD14C,1.624000*%
%ADD15O,1.450000X1.450000*%
%ADD16R,1.450000X1.450000*%
%ADD17C,0.100000*%
%ADD18R,5.100000X5.100000*%
%ADD19R,2.100000X1.000000*%
%ADD20R,1.000000X2.100000*%
%ADD21O,2.500000X2.500000*%
%ADD22C,2.500000*%
%ADD23O,2.300000X1.840000*%
%ADD24O,1.840000X2.300000*%
%ADD25C,2.400000*%
%ADD26R,2.100000X2.400000*%
%ADD27C,1.800000*%
%ADD28O,1.170000X1.900000*%
%ADD29R,1.170000X1.900000*%
%ADD30R,0.900000X1.600000*%
%ADD31C,1.600000*%
%ADD32C,1.900000*%
%ADD33R,1.900000X1.900000*%
G04 APERTURE END LIST*
D10*
%TO.C,U2*%
X120210000Y-105172000D03*
X122750000Y-105172000D03*
D11*
X125290000Y-105172000D03*
%TD*%
D12*
%TO.C,REF\002A\002A*%
X90600000Y-117000000D03*
%TD*%
%TO.C,REF\002A\002A*%
X138500000Y-117000000D03*
%TD*%
%TO.C,REF\002A\002A*%
X145000000Y-63500000D03*
%TD*%
%TO.C,REF\002A\002A*%
X90700000Y-63500000D03*
%TD*%
D10*
%TO.C,J6*%
X144300000Y-79720000D03*
X144300000Y-77180000D03*
X144300000Y-74640000D03*
D11*
X144300000Y-72100000D03*
%TD*%
D13*
%TO.C,SW2*%
X103800000Y-61920000D03*
X103800000Y-67000000D03*
X96180000Y-61920000D03*
X96180000Y-67000000D03*
%TD*%
%TO.C,SW1*%
X107100000Y-67000000D03*
X107100000Y-61920000D03*
X114720000Y-67000000D03*
X114720000Y-61920000D03*
%TD*%
D14*
%TO.C,RV1*%
X97100000Y-120000000D03*
X97100000Y-113000000D03*
%TD*%
D15*
%TO.C,C2*%
X83900000Y-111100000D03*
X83900000Y-109100000D03*
D16*
X83900000Y-107100000D03*
%TD*%
D17*
%TO.C,R4*%
G36*
X120204897Y-93301308D02*
G01*
X120231275Y-93305221D01*
X120257143Y-93311701D01*
X120282252Y-93320685D01*
X120306358Y-93332086D01*
X120329232Y-93345796D01*
X120350651Y-93361682D01*
X120370410Y-93379590D01*
X120388318Y-93399349D01*
X120404204Y-93420768D01*
X120417914Y-93443642D01*
X120429315Y-93467748D01*
X120438299Y-93492857D01*
X120444779Y-93518725D01*
X120448692Y-93545103D01*
X120450000Y-93571738D01*
X120450000Y-94278262D01*
X120448692Y-94304897D01*
X120444779Y-94331275D01*
X120438299Y-94357143D01*
X120429315Y-94382252D01*
X120417914Y-94406358D01*
X120404204Y-94429232D01*
X120388318Y-94450651D01*
X120370410Y-94470410D01*
X120350651Y-94488318D01*
X120329232Y-94504204D01*
X120306358Y-94517914D01*
X120282252Y-94529315D01*
X120257143Y-94538299D01*
X120231275Y-94544779D01*
X120204897Y-94548692D01*
X120178262Y-94550000D01*
X119221738Y-94550000D01*
X119195103Y-94548692D01*
X119168725Y-94544779D01*
X119142857Y-94538299D01*
X119117748Y-94529315D01*
X119093642Y-94517914D01*
X119070768Y-94504204D01*
X119049349Y-94488318D01*
X119029590Y-94470410D01*
X119011682Y-94450651D01*
X118995796Y-94429232D01*
X118982086Y-94406358D01*
X118970685Y-94382252D01*
X118961701Y-94357143D01*
X118955221Y-94331275D01*
X118951308Y-94304897D01*
X118950000Y-94278262D01*
X118950000Y-93571738D01*
X118951308Y-93545103D01*
X118955221Y-93518725D01*
X118961701Y-93492857D01*
X118970685Y-93467748D01*
X118982086Y-93443642D01*
X118995796Y-93420768D01*
X119011682Y-93399349D01*
X119029590Y-93379590D01*
X119049349Y-93361682D01*
X119070768Y-93345796D01*
X119093642Y-93332086D01*
X119117748Y-93320685D01*
X119142857Y-93311701D01*
X119168725Y-93305221D01*
X119195103Y-93301308D01*
X119221738Y-93300000D01*
X120178262Y-93300000D01*
X120204897Y-93301308D01*
G37*
G36*
X120204897Y-91251308D02*
G01*
X120231275Y-91255221D01*
X120257143Y-91261701D01*
X120282252Y-91270685D01*
X120306358Y-91282086D01*
X120329232Y-91295796D01*
X120350651Y-91311682D01*
X120370410Y-91329590D01*
X120388318Y-91349349D01*
X120404204Y-91370768D01*
X120417914Y-91393642D01*
X120429315Y-91417748D01*
X120438299Y-91442857D01*
X120444779Y-91468725D01*
X120448692Y-91495103D01*
X120450000Y-91521738D01*
X120450000Y-92228262D01*
X120448692Y-92254897D01*
X120444779Y-92281275D01*
X120438299Y-92307143D01*
X120429315Y-92332252D01*
X120417914Y-92356358D01*
X120404204Y-92379232D01*
X120388318Y-92400651D01*
X120370410Y-92420410D01*
X120350651Y-92438318D01*
X120329232Y-92454204D01*
X120306358Y-92467914D01*
X120282252Y-92479315D01*
X120257143Y-92488299D01*
X120231275Y-92494779D01*
X120204897Y-92498692D01*
X120178262Y-92500000D01*
X119221738Y-92500000D01*
X119195103Y-92498692D01*
X119168725Y-92494779D01*
X119142857Y-92488299D01*
X119117748Y-92479315D01*
X119093642Y-92467914D01*
X119070768Y-92454204D01*
X119049349Y-92438318D01*
X119029590Y-92420410D01*
X119011682Y-92400651D01*
X118995796Y-92379232D01*
X118982086Y-92356358D01*
X118970685Y-92332252D01*
X118961701Y-92307143D01*
X118955221Y-92281275D01*
X118951308Y-92254897D01*
X118950000Y-92228262D01*
X118950000Y-91521738D01*
X118951308Y-91495103D01*
X118955221Y-91468725D01*
X118961701Y-91442857D01*
X118970685Y-91417748D01*
X118982086Y-91393642D01*
X118995796Y-91370768D01*
X119011682Y-91349349D01*
X119029590Y-91329590D01*
X119049349Y-91311682D01*
X119070768Y-91295796D01*
X119093642Y-91282086D01*
X119117748Y-91270685D01*
X119142857Y-91261701D01*
X119168725Y-91255221D01*
X119195103Y-91251308D01*
X119221738Y-91250000D01*
X120178262Y-91250000D01*
X120204897Y-91251308D01*
G37*
%TD*%
D18*
%TO.C,U1*%
X130100000Y-79445000D03*
D19*
X122600000Y-71945000D03*
X122600000Y-73215000D03*
X122600000Y-74485000D03*
X122600000Y-75755000D03*
X122600000Y-77025000D03*
X122600000Y-78295000D03*
X122600000Y-79565000D03*
X122600000Y-80835000D03*
X122600000Y-82105000D03*
X122600000Y-83375000D03*
X122600000Y-84645000D03*
X122600000Y-85915000D03*
X122600000Y-87185000D03*
X122600000Y-88455000D03*
D20*
X125385000Y-89455000D03*
X126655000Y-89455000D03*
X127925000Y-89455000D03*
X129195000Y-89455000D03*
X130465000Y-89455000D03*
X131735000Y-89455000D03*
X133005000Y-89455000D03*
X134275000Y-89455000D03*
X135545000Y-89455000D03*
X136815000Y-89455000D03*
D19*
X139600000Y-88455000D03*
X139600000Y-87185000D03*
X139600000Y-85915000D03*
X139600000Y-84645000D03*
X139600000Y-83375000D03*
X139600000Y-82105000D03*
X139600000Y-80835000D03*
X139600000Y-79565000D03*
X139600000Y-78295000D03*
X139600000Y-77025000D03*
X139600000Y-75755000D03*
X139600000Y-74485000D03*
X139600000Y-73215000D03*
X139600000Y-71945000D03*
%TD*%
D21*
%TO.C,F1*%
X89660000Y-109000000D03*
D22*
X104900000Y-109000000D03*
%TD*%
D10*
%TO.C,J2*%
X145240000Y-107460000D03*
X142700000Y-107460000D03*
X145240000Y-104920000D03*
X142700000Y-104920000D03*
X145240000Y-102380000D03*
X142700000Y-102380000D03*
X145240000Y-99840000D03*
X142700000Y-99840000D03*
X145240000Y-97300000D03*
D11*
X142700000Y-97300000D03*
%TD*%
D10*
%TO.C,J3*%
X135450000Y-94250000D03*
X132910000Y-94250000D03*
X130370000Y-94250000D03*
X127830000Y-94250000D03*
X125290000Y-94250000D03*
D11*
X122750000Y-94250000D03*
%TD*%
D23*
%TO.C,J7*%
X75500000Y-107440000D03*
X75500000Y-109980000D03*
X75500000Y-112520000D03*
X75500000Y-115060000D03*
D17*
G36*
X76411545Y-116681273D02*
G01*
X76437208Y-116685080D01*
X76462375Y-116691384D01*
X76486802Y-116700124D01*
X76510255Y-116711216D01*
X76532507Y-116724554D01*
X76553346Y-116740009D01*
X76572569Y-116757431D01*
X76589991Y-116776654D01*
X76605446Y-116797493D01*
X76618784Y-116819745D01*
X76629876Y-116843198D01*
X76638616Y-116867625D01*
X76644920Y-116892792D01*
X76648727Y-116918455D01*
X76650000Y-116944367D01*
X76650000Y-118255633D01*
X76648727Y-118281545D01*
X76644920Y-118307208D01*
X76638616Y-118332375D01*
X76629876Y-118356802D01*
X76618784Y-118380255D01*
X76605446Y-118402507D01*
X76589991Y-118423346D01*
X76572569Y-118442569D01*
X76553346Y-118459991D01*
X76532507Y-118475446D01*
X76510255Y-118488784D01*
X76486802Y-118499876D01*
X76462375Y-118508616D01*
X76437208Y-118514920D01*
X76411545Y-118518727D01*
X76385633Y-118520000D01*
X74614367Y-118520000D01*
X74588455Y-118518727D01*
X74562792Y-118514920D01*
X74537625Y-118508616D01*
X74513198Y-118499876D01*
X74489745Y-118488784D01*
X74467493Y-118475446D01*
X74446654Y-118459991D01*
X74427431Y-118442569D01*
X74410009Y-118423346D01*
X74394554Y-118402507D01*
X74381216Y-118380255D01*
X74370124Y-118356802D01*
X74361384Y-118332375D01*
X74355080Y-118307208D01*
X74351273Y-118281545D01*
X74350000Y-118255633D01*
X74350000Y-116944367D01*
X74351273Y-116918455D01*
X74355080Y-116892792D01*
X74361384Y-116867625D01*
X74370124Y-116843198D01*
X74381216Y-116819745D01*
X74394554Y-116797493D01*
X74410009Y-116776654D01*
X74427431Y-116757431D01*
X74446654Y-116740009D01*
X74467493Y-116724554D01*
X74489745Y-116711216D01*
X74513198Y-116700124D01*
X74537625Y-116691384D01*
X74562792Y-116685080D01*
X74588455Y-116681273D01*
X74614367Y-116680000D01*
X76385633Y-116680000D01*
X76411545Y-116681273D01*
G37*
%TD*%
D24*
%TO.C,J1*%
X82460000Y-116200000D03*
D17*
G36*
X85681545Y-115051273D02*
G01*
X85707208Y-115055080D01*
X85732375Y-115061384D01*
X85756802Y-115070124D01*
X85780255Y-115081216D01*
X85802507Y-115094554D01*
X85823346Y-115110009D01*
X85842569Y-115127431D01*
X85859991Y-115146654D01*
X85875446Y-115167493D01*
X85888784Y-115189745D01*
X85899876Y-115213198D01*
X85908616Y-115237625D01*
X85914920Y-115262792D01*
X85918727Y-115288455D01*
X85920000Y-115314367D01*
X85920000Y-117085633D01*
X85918727Y-117111545D01*
X85914920Y-117137208D01*
X85908616Y-117162375D01*
X85899876Y-117186802D01*
X85888784Y-117210255D01*
X85875446Y-117232507D01*
X85859991Y-117253346D01*
X85842569Y-117272569D01*
X85823346Y-117289991D01*
X85802507Y-117305446D01*
X85780255Y-117318784D01*
X85756802Y-117329876D01*
X85732375Y-117338616D01*
X85707208Y-117344920D01*
X85681545Y-117348727D01*
X85655633Y-117350000D01*
X84344367Y-117350000D01*
X84318455Y-117348727D01*
X84292792Y-117344920D01*
X84267625Y-117338616D01*
X84243198Y-117329876D01*
X84219745Y-117318784D01*
X84197493Y-117305446D01*
X84176654Y-117289991D01*
X84157431Y-117272569D01*
X84140009Y-117253346D01*
X84124554Y-117232507D01*
X84111216Y-117210255D01*
X84100124Y-117186802D01*
X84091384Y-117162375D01*
X84085080Y-117137208D01*
X84081273Y-117111545D01*
X84080000Y-117085633D01*
X84080000Y-115314367D01*
X84081273Y-115288455D01*
X84085080Y-115262792D01*
X84091384Y-115237625D01*
X84100124Y-115213198D01*
X84111216Y-115189745D01*
X84124554Y-115167493D01*
X84140009Y-115146654D01*
X84157431Y-115127431D01*
X84176654Y-115110009D01*
X84197493Y-115094554D01*
X84219745Y-115081216D01*
X84243198Y-115070124D01*
X84267625Y-115061384D01*
X84292792Y-115055080D01*
X84318455Y-115051273D01*
X84344367Y-115050000D01*
X85655633Y-115050000D01*
X85681545Y-115051273D01*
G37*
%TD*%
D25*
%TO.C,PS1*%
X115100000Y-74116000D03*
X109900000Y-103516000D03*
D26*
X104900000Y-103516000D03*
D25*
X99700000Y-74116000D03*
%TD*%
D27*
%TO.C,K5*%
X81532000Y-101103000D03*
X73912000Y-101103000D03*
X91692000Y-101103000D03*
X94232000Y-101103000D03*
X76452000Y-101103000D03*
%TD*%
%TO.C,K4*%
X81532000Y-94054500D03*
X73912000Y-94054500D03*
X91692000Y-94054500D03*
X94232000Y-94054500D03*
X76452000Y-94054500D03*
%TD*%
%TO.C,K3*%
X81532000Y-87006000D03*
X73912000Y-87006000D03*
X91692000Y-87006000D03*
X94232000Y-87006000D03*
X76452000Y-87006000D03*
%TD*%
%TO.C,K2*%
X81532000Y-79957500D03*
X73912000Y-79957500D03*
X91692000Y-79957500D03*
X94232000Y-79957500D03*
X76452000Y-79957500D03*
%TD*%
%TO.C,K1*%
X81532000Y-72909000D03*
X73912000Y-72909000D03*
X91692000Y-72909000D03*
X94232000Y-72909000D03*
X76452000Y-72909000D03*
%TD*%
D17*
%TO.C,R5*%
G36*
X142804897Y-109651308D02*
G01*
X142831275Y-109655221D01*
X142857143Y-109661701D01*
X142882252Y-109670685D01*
X142906358Y-109682086D01*
X142929232Y-109695796D01*
X142950651Y-109711682D01*
X142970410Y-109729590D01*
X142988318Y-109749349D01*
X143004204Y-109770768D01*
X143017914Y-109793642D01*
X143029315Y-109817748D01*
X143038299Y-109842857D01*
X143044779Y-109868725D01*
X143048692Y-109895103D01*
X143050000Y-109921738D01*
X143050000Y-110878262D01*
X143048692Y-110904897D01*
X143044779Y-110931275D01*
X143038299Y-110957143D01*
X143029315Y-110982252D01*
X143017914Y-111006358D01*
X143004204Y-111029232D01*
X142988318Y-111050651D01*
X142970410Y-111070410D01*
X142950651Y-111088318D01*
X142929232Y-111104204D01*
X142906358Y-111117914D01*
X142882252Y-111129315D01*
X142857143Y-111138299D01*
X142831275Y-111144779D01*
X142804897Y-111148692D01*
X142778262Y-111150000D01*
X142071738Y-111150000D01*
X142045103Y-111148692D01*
X142018725Y-111144779D01*
X141992857Y-111138299D01*
X141967748Y-111129315D01*
X141943642Y-111117914D01*
X141920768Y-111104204D01*
X141899349Y-111088318D01*
X141879590Y-111070410D01*
X141861682Y-111050651D01*
X141845796Y-111029232D01*
X141832086Y-111006358D01*
X141820685Y-110982252D01*
X141811701Y-110957143D01*
X141805221Y-110931275D01*
X141801308Y-110904897D01*
X141800000Y-110878262D01*
X141800000Y-109921738D01*
X141801308Y-109895103D01*
X141805221Y-109868725D01*
X141811701Y-109842857D01*
X141820685Y-109817748D01*
X141832086Y-109793642D01*
X141845796Y-109770768D01*
X141861682Y-109749349D01*
X141879590Y-109729590D01*
X141899349Y-109711682D01*
X141920768Y-109695796D01*
X141943642Y-109682086D01*
X141967748Y-109670685D01*
X141992857Y-109661701D01*
X142018725Y-109655221D01*
X142045103Y-109651308D01*
X142071738Y-109650000D01*
X142778262Y-109650000D01*
X142804897Y-109651308D01*
G37*
G36*
X140754897Y-109651308D02*
G01*
X140781275Y-109655221D01*
X140807143Y-109661701D01*
X140832252Y-109670685D01*
X140856358Y-109682086D01*
X140879232Y-109695796D01*
X140900651Y-109711682D01*
X140920410Y-109729590D01*
X140938318Y-109749349D01*
X140954204Y-109770768D01*
X140967914Y-109793642D01*
X140979315Y-109817748D01*
X140988299Y-109842857D01*
X140994779Y-109868725D01*
X140998692Y-109895103D01*
X141000000Y-109921738D01*
X141000000Y-110878262D01*
X140998692Y-110904897D01*
X140994779Y-110931275D01*
X140988299Y-110957143D01*
X140979315Y-110982252D01*
X140967914Y-111006358D01*
X140954204Y-111029232D01*
X140938318Y-111050651D01*
X140920410Y-111070410D01*
X140900651Y-111088318D01*
X140879232Y-111104204D01*
X140856358Y-111117914D01*
X140832252Y-111129315D01*
X140807143Y-111138299D01*
X140781275Y-111144779D01*
X140754897Y-111148692D01*
X140728262Y-111150000D01*
X140021738Y-111150000D01*
X139995103Y-111148692D01*
X139968725Y-111144779D01*
X139942857Y-111138299D01*
X139917748Y-111129315D01*
X139893642Y-111117914D01*
X139870768Y-111104204D01*
X139849349Y-111088318D01*
X139829590Y-111070410D01*
X139811682Y-111050651D01*
X139795796Y-111029232D01*
X139782086Y-111006358D01*
X139770685Y-110982252D01*
X139761701Y-110957143D01*
X139755221Y-110931275D01*
X139751308Y-110904897D01*
X139750000Y-110878262D01*
X139750000Y-109921738D01*
X139751308Y-109895103D01*
X139755221Y-109868725D01*
X139761701Y-109842857D01*
X139770685Y-109817748D01*
X139782086Y-109793642D01*
X139795796Y-109770768D01*
X139811682Y-109749349D01*
X139829590Y-109729590D01*
X139849349Y-109711682D01*
X139870768Y-109695796D01*
X139893642Y-109682086D01*
X139917748Y-109670685D01*
X139942857Y-109661701D01*
X139968725Y-109655221D01*
X139995103Y-109651308D01*
X140021738Y-109650000D01*
X140728262Y-109650000D01*
X140754897Y-109651308D01*
G37*
%TD*%
%TO.C,R3*%
G36*
X145454897Y-109651308D02*
G01*
X145481275Y-109655221D01*
X145507143Y-109661701D01*
X145532252Y-109670685D01*
X145556358Y-109682086D01*
X145579232Y-109695796D01*
X145600651Y-109711682D01*
X145620410Y-109729590D01*
X145638318Y-109749349D01*
X145654204Y-109770768D01*
X145667914Y-109793642D01*
X145679315Y-109817748D01*
X145688299Y-109842857D01*
X145694779Y-109868725D01*
X145698692Y-109895103D01*
X145700000Y-109921738D01*
X145700000Y-110878262D01*
X145698692Y-110904897D01*
X145694779Y-110931275D01*
X145688299Y-110957143D01*
X145679315Y-110982252D01*
X145667914Y-111006358D01*
X145654204Y-111029232D01*
X145638318Y-111050651D01*
X145620410Y-111070410D01*
X145600651Y-111088318D01*
X145579232Y-111104204D01*
X145556358Y-111117914D01*
X145532252Y-111129315D01*
X145507143Y-111138299D01*
X145481275Y-111144779D01*
X145454897Y-111148692D01*
X145428262Y-111150000D01*
X144721738Y-111150000D01*
X144695103Y-111148692D01*
X144668725Y-111144779D01*
X144642857Y-111138299D01*
X144617748Y-111129315D01*
X144593642Y-111117914D01*
X144570768Y-111104204D01*
X144549349Y-111088318D01*
X144529590Y-111070410D01*
X144511682Y-111050651D01*
X144495796Y-111029232D01*
X144482086Y-111006358D01*
X144470685Y-110982252D01*
X144461701Y-110957143D01*
X144455221Y-110931275D01*
X144451308Y-110904897D01*
X144450000Y-110878262D01*
X144450000Y-109921738D01*
X144451308Y-109895103D01*
X144455221Y-109868725D01*
X144461701Y-109842857D01*
X144470685Y-109817748D01*
X144482086Y-109793642D01*
X144495796Y-109770768D01*
X144511682Y-109749349D01*
X144529590Y-109729590D01*
X144549349Y-109711682D01*
X144570768Y-109695796D01*
X144593642Y-109682086D01*
X144617748Y-109670685D01*
X144642857Y-109661701D01*
X144668725Y-109655221D01*
X144695103Y-109651308D01*
X144721738Y-109650000D01*
X145428262Y-109650000D01*
X145454897Y-109651308D01*
G37*
G36*
X147504897Y-109651308D02*
G01*
X147531275Y-109655221D01*
X147557143Y-109661701D01*
X147582252Y-109670685D01*
X147606358Y-109682086D01*
X147629232Y-109695796D01*
X147650651Y-109711682D01*
X147670410Y-109729590D01*
X147688318Y-109749349D01*
X147704204Y-109770768D01*
X147717914Y-109793642D01*
X147729315Y-109817748D01*
X147738299Y-109842857D01*
X147744779Y-109868725D01*
X147748692Y-109895103D01*
X147750000Y-109921738D01*
X147750000Y-110878262D01*
X147748692Y-110904897D01*
X147744779Y-110931275D01*
X147738299Y-110957143D01*
X147729315Y-110982252D01*
X147717914Y-111006358D01*
X147704204Y-111029232D01*
X147688318Y-111050651D01*
X147670410Y-111070410D01*
X147650651Y-111088318D01*
X147629232Y-111104204D01*
X147606358Y-111117914D01*
X147582252Y-111129315D01*
X147557143Y-111138299D01*
X147531275Y-111144779D01*
X147504897Y-111148692D01*
X147478262Y-111150000D01*
X146771738Y-111150000D01*
X146745103Y-111148692D01*
X146718725Y-111144779D01*
X146692857Y-111138299D01*
X146667748Y-111129315D01*
X146643642Y-111117914D01*
X146620768Y-111104204D01*
X146599349Y-111088318D01*
X146579590Y-111070410D01*
X146561682Y-111050651D01*
X146545796Y-111029232D01*
X146532086Y-111006358D01*
X146520685Y-110982252D01*
X146511701Y-110957143D01*
X146505221Y-110931275D01*
X146501308Y-110904897D01*
X146500000Y-110878262D01*
X146500000Y-109921738D01*
X146501308Y-109895103D01*
X146505221Y-109868725D01*
X146511701Y-109842857D01*
X146520685Y-109817748D01*
X146532086Y-109793642D01*
X146545796Y-109770768D01*
X146561682Y-109749349D01*
X146579590Y-109729590D01*
X146599349Y-109711682D01*
X146620768Y-109695796D01*
X146643642Y-109682086D01*
X146667748Y-109670685D01*
X146692857Y-109661701D01*
X146718725Y-109655221D01*
X146745103Y-109651308D01*
X146771738Y-109650000D01*
X147478262Y-109650000D01*
X147504897Y-109651308D01*
G37*
%TD*%
D28*
%TO.C,D1*%
X141224000Y-112776000D03*
X142494000Y-112776000D03*
X143764000Y-112776000D03*
D29*
X145034000Y-112776000D03*
%TD*%
D30*
%TO.C,Q1*%
X133858000Y-107676000D03*
X132908000Y-105176000D03*
X134808000Y-105176000D03*
%TD*%
D31*
%TO.C,R1*%
X112630000Y-114476000D03*
X112630000Y-111076000D03*
%TD*%
D17*
%TO.C,R2*%
G36*
X130184897Y-106602308D02*
G01*
X130211275Y-106606221D01*
X130237143Y-106612701D01*
X130262252Y-106621685D01*
X130286358Y-106633086D01*
X130309232Y-106646796D01*
X130330651Y-106662682D01*
X130350410Y-106680590D01*
X130368318Y-106700349D01*
X130384204Y-106721768D01*
X130397914Y-106744642D01*
X130409315Y-106768748D01*
X130418299Y-106793857D01*
X130424779Y-106819725D01*
X130428692Y-106846103D01*
X130430000Y-106872738D01*
X130430000Y-107579262D01*
X130428692Y-107605897D01*
X130424779Y-107632275D01*
X130418299Y-107658143D01*
X130409315Y-107683252D01*
X130397914Y-107707358D01*
X130384204Y-107730232D01*
X130368318Y-107751651D01*
X130350410Y-107771410D01*
X130330651Y-107789318D01*
X130309232Y-107805204D01*
X130286358Y-107818914D01*
X130262252Y-107830315D01*
X130237143Y-107839299D01*
X130211275Y-107845779D01*
X130184897Y-107849692D01*
X130158262Y-107851000D01*
X129201738Y-107851000D01*
X129175103Y-107849692D01*
X129148725Y-107845779D01*
X129122857Y-107839299D01*
X129097748Y-107830315D01*
X129073642Y-107818914D01*
X129050768Y-107805204D01*
X129029349Y-107789318D01*
X129009590Y-107771410D01*
X128991682Y-107751651D01*
X128975796Y-107730232D01*
X128962086Y-107707358D01*
X128950685Y-107683252D01*
X128941701Y-107658143D01*
X128935221Y-107632275D01*
X128931308Y-107605897D01*
X128930000Y-107579262D01*
X128930000Y-106872738D01*
X128931308Y-106846103D01*
X128935221Y-106819725D01*
X128941701Y-106793857D01*
X128950685Y-106768748D01*
X128962086Y-106744642D01*
X128975796Y-106721768D01*
X128991682Y-106700349D01*
X129009590Y-106680590D01*
X129029349Y-106662682D01*
X129050768Y-106646796D01*
X129073642Y-106633086D01*
X129097748Y-106621685D01*
X129122857Y-106612701D01*
X129148725Y-106606221D01*
X129175103Y-106602308D01*
X129201738Y-106601000D01*
X130158262Y-106601000D01*
X130184897Y-106602308D01*
G37*
G36*
X130184897Y-104552308D02*
G01*
X130211275Y-104556221D01*
X130237143Y-104562701D01*
X130262252Y-104571685D01*
X130286358Y-104583086D01*
X130309232Y-104596796D01*
X130330651Y-104612682D01*
X130350410Y-104630590D01*
X130368318Y-104650349D01*
X130384204Y-104671768D01*
X130397914Y-104694642D01*
X130409315Y-104718748D01*
X130418299Y-104743857D01*
X130424779Y-104769725D01*
X130428692Y-104796103D01*
X130430000Y-104822738D01*
X130430000Y-105529262D01*
X130428692Y-105555897D01*
X130424779Y-105582275D01*
X130418299Y-105608143D01*
X130409315Y-105633252D01*
X130397914Y-105657358D01*
X130384204Y-105680232D01*
X130368318Y-105701651D01*
X130350410Y-105721410D01*
X130330651Y-105739318D01*
X130309232Y-105755204D01*
X130286358Y-105768914D01*
X130262252Y-105780315D01*
X130237143Y-105789299D01*
X130211275Y-105795779D01*
X130184897Y-105799692D01*
X130158262Y-105801000D01*
X129201738Y-105801000D01*
X129175103Y-105799692D01*
X129148725Y-105795779D01*
X129122857Y-105789299D01*
X129097748Y-105780315D01*
X129073642Y-105768914D01*
X129050768Y-105755204D01*
X129029349Y-105739318D01*
X129009590Y-105721410D01*
X128991682Y-105701651D01*
X128975796Y-105680232D01*
X128962086Y-105657358D01*
X128950685Y-105633252D01*
X128941701Y-105608143D01*
X128935221Y-105582275D01*
X128931308Y-105555897D01*
X128930000Y-105529262D01*
X128930000Y-104822738D01*
X128931308Y-104796103D01*
X128935221Y-104769725D01*
X128941701Y-104743857D01*
X128950685Y-104718748D01*
X128962086Y-104694642D01*
X128975796Y-104671768D01*
X128991682Y-104650349D01*
X129009590Y-104630590D01*
X129029349Y-104612682D01*
X129050768Y-104596796D01*
X129073642Y-104583086D01*
X129097748Y-104571685D01*
X129122857Y-104562701D01*
X129148725Y-104556221D01*
X129175103Y-104552308D01*
X129201738Y-104551000D01*
X130158262Y-104551000D01*
X130184897Y-104552308D01*
G37*
%TD*%
D32*
%TO.C,D2*%
X132500000Y-112776000D03*
D33*
X135040000Y-112776000D03*
%TD*%
D10*
%TO.C,JP1*%
X131318000Y-100076000D03*
D11*
X133858000Y-100076000D03*
%TD*%
D17*
%TO.C,R8*%
G36*
X138172897Y-106749308D02*
G01*
X138199275Y-106753221D01*
X138225143Y-106759701D01*
X138250252Y-106768685D01*
X138274358Y-106780086D01*
X138297232Y-106793796D01*
X138318651Y-106809682D01*
X138338410Y-106827590D01*
X138356318Y-106847349D01*
X138372204Y-106868768D01*
X138385914Y-106891642D01*
X138397315Y-106915748D01*
X138406299Y-106940857D01*
X138412779Y-106966725D01*
X138416692Y-106993103D01*
X138418000Y-107019738D01*
X138418000Y-107726262D01*
X138416692Y-107752897D01*
X138412779Y-107779275D01*
X138406299Y-107805143D01*
X138397315Y-107830252D01*
X138385914Y-107854358D01*
X138372204Y-107877232D01*
X138356318Y-107898651D01*
X138338410Y-107918410D01*
X138318651Y-107936318D01*
X138297232Y-107952204D01*
X138274358Y-107965914D01*
X138250252Y-107977315D01*
X138225143Y-107986299D01*
X138199275Y-107992779D01*
X138172897Y-107996692D01*
X138146262Y-107998000D01*
X137189738Y-107998000D01*
X137163103Y-107996692D01*
X137136725Y-107992779D01*
X137110857Y-107986299D01*
X137085748Y-107977315D01*
X137061642Y-107965914D01*
X137038768Y-107952204D01*
X137017349Y-107936318D01*
X136997590Y-107918410D01*
X136979682Y-107898651D01*
X136963796Y-107877232D01*
X136950086Y-107854358D01*
X136938685Y-107830252D01*
X136929701Y-107805143D01*
X136923221Y-107779275D01*
X136919308Y-107752897D01*
X136918000Y-107726262D01*
X136918000Y-107019738D01*
X136919308Y-106993103D01*
X136923221Y-106966725D01*
X136929701Y-106940857D01*
X136938685Y-106915748D01*
X136950086Y-106891642D01*
X136963796Y-106868768D01*
X136979682Y-106847349D01*
X136997590Y-106827590D01*
X137017349Y-106809682D01*
X137038768Y-106793796D01*
X137061642Y-106780086D01*
X137085748Y-106768685D01*
X137110857Y-106759701D01*
X137136725Y-106753221D01*
X137163103Y-106749308D01*
X137189738Y-106748000D01*
X138146262Y-106748000D01*
X138172897Y-106749308D01*
G37*
G36*
X138172897Y-104699308D02*
G01*
X138199275Y-104703221D01*
X138225143Y-104709701D01*
X138250252Y-104718685D01*
X138274358Y-104730086D01*
X138297232Y-104743796D01*
X138318651Y-104759682D01*
X138338410Y-104777590D01*
X138356318Y-104797349D01*
X138372204Y-104818768D01*
X138385914Y-104841642D01*
X138397315Y-104865748D01*
X138406299Y-104890857D01*
X138412779Y-104916725D01*
X138416692Y-104943103D01*
X138418000Y-104969738D01*
X138418000Y-105676262D01*
X138416692Y-105702897D01*
X138412779Y-105729275D01*
X138406299Y-105755143D01*
X138397315Y-105780252D01*
X138385914Y-105804358D01*
X138372204Y-105827232D01*
X138356318Y-105848651D01*
X138338410Y-105868410D01*
X138318651Y-105886318D01*
X138297232Y-105902204D01*
X138274358Y-105915914D01*
X138250252Y-105927315D01*
X138225143Y-105936299D01*
X138199275Y-105942779D01*
X138172897Y-105946692D01*
X138146262Y-105948000D01*
X137189738Y-105948000D01*
X137163103Y-105946692D01*
X137136725Y-105942779D01*
X137110857Y-105936299D01*
X137085748Y-105927315D01*
X137061642Y-105915914D01*
X137038768Y-105902204D01*
X137017349Y-105886318D01*
X136997590Y-105868410D01*
X136979682Y-105848651D01*
X136963796Y-105827232D01*
X136950086Y-105804358D01*
X136938685Y-105780252D01*
X136929701Y-105755143D01*
X136923221Y-105729275D01*
X136919308Y-105702897D01*
X136918000Y-105676262D01*
X136918000Y-104969738D01*
X136919308Y-104943103D01*
X136923221Y-104916725D01*
X136929701Y-104890857D01*
X136938685Y-104865748D01*
X136950086Y-104841642D01*
X136963796Y-104818768D01*
X136979682Y-104797349D01*
X136997590Y-104777590D01*
X137017349Y-104759682D01*
X137038768Y-104743796D01*
X137061642Y-104730086D01*
X137085748Y-104718685D01*
X137110857Y-104709701D01*
X137136725Y-104703221D01*
X137163103Y-104699308D01*
X137189738Y-104698000D01*
X138146262Y-104698000D01*
X138172897Y-104699308D01*
G37*
%TD*%
M02*
