%TF.GenerationSoftware,KiCad,Pcbnew,5.1.5+dfsg1-2build2*%
%TF.CreationDate,2021-01-07T21:04:46-03:00*%
%TF.ProjectId,Punkatoo,50756e6b-6174-46f6-9f2e-6b696361645f,rev?*%
%TF.SameCoordinates,Original*%
%TF.FileFunction,Legend,Bot*%
%TF.FilePolarity,Positive*%
%FSLAX46Y46*%
G04 Gerber Fmt 4.6, Leading zero omitted, Abs format (unit mm)*
G04 Created by KiCad (PCBNEW 5.1.5+dfsg1-2build2) date 2021-01-07 21:04:46*
%MOMM*%
%LPD*%
G04 APERTURE LIST*
%ADD10C,0.120000*%
%ADD11C,0.150000*%
%ADD12C,0.100000*%
%ADD13C,0.130000*%
%ADD14C,0.200000*%
%ADD15C,0.010000*%
G04 APERTURE END LIST*
D10*
X111300000Y-100600000D02*
X109218000Y-100600000D01*
X111300000Y-88800000D02*
X111300000Y-100600000D01*
X109200000Y-88800000D02*
X111300000Y-88800000D01*
D11*
X82052380Y-88833333D02*
X81052380Y-88833333D01*
X81766666Y-89166666D01*
X81052380Y-89500000D01*
X82052380Y-89500000D01*
X82052380Y-90119047D02*
X82004761Y-90023809D01*
X81957142Y-89976190D01*
X81861904Y-89928571D01*
X81576190Y-89928571D01*
X81480952Y-89976190D01*
X81433333Y-90023809D01*
X81385714Y-90119047D01*
X81385714Y-90261904D01*
X81433333Y-90357142D01*
X81480952Y-90404761D01*
X81576190Y-90452380D01*
X81861904Y-90452380D01*
X81957142Y-90404761D01*
X82004761Y-90357142D01*
X82052380Y-90261904D01*
X82052380Y-90119047D01*
X82052380Y-91309523D02*
X81052380Y-91309523D01*
X82004761Y-91309523D02*
X82052380Y-91214285D01*
X82052380Y-91023809D01*
X82004761Y-90928571D01*
X81957142Y-90880952D01*
X81861904Y-90833333D01*
X81576190Y-90833333D01*
X81480952Y-90880952D01*
X81433333Y-90928571D01*
X81385714Y-91023809D01*
X81385714Y-91214285D01*
X81433333Y-91309523D01*
X82004761Y-92166666D02*
X82052380Y-92071428D01*
X82052380Y-91880952D01*
X82004761Y-91785714D01*
X81909523Y-91738095D01*
X81528571Y-91738095D01*
X81433333Y-91785714D01*
X81385714Y-91880952D01*
X81385714Y-92071428D01*
X81433333Y-92166666D01*
X81528571Y-92214285D01*
X81623809Y-92214285D01*
X81719047Y-91738095D01*
D10*
X71600000Y-92700000D02*
X71600000Y-88000000D01*
X82500000Y-92700000D02*
X71600000Y-92700000D01*
X82500000Y-88000000D02*
X82500000Y-92700000D01*
X71600000Y-88000000D02*
X82500000Y-88000000D01*
X135100000Y-110850000D02*
X132600000Y-110850000D01*
X124875000Y-113772000D02*
X124900000Y-109172000D01*
X120875000Y-113772000D02*
X120900000Y-109172000D01*
X124875000Y-113772000D02*
G75*
G02X120875000Y-113772000I-2000000J0D01*
G01*
X120375000Y-116172000D02*
X125375000Y-116172000D01*
X120375000Y-116172000D02*
X120375000Y-109172000D01*
X125400000Y-109172000D02*
X125375000Y-116172000D01*
X120375000Y-109172000D02*
X125400000Y-109172000D01*
X133900000Y-109950000D02*
X133900000Y-109750000D01*
X133600000Y-110050000D02*
X133900000Y-109750000D01*
X133900000Y-109750000D02*
X133700000Y-109750000D01*
X134300000Y-109750000D02*
X134100000Y-109750000D01*
X134300000Y-109950000D02*
X134300000Y-109750000D01*
X134000000Y-110050000D02*
X134300000Y-109750000D01*
X134600000Y-110300000D02*
X134600000Y-109100000D01*
D12*
G36*
X134300000Y-110850000D02*
G01*
X133500000Y-111450000D01*
X133500000Y-110250000D01*
X134300000Y-110850000D01*
G37*
X134300000Y-110850000D02*
X133500000Y-111450000D01*
X133500000Y-110250000D01*
X134300000Y-110850000D01*
D10*
X92630000Y-72474000D02*
X83002000Y-72474000D01*
X92630000Y-100600000D02*
X83002000Y-100600000D01*
X83002000Y-72474000D02*
X83000000Y-100700000D01*
X92630000Y-100700000D02*
X92630000Y-72474000D01*
D13*
X110339285Y-94339285D02*
X110339285Y-93910714D01*
X110339285Y-94125000D02*
X109589285Y-94125000D01*
X109696428Y-94053571D01*
X109767857Y-93982142D01*
X109803571Y-93910714D01*
X110339285Y-94660714D02*
X109589285Y-94660714D01*
X110339285Y-95089285D02*
X109910714Y-94767857D01*
X109589285Y-95089285D02*
X110017857Y-94660714D01*
D10*
X97026000Y-74814000D02*
X97000000Y-100600000D01*
X97026000Y-100600000D02*
X104646000Y-100600000D01*
X104646000Y-100600000D02*
X104646000Y-74814000D01*
D13*
X83646428Y-84707142D02*
X83682142Y-84814285D01*
X83717857Y-84850000D01*
X83789285Y-84885714D01*
X83896428Y-84885714D01*
X83967857Y-84850000D01*
X84003571Y-84814285D01*
X84039285Y-84742857D01*
X84039285Y-84457142D01*
X83289285Y-84457142D01*
X83289285Y-84707142D01*
X83325000Y-84778571D01*
X83360714Y-84814285D01*
X83432142Y-84850000D01*
X83503571Y-84850000D01*
X83575000Y-84814285D01*
X83610714Y-84778571D01*
X83646428Y-84707142D01*
X83646428Y-84457142D01*
X83967857Y-85635714D02*
X84003571Y-85600000D01*
X84039285Y-85492857D01*
X84039285Y-85421428D01*
X84003571Y-85314285D01*
X83932142Y-85242857D01*
X83860714Y-85207142D01*
X83717857Y-85171428D01*
X83610714Y-85171428D01*
X83467857Y-85207142D01*
X83396428Y-85242857D01*
X83325000Y-85314285D01*
X83289285Y-85421428D01*
X83289285Y-85492857D01*
X83325000Y-85600000D01*
X83360714Y-85635714D01*
X83610714Y-86064285D02*
X83575000Y-85992857D01*
X83539285Y-85957142D01*
X83467857Y-85921428D01*
X83432142Y-85921428D01*
X83360714Y-85957142D01*
X83325000Y-85992857D01*
X83289285Y-86064285D01*
X83289285Y-86207142D01*
X83325000Y-86278571D01*
X83360714Y-86314285D01*
X83432142Y-86350000D01*
X83467857Y-86350000D01*
X83539285Y-86314285D01*
X83575000Y-86278571D01*
X83610714Y-86207142D01*
X83610714Y-86064285D01*
X83646428Y-85992857D01*
X83682142Y-85957142D01*
X83753571Y-85921428D01*
X83896428Y-85921428D01*
X83967857Y-85957142D01*
X84003571Y-85992857D01*
X84039285Y-86064285D01*
X84039285Y-86207142D01*
X84003571Y-86278571D01*
X83967857Y-86314285D01*
X83896428Y-86350000D01*
X83753571Y-86350000D01*
X83682142Y-86314285D01*
X83646428Y-86278571D01*
X83610714Y-86207142D01*
X83289285Y-86814285D02*
X83289285Y-86885714D01*
X83325000Y-86957142D01*
X83360714Y-86992857D01*
X83432142Y-87028571D01*
X83575000Y-87064285D01*
X83753571Y-87064285D01*
X83896428Y-87028571D01*
X83967857Y-86992857D01*
X84003571Y-86957142D01*
X84039285Y-86885714D01*
X84039285Y-86814285D01*
X84003571Y-86742857D01*
X83967857Y-86707142D01*
X83896428Y-86671428D01*
X83753571Y-86635714D01*
X83575000Y-86635714D01*
X83432142Y-86671428D01*
X83360714Y-86707142D01*
X83325000Y-86742857D01*
X83289285Y-86814285D01*
X83289285Y-87314285D02*
X83289285Y-87814285D01*
X84039285Y-87492857D01*
X97946428Y-84907142D02*
X97982142Y-85014285D01*
X98017857Y-85050000D01*
X98089285Y-85085714D01*
X98196428Y-85085714D01*
X98267857Y-85050000D01*
X98303571Y-85014285D01*
X98339285Y-84942857D01*
X98339285Y-84657142D01*
X97589285Y-84657142D01*
X97589285Y-84907142D01*
X97625000Y-84978571D01*
X97660714Y-85014285D01*
X97732142Y-85050000D01*
X97803571Y-85050000D01*
X97875000Y-85014285D01*
X97910714Y-84978571D01*
X97946428Y-84907142D01*
X97946428Y-84657142D01*
X98267857Y-85835714D02*
X98303571Y-85800000D01*
X98339285Y-85692857D01*
X98339285Y-85621428D01*
X98303571Y-85514285D01*
X98232142Y-85442857D01*
X98160714Y-85407142D01*
X98017857Y-85371428D01*
X97910714Y-85371428D01*
X97767857Y-85407142D01*
X97696428Y-85442857D01*
X97625000Y-85514285D01*
X97589285Y-85621428D01*
X97589285Y-85692857D01*
X97625000Y-85800000D01*
X97660714Y-85835714D01*
X97910714Y-86264285D02*
X97875000Y-86192857D01*
X97839285Y-86157142D01*
X97767857Y-86121428D01*
X97732142Y-86121428D01*
X97660714Y-86157142D01*
X97625000Y-86192857D01*
X97589285Y-86264285D01*
X97589285Y-86407142D01*
X97625000Y-86478571D01*
X97660714Y-86514285D01*
X97732142Y-86550000D01*
X97767857Y-86550000D01*
X97839285Y-86514285D01*
X97875000Y-86478571D01*
X97910714Y-86407142D01*
X97910714Y-86264285D01*
X97946428Y-86192857D01*
X97982142Y-86157142D01*
X98053571Y-86121428D01*
X98196428Y-86121428D01*
X98267857Y-86157142D01*
X98303571Y-86192857D01*
X98339285Y-86264285D01*
X98339285Y-86407142D01*
X98303571Y-86478571D01*
X98267857Y-86514285D01*
X98196428Y-86550000D01*
X98053571Y-86550000D01*
X97982142Y-86514285D01*
X97946428Y-86478571D01*
X97910714Y-86407142D01*
X97839285Y-87192857D02*
X98339285Y-87192857D01*
X97553571Y-87014285D02*
X98089285Y-86835714D01*
X98089285Y-87300000D01*
X97589285Y-87514285D02*
X97589285Y-88014285D01*
X98339285Y-87692857D01*
D10*
X104646000Y-74814000D02*
X97026000Y-74814000D01*
X104900000Y-100600000D02*
X109218000Y-100600000D01*
X109218000Y-88800000D02*
X109218000Y-74814000D01*
X109218000Y-74814000D02*
X104900000Y-74814000D01*
X104900000Y-74814000D02*
X104900000Y-100600000D01*
D14*
X135049107Y-64328571D02*
X134861607Y-62828571D01*
X134290178Y-62828571D01*
X134156250Y-62900000D01*
X134093750Y-62971428D01*
X134040178Y-63114285D01*
X134066964Y-63328571D01*
X134156250Y-63471428D01*
X134236607Y-63542857D01*
X134388392Y-63614285D01*
X134959821Y-63614285D01*
X132781250Y-63328571D02*
X132906250Y-64328571D01*
X133424107Y-63328571D02*
X133522321Y-64114285D01*
X133468750Y-64257142D01*
X133334821Y-64328571D01*
X133120535Y-64328571D01*
X132968750Y-64257142D01*
X132888392Y-64185714D01*
X132066964Y-63328571D02*
X132191964Y-64328571D01*
X132084821Y-63471428D02*
X132004464Y-63400000D01*
X131852678Y-63328571D01*
X131638392Y-63328571D01*
X131504464Y-63400000D01*
X131450892Y-63542857D01*
X131549107Y-64328571D01*
X130834821Y-64328571D02*
X130647321Y-62828571D01*
X130620535Y-63757142D02*
X130263392Y-64328571D01*
X130138392Y-63328571D02*
X130781250Y-63900000D01*
X128977678Y-64328571D02*
X128879464Y-63542857D01*
X128933035Y-63400000D01*
X129066964Y-63328571D01*
X129352678Y-63328571D01*
X129504464Y-63400000D01*
X128968750Y-64257142D02*
X129120535Y-64328571D01*
X129477678Y-64328571D01*
X129611607Y-64257142D01*
X129665178Y-64114285D01*
X129647321Y-63971428D01*
X129558035Y-63828571D01*
X129406250Y-63757142D01*
X129049107Y-63757142D01*
X128897321Y-63685714D01*
X128352678Y-63328571D02*
X127781250Y-63328571D01*
X128075892Y-62828571D02*
X128236607Y-64114285D01*
X128183035Y-64257142D01*
X128049107Y-64328571D01*
X127906250Y-64328571D01*
X127191964Y-64328571D02*
X127325892Y-64257142D01*
X127388392Y-64185714D01*
X127441964Y-64042857D01*
X127388392Y-63614285D01*
X127299107Y-63471428D01*
X127218750Y-63400000D01*
X127066964Y-63328571D01*
X126852678Y-63328571D01*
X126718750Y-63400000D01*
X126656250Y-63471428D01*
X126602678Y-63614285D01*
X126656250Y-64042857D01*
X126745535Y-64185714D01*
X126825892Y-64257142D01*
X126977678Y-64328571D01*
X127191964Y-64328571D01*
X125834821Y-64328571D02*
X125968750Y-64257142D01*
X126031250Y-64185714D01*
X126084821Y-64042857D01*
X126031250Y-63614285D01*
X125941964Y-63471428D01*
X125861607Y-63400000D01*
X125709821Y-63328571D01*
X125495535Y-63328571D01*
X125361607Y-63400000D01*
X125299107Y-63471428D01*
X125245535Y-63614285D01*
X125299107Y-64042857D01*
X125388392Y-64185714D01*
X125468750Y-64257142D01*
X125620535Y-64328571D01*
X125834821Y-64328571D01*
X123075892Y-62828571D02*
X122933035Y-62828571D01*
X122799107Y-62900000D01*
X122736607Y-62971428D01*
X122683035Y-63114285D01*
X122647321Y-63400000D01*
X122691964Y-63757142D01*
X122799107Y-64042857D01*
X122888392Y-64185714D01*
X122968750Y-64257142D01*
X123120535Y-64328571D01*
X123263392Y-64328571D01*
X123397321Y-64257142D01*
X123459821Y-64185714D01*
X123513392Y-64042857D01*
X123549107Y-63757142D01*
X123504464Y-63400000D01*
X123397321Y-63114285D01*
X123308035Y-62971428D01*
X123227678Y-62900000D01*
X123075892Y-62828571D01*
X122102678Y-64185714D02*
X122040178Y-64257142D01*
X122120535Y-64328571D01*
X122183035Y-64257142D01*
X122102678Y-64185714D01*
X122120535Y-64328571D01*
X120620535Y-64328571D02*
X121477678Y-64328571D01*
X121049107Y-64328571D02*
X120861607Y-62828571D01*
X121031250Y-63042857D01*
X121191964Y-63185714D01*
X121343750Y-63257142D01*
X128450892Y-65421428D02*
X128370535Y-65350000D01*
X128218750Y-65278571D01*
X127861607Y-65278571D01*
X127727678Y-65350000D01*
X127665178Y-65421428D01*
X127611607Y-65564285D01*
X127629464Y-65707142D01*
X127727678Y-65921428D01*
X128691964Y-66778571D01*
X127763392Y-66778571D01*
X126334821Y-66778571D02*
X127191964Y-66778571D01*
X126763392Y-66778571D02*
X126575892Y-65278571D01*
X126745535Y-65492857D01*
X126906250Y-65635714D01*
X127058035Y-65707142D01*
X125218750Y-65278571D02*
X125075892Y-65278571D01*
X124941964Y-65350000D01*
X124879464Y-65421428D01*
X124825892Y-65564285D01*
X124790178Y-65850000D01*
X124834821Y-66207142D01*
X124941964Y-66492857D01*
X125031250Y-66635714D01*
X125111607Y-66707142D01*
X125263392Y-66778571D01*
X125406250Y-66778571D01*
X125540178Y-66707142D01*
X125602678Y-66635714D01*
X125656250Y-66492857D01*
X125691964Y-66207142D01*
X125647321Y-65850000D01*
X125540178Y-65564285D01*
X125450892Y-65421428D01*
X125370535Y-65350000D01*
X125218750Y-65278571D01*
X123477678Y-66778571D02*
X124334821Y-66778571D01*
X123906250Y-66778571D02*
X123718750Y-65278571D01*
X123888392Y-65492857D01*
X124049107Y-65635714D01*
X124200892Y-65707142D01*
X122361607Y-65278571D02*
X122218750Y-65278571D01*
X122084821Y-65350000D01*
X122022321Y-65421428D01*
X121968750Y-65564285D01*
X121933035Y-65850000D01*
X121977678Y-66207142D01*
X122084821Y-66492857D01*
X122174107Y-66635714D01*
X122254464Y-66707142D01*
X122406250Y-66778571D01*
X122549107Y-66778571D01*
X122683035Y-66707142D01*
X122745535Y-66635714D01*
X122799107Y-66492857D01*
X122834821Y-66207142D01*
X122790178Y-65850000D01*
X122683035Y-65564285D01*
X122593750Y-65421428D01*
X122513392Y-65350000D01*
X122361607Y-65278571D01*
X121361607Y-65278571D02*
X120361607Y-65278571D01*
X121191964Y-66778571D01*
X128049107Y-68085714D02*
X128183035Y-68014285D01*
X128468750Y-68014285D01*
X128620535Y-68085714D01*
X128781250Y-68228571D01*
X128870535Y-68371428D01*
X128906250Y-68657142D01*
X128852678Y-68800000D01*
X128727678Y-68942857D01*
X128593750Y-69014285D01*
X128308035Y-69014285D01*
X128156250Y-68942857D01*
X128263392Y-67514285D02*
X128629464Y-67585714D01*
X129013392Y-67800000D01*
X129272321Y-68157142D01*
X129388392Y-68514285D01*
X129361607Y-68871428D01*
X129191964Y-69228571D01*
X128861607Y-69442857D01*
X128513392Y-69514285D01*
X128147321Y-69442857D01*
X127763392Y-69228571D01*
X127504464Y-68871428D01*
X127388392Y-68514285D01*
X127415178Y-68157142D01*
X127584821Y-67800000D01*
X127915178Y-67585714D01*
X128263392Y-67514285D01*
X125593750Y-67871428D02*
X125513392Y-67800000D01*
X125361607Y-67728571D01*
X125004464Y-67728571D01*
X124870535Y-67800000D01*
X124808035Y-67871428D01*
X124754464Y-68014285D01*
X124772321Y-68157142D01*
X124870535Y-68371428D01*
X125834821Y-69228571D01*
X124906250Y-69228571D01*
X123790178Y-67728571D02*
X123647321Y-67728571D01*
X123513392Y-67800000D01*
X123450892Y-67871428D01*
X123397321Y-68014285D01*
X123361607Y-68300000D01*
X123406250Y-68657142D01*
X123513392Y-68942857D01*
X123602678Y-69085714D01*
X123683035Y-69157142D01*
X123834821Y-69228571D01*
X123977678Y-69228571D01*
X124111607Y-69157142D01*
X124174107Y-69085714D01*
X124227678Y-68942857D01*
X124263392Y-68657142D01*
X124218750Y-68300000D01*
X124111607Y-68014285D01*
X124022321Y-67871428D01*
X123941964Y-67800000D01*
X123790178Y-67728571D01*
X122736607Y-67871428D02*
X122656250Y-67800000D01*
X122504464Y-67728571D01*
X122147321Y-67728571D01*
X122013392Y-67800000D01*
X121950892Y-67871428D01*
X121897321Y-68014285D01*
X121915178Y-68157142D01*
X122013392Y-68371428D01*
X122977678Y-69228571D01*
X122049107Y-69228571D01*
X120620535Y-69228571D02*
X121477678Y-69228571D01*
X121049107Y-69228571D02*
X120861607Y-67728571D01*
X121031250Y-67942857D01*
X121191964Y-68085714D01*
X121343750Y-68157142D01*
D10*
%TO.C,U2*%
X126620000Y-106502000D02*
X126620000Y-105172000D01*
X125290000Y-106502000D02*
X126620000Y-106502000D01*
X124020000Y-106502000D02*
X124020000Y-103842000D01*
X124020000Y-103842000D02*
X118880000Y-103842000D01*
X124020000Y-106502000D02*
X118880000Y-106502000D01*
X118880000Y-106502000D02*
X118880000Y-103842000D01*
%TO.C,RV1*%
X97100000Y-113000000D02*
X100350000Y-113000000D01*
X97100000Y-120000000D02*
X100350000Y-120000000D01*
X108850000Y-116500000D02*
G75*
G03X108850000Y-116500000I-5000000J0D01*
G01*
%TO.C,F1*%
X91100000Y-109000000D02*
X92210000Y-109000000D01*
X103460000Y-109000000D02*
X102350000Y-109000000D01*
X92210000Y-107080000D02*
X102350000Y-107080000D01*
X92210000Y-110920000D02*
X92210000Y-107080000D01*
X102350000Y-110920000D02*
X92210000Y-110920000D01*
X102350000Y-107080000D02*
X102350000Y-110920000D01*
%TO.C,JP3*%
X78638748Y-89290000D02*
X79161252Y-89290000D01*
X78638748Y-90710000D02*
X79161252Y-90710000D01*
%TO.C,JP2*%
X75161252Y-90710000D02*
X74638748Y-90710000D01*
X75161252Y-89290000D02*
X74638748Y-89290000D01*
%TO.C,J5*%
X141610000Y-84938748D02*
X141610000Y-85461252D01*
X140190000Y-84938748D02*
X140190000Y-85461252D01*
%TO.C,J4*%
X146790000Y-113361252D02*
X146790000Y-112838748D01*
X148210000Y-113361252D02*
X148210000Y-112838748D01*
%TO.C,D1*%
X145689000Y-113856000D02*
X145689000Y-114321000D01*
X145689000Y-111231000D02*
X145689000Y-111696000D01*
X140874521Y-113856429D02*
G75*
G03X145383684Y-113856000I2254479J1080429D01*
G01*
X140874521Y-111695571D02*
G75*
G02X145383684Y-111696000I2254479J-1080429D01*
G01*
X140341185Y-113856827D02*
G75*
G03X145689000Y-114320830I2787815J1080827D01*
G01*
X140341185Y-111695173D02*
G75*
G02X145689000Y-111231170I2787815J-1080827D01*
G01*
%TO.C,R6*%
X139110000Y-110538748D02*
X139110000Y-111061252D01*
X137690000Y-110538748D02*
X137690000Y-111061252D01*
%TO.C,R7*%
X129910000Y-111538748D02*
X129910000Y-112061252D01*
X128490000Y-111538748D02*
X128490000Y-112061252D01*
%TO.C,R1*%
X114748249Y-114320513D02*
G75*
G02X110480000Y-114276000I-2118249J1544513D01*
G01*
X110464474Y-111247766D02*
G75*
G02X114780000Y-111226000I2165526J-1528234D01*
G01*
X110480000Y-111226000D02*
X110480000Y-114276000D01*
X114780000Y-111226000D02*
X114780000Y-114276000D01*
%TO.C,Q11*%
X86810000Y-96660000D02*
X86810000Y-98120000D01*
X89970000Y-96660000D02*
X89970000Y-98820000D01*
X89970000Y-96660000D02*
X89040000Y-96660000D01*
X86810000Y-96660000D02*
X87740000Y-96660000D01*
%TO.C,Q4*%
X101346000Y-89221000D02*
X102806000Y-89221000D01*
X101346000Y-86061000D02*
X103506000Y-86061000D01*
X101346000Y-86061000D02*
X101346000Y-86991000D01*
X101346000Y-89221000D02*
X101346000Y-88291000D01*
%TO.C,Q9*%
X86810000Y-85357000D02*
X86810000Y-86817000D01*
X89970000Y-85357000D02*
X89970000Y-87517000D01*
X89970000Y-85357000D02*
X89040000Y-85357000D01*
X86810000Y-85357000D02*
X87740000Y-85357000D01*
%TO.C,Q6*%
X101346000Y-99508000D02*
X102806000Y-99508000D01*
X101346000Y-96348000D02*
X103506000Y-96348000D01*
X101346000Y-96348000D02*
X101346000Y-97278000D01*
X101346000Y-99508000D02*
X101346000Y-98578000D01*
%TO.C,Q2*%
X101346000Y-78934000D02*
X102806000Y-78934000D01*
X101346000Y-75774000D02*
X103506000Y-75774000D01*
X101346000Y-75774000D02*
X101346000Y-76704000D01*
X101346000Y-78934000D02*
X101346000Y-78004000D01*
%TO.C,R9*%
X121150748Y-99516000D02*
X121673252Y-99516000D01*
X121150748Y-98096000D02*
X121673252Y-98096000D01*
%TO.C,Q3*%
X101346000Y-84077500D02*
X102806000Y-84077500D01*
X101346000Y-80917500D02*
X103506000Y-80917500D01*
X101346000Y-80917500D02*
X101346000Y-81847500D01*
X101346000Y-84077500D02*
X101346000Y-83147500D01*
%TO.C,R11*%
X105714000Y-81791748D02*
X105714000Y-82314252D01*
X107134000Y-81791748D02*
X107134000Y-82314252D01*
%TO.C,R10*%
X105714000Y-76584748D02*
X105714000Y-77107252D01*
X107134000Y-76584748D02*
X107134000Y-77107252D01*
%TO.C,U3*%
X116438000Y-85106000D02*
X115178000Y-85106000D01*
X109618000Y-85106000D02*
X110878000Y-85106000D01*
X116438000Y-81346000D02*
X116438000Y-85106000D01*
X109618000Y-79096000D02*
X109618000Y-85106000D01*
%TO.C,Q8*%
X86810000Y-79705500D02*
X86810000Y-81165500D01*
X89970000Y-79705500D02*
X89970000Y-81865500D01*
X89970000Y-79705500D02*
X89040000Y-79705500D01*
X86810000Y-79705500D02*
X87740000Y-79705500D01*
%TO.C,Q5*%
X101346000Y-94364500D02*
X102806000Y-94364500D01*
X101346000Y-91204500D02*
X103506000Y-91204500D01*
X101346000Y-91204500D02*
X101346000Y-92134500D01*
X101346000Y-94364500D02*
X101346000Y-93434500D01*
%TO.C,R14*%
X107134000Y-97935252D02*
X107134000Y-97412748D01*
X105714000Y-97935252D02*
X105714000Y-97412748D01*
%TO.C,Q10*%
X86810000Y-91008500D02*
X86810000Y-92468500D01*
X89970000Y-91008500D02*
X89970000Y-93168500D01*
X89970000Y-91008500D02*
X89040000Y-91008500D01*
X86810000Y-91008500D02*
X87740000Y-91008500D01*
%TO.C,C1*%
X121150748Y-102564000D02*
X121673252Y-102564000D01*
X121150748Y-101144000D02*
X121673252Y-101144000D01*
%TO.C,R12*%
X105714000Y-86998748D02*
X105714000Y-87521252D01*
X107134000Y-86998748D02*
X107134000Y-87521252D01*
%TO.C,Q7*%
X86810000Y-74054000D02*
X86810000Y-75514000D01*
X89970000Y-74054000D02*
X89970000Y-76214000D01*
X89970000Y-74054000D02*
X89040000Y-74054000D01*
X86810000Y-74054000D02*
X87740000Y-74054000D01*
%TO.C,R13*%
X105714000Y-92205748D02*
X105714000Y-92728252D01*
X107134000Y-92205748D02*
X107134000Y-92728252D01*
%TO.C,D2*%
X136330000Y-111231000D02*
X136330000Y-114321000D01*
X136270000Y-112776000D02*
G75*
G03X136270000Y-112776000I-2500000J0D01*
G01*
X130780000Y-112775538D02*
G75*
G03X136330000Y-114320830I2990000J-462D01*
G01*
X130780000Y-112776462D02*
G75*
G02X136330000Y-111231170I2990000J462D01*
G01*
D15*
%TO.C,G\002A\002A\002A*%
G36*
X136985908Y-62444049D02*
G01*
X136975094Y-62510189D01*
X136897638Y-62634993D01*
X136821736Y-62653963D01*
X136666821Y-62717911D01*
X136449837Y-62879922D01*
X136342491Y-62979849D01*
X136089220Y-63320781D01*
X136022776Y-63666470D01*
X136139877Y-64044591D01*
X136203000Y-64156595D01*
X136388680Y-64461114D01*
X135971624Y-64845543D01*
X135634464Y-65105167D01*
X135308868Y-65268230D01*
X135212610Y-65294124D01*
X134820528Y-65326670D01*
X134397115Y-65300395D01*
X134040556Y-65222856D01*
X133979811Y-65199220D01*
X133840693Y-65178374D01*
X133812076Y-65222256D01*
X133897199Y-65321759D01*
X134111769Y-65420186D01*
X134394586Y-65496409D01*
X134684450Y-65529300D01*
X134701862Y-65529434D01*
X135285044Y-65436620D01*
X135850540Y-65168333D01*
X136165567Y-64929747D01*
X136430645Y-64714357D01*
X136624186Y-64614625D01*
X136804083Y-64604806D01*
X136869441Y-64616715D01*
X137139740Y-64762850D01*
X137266529Y-64963726D01*
X137460026Y-65267106D01*
X137722345Y-65470819D01*
X137947558Y-65529434D01*
X138123319Y-65470733D01*
X138350621Y-65325668D01*
X138399078Y-65286675D01*
X138684813Y-64931878D01*
X138848905Y-64485386D01*
X138886849Y-64011854D01*
X138700377Y-64011854D01*
X138652088Y-64493714D01*
X138520715Y-64884592D01*
X138326506Y-65164777D01*
X138089703Y-65314561D01*
X137830553Y-65314235D01*
X137569301Y-65144089D01*
X137553923Y-65127965D01*
X137391117Y-64878878D01*
X137380358Y-64668301D01*
X137522169Y-64532763D01*
X137545286Y-64524575D01*
X137738921Y-64376423D01*
X137791689Y-64184799D01*
X137637108Y-64184799D01*
X137528975Y-64320911D01*
X137507917Y-64336928D01*
X137325353Y-64406670D01*
X137210537Y-64299968D01*
X137208884Y-64289053D01*
X137070943Y-64289053D01*
X137002997Y-64439269D01*
X136857837Y-64469906D01*
X136732877Y-64375047D01*
X136731497Y-64237416D01*
X136823345Y-64098941D01*
X136946825Y-64038618D01*
X136985955Y-64050486D01*
X137057194Y-64179414D01*
X137070943Y-64289053D01*
X137208884Y-64289053D01*
X137168340Y-64021471D01*
X137168260Y-64012784D01*
X137223955Y-63850350D01*
X137359401Y-63825558D01*
X137522556Y-63936837D01*
X137587840Y-64025426D01*
X137637108Y-64184799D01*
X137791689Y-64184799D01*
X137805316Y-64135317D01*
X137743824Y-63903621D01*
X137548288Y-63723289D01*
X137246780Y-63695712D01*
X137238679Y-63696952D01*
X137197756Y-63617600D01*
X137171719Y-63402200D01*
X137166839Y-63230687D01*
X136975094Y-63230687D01*
X136950803Y-63583760D01*
X136863277Y-63823601D01*
X136759434Y-63956602D01*
X136553147Y-64125833D01*
X136403299Y-64117451D01*
X136283655Y-63926795D01*
X136261686Y-63868206D01*
X136226632Y-63507599D01*
X136366872Y-63176254D01*
X136664112Y-62913789D01*
X136975094Y-62732166D01*
X136975094Y-63230687D01*
X137166839Y-63230687D01*
X137166792Y-63229057D01*
X137172950Y-62945380D01*
X137211537Y-62803924D01*
X137312721Y-62755225D01*
X137459100Y-62749812D01*
X137926155Y-62836447D01*
X138307464Y-63076518D01*
X138573764Y-63440275D01*
X138695793Y-63897965D01*
X138700377Y-64011854D01*
X138886849Y-64011854D01*
X138887609Y-64002373D01*
X138797184Y-63538013D01*
X138573885Y-63147481D01*
X138546281Y-63116922D01*
X138164248Y-62806092D01*
X137735169Y-62609784D01*
X137409494Y-62558114D01*
X137227896Y-62525683D01*
X137166792Y-62462265D01*
X137093854Y-62369201D01*
X137070943Y-62366416D01*
X136985908Y-62444049D01*
G37*
X136985908Y-62444049D02*
X136975094Y-62510189D01*
X136897638Y-62634993D01*
X136821736Y-62653963D01*
X136666821Y-62717911D01*
X136449837Y-62879922D01*
X136342491Y-62979849D01*
X136089220Y-63320781D01*
X136022776Y-63666470D01*
X136139877Y-64044591D01*
X136203000Y-64156595D01*
X136388680Y-64461114D01*
X135971624Y-64845543D01*
X135634464Y-65105167D01*
X135308868Y-65268230D01*
X135212610Y-65294124D01*
X134820528Y-65326670D01*
X134397115Y-65300395D01*
X134040556Y-65222856D01*
X133979811Y-65199220D01*
X133840693Y-65178374D01*
X133812076Y-65222256D01*
X133897199Y-65321759D01*
X134111769Y-65420186D01*
X134394586Y-65496409D01*
X134684450Y-65529300D01*
X134701862Y-65529434D01*
X135285044Y-65436620D01*
X135850540Y-65168333D01*
X136165567Y-64929747D01*
X136430645Y-64714357D01*
X136624186Y-64614625D01*
X136804083Y-64604806D01*
X136869441Y-64616715D01*
X137139740Y-64762850D01*
X137266529Y-64963726D01*
X137460026Y-65267106D01*
X137722345Y-65470819D01*
X137947558Y-65529434D01*
X138123319Y-65470733D01*
X138350621Y-65325668D01*
X138399078Y-65286675D01*
X138684813Y-64931878D01*
X138848905Y-64485386D01*
X138886849Y-64011854D01*
X138700377Y-64011854D01*
X138652088Y-64493714D01*
X138520715Y-64884592D01*
X138326506Y-65164777D01*
X138089703Y-65314561D01*
X137830553Y-65314235D01*
X137569301Y-65144089D01*
X137553923Y-65127965D01*
X137391117Y-64878878D01*
X137380358Y-64668301D01*
X137522169Y-64532763D01*
X137545286Y-64524575D01*
X137738921Y-64376423D01*
X137791689Y-64184799D01*
X137637108Y-64184799D01*
X137528975Y-64320911D01*
X137507917Y-64336928D01*
X137325353Y-64406670D01*
X137210537Y-64299968D01*
X137208884Y-64289053D01*
X137070943Y-64289053D01*
X137002997Y-64439269D01*
X136857837Y-64469906D01*
X136732877Y-64375047D01*
X136731497Y-64237416D01*
X136823345Y-64098941D01*
X136946825Y-64038618D01*
X136985955Y-64050486D01*
X137057194Y-64179414D01*
X137070943Y-64289053D01*
X137208884Y-64289053D01*
X137168340Y-64021471D01*
X137168260Y-64012784D01*
X137223955Y-63850350D01*
X137359401Y-63825558D01*
X137522556Y-63936837D01*
X137587840Y-64025426D01*
X137637108Y-64184799D01*
X137791689Y-64184799D01*
X137805316Y-64135317D01*
X137743824Y-63903621D01*
X137548288Y-63723289D01*
X137246780Y-63695712D01*
X137238679Y-63696952D01*
X137197756Y-63617600D01*
X137171719Y-63402200D01*
X137166839Y-63230687D01*
X136975094Y-63230687D01*
X136950803Y-63583760D01*
X136863277Y-63823601D01*
X136759434Y-63956602D01*
X136553147Y-64125833D01*
X136403299Y-64117451D01*
X136283655Y-63926795D01*
X136261686Y-63868206D01*
X136226632Y-63507599D01*
X136366872Y-63176254D01*
X136664112Y-62913789D01*
X136975094Y-62732166D01*
X136975094Y-63230687D01*
X137166839Y-63230687D01*
X137166792Y-63229057D01*
X137172950Y-62945380D01*
X137211537Y-62803924D01*
X137312721Y-62755225D01*
X137459100Y-62749812D01*
X137926155Y-62836447D01*
X138307464Y-63076518D01*
X138573764Y-63440275D01*
X138695793Y-63897965D01*
X138700377Y-64011854D01*
X138886849Y-64011854D01*
X138887609Y-64002373D01*
X138797184Y-63538013D01*
X138573885Y-63147481D01*
X138546281Y-63116922D01*
X138164248Y-62806092D01*
X137735169Y-62609784D01*
X137409494Y-62558114D01*
X137227896Y-62525683D01*
X137166792Y-62462265D01*
X137093854Y-62369201D01*
X137070943Y-62366416D01*
X136985908Y-62444049D01*
%TO.C,U2*%
D11*
X123551904Y-101624380D02*
X123551904Y-102433904D01*
X123504285Y-102529142D01*
X123456666Y-102576761D01*
X123361428Y-102624380D01*
X123170952Y-102624380D01*
X123075714Y-102576761D01*
X123028095Y-102529142D01*
X122980476Y-102433904D01*
X122980476Y-101624380D01*
X122551904Y-101719619D02*
X122504285Y-101672000D01*
X122409047Y-101624380D01*
X122170952Y-101624380D01*
X122075714Y-101672000D01*
X122028095Y-101719619D01*
X121980476Y-101814857D01*
X121980476Y-101910095D01*
X122028095Y-102052952D01*
X122599523Y-102624380D01*
X121980476Y-102624380D01*
X124397142Y-109124380D02*
X124397142Y-108124380D01*
X123349523Y-109124380D02*
X123682857Y-108648190D01*
X123920952Y-109124380D02*
X123920952Y-108124380D01*
X123540000Y-108124380D01*
X123444761Y-108172000D01*
X123397142Y-108219619D01*
X123349523Y-108314857D01*
X123349523Y-108457714D01*
X123397142Y-108552952D01*
X123444761Y-108600571D01*
X123540000Y-108648190D01*
X123920952Y-108648190D01*
X121587619Y-109124380D02*
X121920952Y-108648190D01*
X122159047Y-109124380D02*
X122159047Y-108124380D01*
X121778095Y-108124380D01*
X121682857Y-108172000D01*
X121635238Y-108219619D01*
X121587619Y-108314857D01*
X121587619Y-108457714D01*
X121635238Y-108552952D01*
X121682857Y-108600571D01*
X121778095Y-108648190D01*
X122159047Y-108648190D01*
X121254285Y-108124380D02*
X120587619Y-109124380D01*
X120587619Y-108124380D02*
X121254285Y-109124380D01*
%TO.C,RV1*%
X104695238Y-116702380D02*
X105028571Y-116226190D01*
X105266666Y-116702380D02*
X105266666Y-115702380D01*
X104885714Y-115702380D01*
X104790476Y-115750000D01*
X104742857Y-115797619D01*
X104695238Y-115892857D01*
X104695238Y-116035714D01*
X104742857Y-116130952D01*
X104790476Y-116178571D01*
X104885714Y-116226190D01*
X105266666Y-116226190D01*
X104409523Y-115702380D02*
X104076190Y-116702380D01*
X103742857Y-115702380D01*
X102885714Y-116702380D02*
X103457142Y-116702380D01*
X103171428Y-116702380D02*
X103171428Y-115702380D01*
X103266666Y-115845238D01*
X103361904Y-115940476D01*
X103457142Y-115988095D01*
%TO.C,F1*%
X97613333Y-106008571D02*
X97946666Y-106008571D01*
X97946666Y-106532380D02*
X97946666Y-105532380D01*
X97470476Y-105532380D01*
X96565714Y-106532380D02*
X97137142Y-106532380D01*
X96851428Y-106532380D02*
X96851428Y-105532380D01*
X96946666Y-105675238D01*
X97041904Y-105770476D01*
X97137142Y-105818095D01*
%TO.C,JP3*%
X79419047Y-91400000D02*
X79514285Y-91352380D01*
X79657142Y-91352380D01*
X79800000Y-91400000D01*
X79895238Y-91495238D01*
X79942857Y-91590476D01*
X79990476Y-91780952D01*
X79990476Y-91923809D01*
X79942857Y-92114285D01*
X79895238Y-92209523D01*
X79800000Y-92304761D01*
X79657142Y-92352380D01*
X79561904Y-92352380D01*
X79419047Y-92304761D01*
X79371428Y-92257142D01*
X79371428Y-91923809D01*
X79561904Y-91923809D01*
X78561904Y-92304761D02*
X78657142Y-92352380D01*
X78847619Y-92352380D01*
X78942857Y-92304761D01*
X78990476Y-92209523D01*
X78990476Y-91828571D01*
X78942857Y-91733333D01*
X78847619Y-91685714D01*
X78657142Y-91685714D01*
X78561904Y-91733333D01*
X78514285Y-91828571D01*
X78514285Y-91923809D01*
X78990476Y-92019047D01*
X78085714Y-91685714D02*
X78085714Y-92352380D01*
X78085714Y-91780952D02*
X78038095Y-91733333D01*
X77942857Y-91685714D01*
X77800000Y-91685714D01*
X77704761Y-91733333D01*
X77657142Y-91828571D01*
X77657142Y-92352380D01*
%TO.C,JP2*%
X75561904Y-91728571D02*
X75895238Y-91728571D01*
X75895238Y-92252380D02*
X75895238Y-91252380D01*
X75419047Y-91252380D01*
X74609523Y-92252380D02*
X74609523Y-91728571D01*
X74657142Y-91633333D01*
X74752380Y-91585714D01*
X74942857Y-91585714D01*
X75038095Y-91633333D01*
X74609523Y-92204761D02*
X74704761Y-92252380D01*
X74942857Y-92252380D01*
X75038095Y-92204761D01*
X75085714Y-92109523D01*
X75085714Y-92014285D01*
X75038095Y-91919047D01*
X74942857Y-91871428D01*
X74704761Y-91871428D01*
X74609523Y-91823809D01*
X74133333Y-91585714D02*
X74133333Y-92252380D01*
X74133333Y-91680952D02*
X74085714Y-91633333D01*
X73990476Y-91585714D01*
X73847619Y-91585714D01*
X73752380Y-91633333D01*
X73704761Y-91728571D01*
X73704761Y-92252380D01*
%TO.C,J5*%
D13*
X139189285Y-89350000D02*
X139725000Y-89350000D01*
X139832142Y-89314285D01*
X139903571Y-89242857D01*
X139939285Y-89135714D01*
X139939285Y-89064285D01*
X139189285Y-90064285D02*
X139189285Y-89707142D01*
X139546428Y-89671428D01*
X139510714Y-89707142D01*
X139475000Y-89778571D01*
X139475000Y-89957142D01*
X139510714Y-90028571D01*
X139546428Y-90064285D01*
X139617857Y-90100000D01*
X139796428Y-90100000D01*
X139867857Y-90064285D01*
X139903571Y-90028571D01*
X139939285Y-89957142D01*
X139939285Y-89778571D01*
X139903571Y-89707142D01*
X139867857Y-89671428D01*
X141239285Y-87978571D02*
X140489285Y-87978571D01*
X140489285Y-88478571D02*
X140489285Y-88621428D01*
X140525000Y-88692857D01*
X140596428Y-88764285D01*
X140739285Y-88800000D01*
X140989285Y-88800000D01*
X141132142Y-88764285D01*
X141203571Y-88692857D01*
X141239285Y-88621428D01*
X141239285Y-88478571D01*
X141203571Y-88407142D01*
X141132142Y-88335714D01*
X140989285Y-88300000D01*
X140739285Y-88300000D01*
X140596428Y-88335714D01*
X140525000Y-88407142D01*
X140489285Y-88478571D01*
X140525000Y-90085714D02*
X140489285Y-90014285D01*
X140489285Y-89907142D01*
X140525000Y-89800000D01*
X140596428Y-89728571D01*
X140667857Y-89692857D01*
X140810714Y-89657142D01*
X140917857Y-89657142D01*
X141060714Y-89692857D01*
X141132142Y-89728571D01*
X141203571Y-89800000D01*
X141239285Y-89907142D01*
X141239285Y-89978571D01*
X141203571Y-90085714D01*
X141167857Y-90121428D01*
X140917857Y-90121428D01*
X140917857Y-89978571D01*
X141239285Y-90442857D02*
X140489285Y-90442857D01*
X141239285Y-90871428D01*
X140489285Y-90871428D01*
X141239285Y-91228571D02*
X140489285Y-91228571D01*
X140489285Y-91407142D01*
X140525000Y-91514285D01*
X140596428Y-91585714D01*
X140667857Y-91621428D01*
X140810714Y-91657142D01*
X140917857Y-91657142D01*
X141060714Y-91621428D01*
X141132142Y-91585714D01*
X141203571Y-91514285D01*
X141239285Y-91407142D01*
X141239285Y-91228571D01*
%TO.C,J4*%
X145889285Y-116650000D02*
X146425000Y-116650000D01*
X146532142Y-116614285D01*
X146603571Y-116542857D01*
X146639285Y-116435714D01*
X146639285Y-116364285D01*
X146139285Y-117328571D02*
X146639285Y-117328571D01*
X145853571Y-117150000D02*
X146389285Y-116971428D01*
X146389285Y-117435714D01*
X148039285Y-115542857D02*
X147289285Y-115542857D01*
X147289285Y-116042857D02*
X147289285Y-116185714D01*
X147325000Y-116257142D01*
X147396428Y-116328571D01*
X147539285Y-116364285D01*
X147789285Y-116364285D01*
X147932142Y-116328571D01*
X148003571Y-116257142D01*
X148039285Y-116185714D01*
X148039285Y-116042857D01*
X148003571Y-115971428D01*
X147932142Y-115900000D01*
X147789285Y-115864285D01*
X147539285Y-115864285D01*
X147396428Y-115900000D01*
X147325000Y-115971428D01*
X147289285Y-116042857D01*
X147289285Y-117185714D02*
X147289285Y-117650000D01*
X147575000Y-117400000D01*
X147575000Y-117507142D01*
X147610714Y-117578571D01*
X147646428Y-117614285D01*
X147717857Y-117650000D01*
X147896428Y-117650000D01*
X147967857Y-117614285D01*
X148003571Y-117578571D01*
X148039285Y-117507142D01*
X148039285Y-117292857D01*
X148003571Y-117221428D01*
X147967857Y-117185714D01*
X147967857Y-117971428D02*
X148003571Y-118007142D01*
X148039285Y-117971428D01*
X148003571Y-117935714D01*
X147967857Y-117971428D01*
X148039285Y-117971428D01*
X147289285Y-118257142D02*
X147289285Y-118721428D01*
X147575000Y-118471428D01*
X147575000Y-118578571D01*
X147610714Y-118650000D01*
X147646428Y-118685714D01*
X147717857Y-118721428D01*
X147896428Y-118721428D01*
X147967857Y-118685714D01*
X148003571Y-118650000D01*
X148039285Y-118578571D01*
X148039285Y-118364285D01*
X148003571Y-118292857D01*
X147967857Y-118257142D01*
X147539285Y-118971428D02*
X148039285Y-119150000D01*
X147539285Y-119328571D01*
%TO.C,R6*%
D10*
X138039285Y-113775000D02*
X137682142Y-113525000D01*
X138039285Y-113346428D02*
X137289285Y-113346428D01*
X137289285Y-113632142D01*
X137325000Y-113703571D01*
X137360714Y-113739285D01*
X137432142Y-113775000D01*
X137539285Y-113775000D01*
X137610714Y-113739285D01*
X137646428Y-113703571D01*
X137682142Y-113632142D01*
X137682142Y-113346428D01*
X137289285Y-114417857D02*
X137289285Y-114275000D01*
X137325000Y-114203571D01*
X137360714Y-114167857D01*
X137467857Y-114096428D01*
X137610714Y-114060714D01*
X137896428Y-114060714D01*
X137967857Y-114096428D01*
X138003571Y-114132142D01*
X138039285Y-114203571D01*
X138039285Y-114346428D01*
X138003571Y-114417857D01*
X137967857Y-114453571D01*
X137896428Y-114489285D01*
X137717857Y-114489285D01*
X137646428Y-114453571D01*
X137610714Y-114417857D01*
X137575000Y-114346428D01*
X137575000Y-114203571D01*
X137610714Y-114132142D01*
X137646428Y-114096428D01*
X137717857Y-114060714D01*
X139214284Y-113757142D02*
X139214284Y-113328571D01*
X139214284Y-113542857D02*
X138464284Y-113542857D01*
X138571427Y-113471428D01*
X138642856Y-113400000D01*
X138678570Y-113328571D01*
X138464284Y-114221428D02*
X138464284Y-114292857D01*
X138499999Y-114364285D01*
X138535713Y-114400000D01*
X138607141Y-114435714D01*
X138749999Y-114471428D01*
X138928570Y-114471428D01*
X139071427Y-114435714D01*
X139142856Y-114400000D01*
X139178570Y-114364285D01*
X139214284Y-114292857D01*
X139214284Y-114221428D01*
X139178570Y-114150000D01*
X139142856Y-114114285D01*
X139071427Y-114078571D01*
X138928570Y-114042857D01*
X138749999Y-114042857D01*
X138607141Y-114078571D01*
X138535713Y-114114285D01*
X138499999Y-114150000D01*
X138464284Y-114221428D01*
%TO.C,R7*%
X128839285Y-114775000D02*
X128482142Y-114525000D01*
X128839285Y-114346428D02*
X128089285Y-114346428D01*
X128089285Y-114632142D01*
X128125000Y-114703571D01*
X128160714Y-114739285D01*
X128232142Y-114775000D01*
X128339285Y-114775000D01*
X128410714Y-114739285D01*
X128446428Y-114703571D01*
X128482142Y-114632142D01*
X128482142Y-114346428D01*
X128089285Y-115025000D02*
X128089285Y-115525000D01*
X128839285Y-115203571D01*
X130014284Y-114657142D02*
X130014284Y-114228571D01*
X130014284Y-114442857D02*
X129264284Y-114442857D01*
X129371427Y-114371428D01*
X129442856Y-114300000D01*
X129478570Y-114228571D01*
X129264284Y-115121428D02*
X129264284Y-115192857D01*
X129299999Y-115264285D01*
X129335713Y-115300000D01*
X129407141Y-115335714D01*
X129549999Y-115371428D01*
X129728570Y-115371428D01*
X129871427Y-115335714D01*
X129942856Y-115300000D01*
X129978570Y-115264285D01*
X130014284Y-115192857D01*
X130014284Y-115121428D01*
X129978570Y-115050000D01*
X129942856Y-115014285D01*
X129871427Y-114978571D01*
X129728570Y-114942857D01*
X129549999Y-114942857D01*
X129407141Y-114978571D01*
X129335713Y-115014285D01*
X129299999Y-115050000D01*
X129264284Y-115121428D01*
%TO.C,R1*%
D11*
X113390476Y-109252380D02*
X113866666Y-109252380D01*
X113866666Y-108252380D01*
X113057142Y-109252380D02*
X113057142Y-108252380D01*
X112819047Y-108252380D01*
X112676190Y-108300000D01*
X112580952Y-108395238D01*
X112533333Y-108490476D01*
X112485714Y-108680952D01*
X112485714Y-108823809D01*
X112533333Y-109014285D01*
X112580952Y-109109523D01*
X112676190Y-109204761D01*
X112819047Y-109252380D01*
X113057142Y-109252380D01*
X111485714Y-109252380D02*
X111819047Y-108776190D01*
X112057142Y-109252380D02*
X112057142Y-108252380D01*
X111676190Y-108252380D01*
X111580952Y-108300000D01*
X111533333Y-108347619D01*
X111485714Y-108442857D01*
X111485714Y-108585714D01*
X111533333Y-108680952D01*
X111580952Y-108728571D01*
X111676190Y-108776190D01*
X112057142Y-108776190D01*
%TO.C,Q11*%
D13*
X85571428Y-97775714D02*
X85642857Y-97740000D01*
X85714285Y-97668571D01*
X85821428Y-97561428D01*
X85892857Y-97525714D01*
X85964285Y-97525714D01*
X85928571Y-97704285D02*
X85999999Y-97668571D01*
X86071428Y-97597142D01*
X86107142Y-97454285D01*
X86107142Y-97204285D01*
X86071428Y-97061428D01*
X85999999Y-96990000D01*
X85928571Y-96954285D01*
X85785714Y-96954285D01*
X85714285Y-96990000D01*
X85642857Y-97061428D01*
X85607142Y-97204285D01*
X85607142Y-97454285D01*
X85642857Y-97597142D01*
X85714285Y-97668571D01*
X85785714Y-97704285D01*
X85928571Y-97704285D01*
X84892857Y-97704285D02*
X85321428Y-97704285D01*
X85107142Y-97704285D02*
X85107142Y-96954285D01*
X85178571Y-97061428D01*
X85249999Y-97132857D01*
X85321428Y-97168571D01*
X84178571Y-97704285D02*
X84607142Y-97704285D01*
X84392857Y-97704285D02*
X84392857Y-96954285D01*
X84464285Y-97061428D01*
X84535714Y-97132857D01*
X84607142Y-97168571D01*
%TO.C,Q4*%
X99129428Y-89385214D02*
X99200857Y-89349500D01*
X99272285Y-89278071D01*
X99379428Y-89170928D01*
X99450857Y-89135214D01*
X99522285Y-89135214D01*
X99486571Y-89313785D02*
X99558000Y-89278071D01*
X99629428Y-89206642D01*
X99665142Y-89063785D01*
X99665142Y-88813785D01*
X99629428Y-88670928D01*
X99558000Y-88599500D01*
X99486571Y-88563785D01*
X99343714Y-88563785D01*
X99272285Y-88599500D01*
X99200857Y-88670928D01*
X99165142Y-88813785D01*
X99165142Y-89063785D01*
X99200857Y-89206642D01*
X99272285Y-89278071D01*
X99343714Y-89313785D01*
X99486571Y-89313785D01*
X98522285Y-88813785D02*
X98522285Y-89313785D01*
X98700857Y-88528071D02*
X98879428Y-89063785D01*
X98415142Y-89063785D01*
%TO.C,Q9*%
X85571428Y-86472714D02*
X85642857Y-86437000D01*
X85714285Y-86365571D01*
X85821428Y-86258428D01*
X85892857Y-86222714D01*
X85964285Y-86222714D01*
X85928571Y-86401285D02*
X86000000Y-86365571D01*
X86071428Y-86294142D01*
X86107142Y-86151285D01*
X86107142Y-85901285D01*
X86071428Y-85758428D01*
X86000000Y-85687000D01*
X85928571Y-85651285D01*
X85785714Y-85651285D01*
X85714285Y-85687000D01*
X85642857Y-85758428D01*
X85607142Y-85901285D01*
X85607142Y-86151285D01*
X85642857Y-86294142D01*
X85714285Y-86365571D01*
X85785714Y-86401285D01*
X85928571Y-86401285D01*
X85250000Y-86401285D02*
X85107142Y-86401285D01*
X85035714Y-86365571D01*
X85000000Y-86329857D01*
X84928571Y-86222714D01*
X84892857Y-86079857D01*
X84892857Y-85794142D01*
X84928571Y-85722714D01*
X84964285Y-85687000D01*
X85035714Y-85651285D01*
X85178571Y-85651285D01*
X85250000Y-85687000D01*
X85285714Y-85722714D01*
X85321428Y-85794142D01*
X85321428Y-85972714D01*
X85285714Y-86044142D01*
X85250000Y-86079857D01*
X85178571Y-86115571D01*
X85035714Y-86115571D01*
X84964285Y-86079857D01*
X84928571Y-86044142D01*
X84892857Y-85972714D01*
%TO.C,Q6*%
X99129428Y-99354714D02*
X99200857Y-99319000D01*
X99272285Y-99247571D01*
X99379428Y-99140428D01*
X99450857Y-99104714D01*
X99522285Y-99104714D01*
X99486571Y-99283285D02*
X99558000Y-99247571D01*
X99629428Y-99176142D01*
X99665142Y-99033285D01*
X99665142Y-98783285D01*
X99629428Y-98640428D01*
X99558000Y-98569000D01*
X99486571Y-98533285D01*
X99343714Y-98533285D01*
X99272285Y-98569000D01*
X99200857Y-98640428D01*
X99165142Y-98783285D01*
X99165142Y-99033285D01*
X99200857Y-99176142D01*
X99272285Y-99247571D01*
X99343714Y-99283285D01*
X99486571Y-99283285D01*
X98522285Y-98533285D02*
X98665142Y-98533285D01*
X98736571Y-98569000D01*
X98772285Y-98604714D01*
X98843714Y-98711857D01*
X98879428Y-98854714D01*
X98879428Y-99140428D01*
X98843714Y-99211857D01*
X98808000Y-99247571D01*
X98736571Y-99283285D01*
X98593714Y-99283285D01*
X98522285Y-99247571D01*
X98486571Y-99211857D01*
X98450857Y-99140428D01*
X98450857Y-98961857D01*
X98486571Y-98890428D01*
X98522285Y-98854714D01*
X98593714Y-98819000D01*
X98736571Y-98819000D01*
X98808000Y-98854714D01*
X98843714Y-98890428D01*
X98879428Y-98961857D01*
%TO.C,Q2*%
X99129428Y-78971214D02*
X99200857Y-78935500D01*
X99272285Y-78864071D01*
X99379428Y-78756928D01*
X99450857Y-78721214D01*
X99522285Y-78721214D01*
X99486571Y-78899785D02*
X99558000Y-78864071D01*
X99629428Y-78792642D01*
X99665142Y-78649785D01*
X99665142Y-78399785D01*
X99629428Y-78256928D01*
X99558000Y-78185500D01*
X99486571Y-78149785D01*
X99343714Y-78149785D01*
X99272285Y-78185500D01*
X99200857Y-78256928D01*
X99165142Y-78399785D01*
X99165142Y-78649785D01*
X99200857Y-78792642D01*
X99272285Y-78864071D01*
X99343714Y-78899785D01*
X99486571Y-78899785D01*
X98879428Y-78221214D02*
X98843714Y-78185500D01*
X98772285Y-78149785D01*
X98593714Y-78149785D01*
X98522285Y-78185500D01*
X98486571Y-78221214D01*
X98450857Y-78292642D01*
X98450857Y-78364071D01*
X98486571Y-78471214D01*
X98915142Y-78899785D01*
X98450857Y-78899785D01*
%TO.C,R9*%
D10*
X125025000Y-98539285D02*
X125275000Y-98182142D01*
X125453571Y-98539285D02*
X125453571Y-97789285D01*
X125167857Y-97789285D01*
X125096428Y-97825000D01*
X125060714Y-97860714D01*
X125025000Y-97932142D01*
X125025000Y-98039285D01*
X125060714Y-98110714D01*
X125096428Y-98146428D01*
X125167857Y-98182142D01*
X125453571Y-98182142D01*
X124667857Y-98539285D02*
X124525000Y-98539285D01*
X124453571Y-98503571D01*
X124417857Y-98467857D01*
X124346428Y-98360714D01*
X124310714Y-98217857D01*
X124310714Y-97932142D01*
X124346428Y-97860714D01*
X124382142Y-97825000D01*
X124453571Y-97789285D01*
X124596428Y-97789285D01*
X124667857Y-97825000D01*
X124703571Y-97860714D01*
X124739285Y-97932142D01*
X124739285Y-98110714D01*
X124703571Y-98182142D01*
X124667857Y-98217857D01*
X124596428Y-98253571D01*
X124453571Y-98253571D01*
X124382142Y-98217857D01*
X124346428Y-98182142D01*
X124310714Y-98110714D01*
X125400000Y-99739285D02*
X125828571Y-99739285D01*
X125614285Y-99739285D02*
X125614285Y-98989285D01*
X125685714Y-99096428D01*
X125757142Y-99167857D01*
X125828571Y-99203571D01*
X124935714Y-98989285D02*
X124864285Y-98989285D01*
X124792857Y-99025000D01*
X124757142Y-99060714D01*
X124721428Y-99132142D01*
X124685714Y-99275000D01*
X124685714Y-99453571D01*
X124721428Y-99596428D01*
X124757142Y-99667857D01*
X124792857Y-99703571D01*
X124864285Y-99739285D01*
X124935714Y-99739285D01*
X125007142Y-99703571D01*
X125042857Y-99667857D01*
X125078571Y-99596428D01*
X125114285Y-99453571D01*
X125114285Y-99275000D01*
X125078571Y-99132142D01*
X125042857Y-99060714D01*
X125007142Y-99025000D01*
X124935714Y-98989285D01*
X124221428Y-98989285D02*
X124150000Y-98989285D01*
X124078571Y-99025000D01*
X124042857Y-99060714D01*
X124007142Y-99132142D01*
X123971428Y-99275000D01*
X123971428Y-99453571D01*
X124007142Y-99596428D01*
X124042857Y-99667857D01*
X124078571Y-99703571D01*
X124150000Y-99739285D01*
X124221428Y-99739285D01*
X124292857Y-99703571D01*
X124328571Y-99667857D01*
X124364285Y-99596428D01*
X124400000Y-99453571D01*
X124400000Y-99275000D01*
X124364285Y-99132142D01*
X124328571Y-99060714D01*
X124292857Y-99025000D01*
X124221428Y-98989285D01*
%TO.C,Q3*%
D13*
X99129428Y-84051214D02*
X99200857Y-84015500D01*
X99272285Y-83944071D01*
X99379428Y-83836928D01*
X99450857Y-83801214D01*
X99522285Y-83801214D01*
X99486571Y-83979785D02*
X99558000Y-83944071D01*
X99629428Y-83872642D01*
X99665142Y-83729785D01*
X99665142Y-83479785D01*
X99629428Y-83336928D01*
X99558000Y-83265500D01*
X99486571Y-83229785D01*
X99343714Y-83229785D01*
X99272285Y-83265500D01*
X99200857Y-83336928D01*
X99165142Y-83479785D01*
X99165142Y-83729785D01*
X99200857Y-83872642D01*
X99272285Y-83944071D01*
X99343714Y-83979785D01*
X99486571Y-83979785D01*
X98915142Y-83229785D02*
X98450857Y-83229785D01*
X98700857Y-83515500D01*
X98593714Y-83515500D01*
X98522285Y-83551214D01*
X98486571Y-83586928D01*
X98450857Y-83658357D01*
X98450857Y-83836928D01*
X98486571Y-83908357D01*
X98522285Y-83944071D01*
X98593714Y-83979785D01*
X98808000Y-83979785D01*
X98879428Y-83944071D01*
X98915142Y-83908357D01*
%TO.C,R11*%
X108541285Y-81824857D02*
X108184142Y-81574857D01*
X108541285Y-81396285D02*
X107791285Y-81396285D01*
X107791285Y-81682000D01*
X107827000Y-81753428D01*
X107862714Y-81789142D01*
X107934142Y-81824857D01*
X108041285Y-81824857D01*
X108112714Y-81789142D01*
X108148428Y-81753428D01*
X108184142Y-81682000D01*
X108184142Y-81396285D01*
X108541285Y-82539142D02*
X108541285Y-82110571D01*
X108541285Y-82324857D02*
X107791285Y-82324857D01*
X107898428Y-82253428D01*
X107969857Y-82182000D01*
X108005571Y-82110571D01*
X108541285Y-83253428D02*
X108541285Y-82824857D01*
X108541285Y-83039142D02*
X107791285Y-83039142D01*
X107898428Y-82967714D01*
X107969857Y-82896285D01*
X108005571Y-82824857D01*
%TO.C,R10*%
X108541285Y-76490857D02*
X108184142Y-76240857D01*
X108541285Y-76062285D02*
X107791285Y-76062285D01*
X107791285Y-76348000D01*
X107827000Y-76419428D01*
X107862714Y-76455142D01*
X107934142Y-76490857D01*
X108041285Y-76490857D01*
X108112714Y-76455142D01*
X108148428Y-76419428D01*
X108184142Y-76348000D01*
X108184142Y-76062285D01*
X108541285Y-77205142D02*
X108541285Y-76776571D01*
X108541285Y-76990857D02*
X107791285Y-76990857D01*
X107898428Y-76919428D01*
X107969857Y-76848000D01*
X108005571Y-76776571D01*
X107791285Y-77669428D02*
X107791285Y-77740857D01*
X107827000Y-77812285D01*
X107862714Y-77848000D01*
X107934142Y-77883714D01*
X108077000Y-77919428D01*
X108255571Y-77919428D01*
X108398428Y-77883714D01*
X108469857Y-77848000D01*
X108505571Y-77812285D01*
X108541285Y-77740857D01*
X108541285Y-77669428D01*
X108505571Y-77598000D01*
X108469857Y-77562285D01*
X108398428Y-77526571D01*
X108255571Y-77490857D01*
X108077000Y-77490857D01*
X107934142Y-77526571D01*
X107862714Y-77562285D01*
X107827000Y-77598000D01*
X107791285Y-77669428D01*
%TO.C,U3*%
X116989285Y-82628571D02*
X117596428Y-82628571D01*
X117667857Y-82664285D01*
X117703571Y-82700000D01*
X117739285Y-82771428D01*
X117739285Y-82914285D01*
X117703571Y-82985714D01*
X117667857Y-83021428D01*
X117596428Y-83057142D01*
X116989285Y-83057142D01*
X116989285Y-83342857D02*
X116989285Y-83807142D01*
X117275000Y-83557142D01*
X117275000Y-83664285D01*
X117310714Y-83735714D01*
X117346428Y-83771428D01*
X117417857Y-83807142D01*
X117596428Y-83807142D01*
X117667857Y-83771428D01*
X117703571Y-83735714D01*
X117739285Y-83664285D01*
X117739285Y-83450000D01*
X117703571Y-83378571D01*
X117667857Y-83342857D01*
X118825000Y-80850000D02*
X118825000Y-81207142D01*
X119039285Y-80778571D02*
X118289285Y-81028571D01*
X119039285Y-81278571D01*
X119039285Y-81528571D02*
X118289285Y-81528571D01*
X118825000Y-81778571D01*
X118289285Y-82028571D01*
X119039285Y-82028571D01*
X119003571Y-82350000D02*
X119039285Y-82457142D01*
X119039285Y-82635714D01*
X119003571Y-82707142D01*
X118967857Y-82742857D01*
X118896428Y-82778571D01*
X118825000Y-82778571D01*
X118753571Y-82742857D01*
X118717857Y-82707142D01*
X118682142Y-82635714D01*
X118646428Y-82492857D01*
X118610714Y-82421428D01*
X118575000Y-82385714D01*
X118503571Y-82350000D01*
X118432142Y-82350000D01*
X118360714Y-82385714D01*
X118325000Y-82421428D01*
X118289285Y-82492857D01*
X118289285Y-82671428D01*
X118325000Y-82778571D01*
X119039285Y-83492857D02*
X119039285Y-83064285D01*
X119039285Y-83278571D02*
X118289285Y-83278571D01*
X118396428Y-83207142D01*
X118467857Y-83135714D01*
X118503571Y-83064285D01*
X119039285Y-84207142D02*
X119039285Y-83778571D01*
X119039285Y-83992857D02*
X118289285Y-83992857D01*
X118396428Y-83921428D01*
X118467857Y-83850000D01*
X118503571Y-83778571D01*
X119039285Y-84921428D02*
X119039285Y-84492857D01*
X119039285Y-84707142D02*
X118289285Y-84707142D01*
X118396428Y-84635714D01*
X118467857Y-84564285D01*
X118503571Y-84492857D01*
X118289285Y-85171428D02*
X118289285Y-85671428D01*
X119039285Y-85350000D01*
X118753571Y-85957142D02*
X118753571Y-86528571D01*
X118289285Y-86814285D02*
X118289285Y-87278571D01*
X118575000Y-87028571D01*
X118575000Y-87135714D01*
X118610714Y-87207142D01*
X118646428Y-87242857D01*
X118717857Y-87278571D01*
X118896428Y-87278571D01*
X118967857Y-87242857D01*
X119003571Y-87207142D01*
X119039285Y-87135714D01*
X119039285Y-86921428D01*
X119003571Y-86850000D01*
X118967857Y-86814285D01*
X118967857Y-87600000D02*
X119003571Y-87635714D01*
X119039285Y-87600000D01*
X119003571Y-87564285D01*
X118967857Y-87600000D01*
X119039285Y-87600000D01*
X118289285Y-87885714D02*
X118289285Y-88350000D01*
X118575000Y-88100000D01*
X118575000Y-88207142D01*
X118610714Y-88278571D01*
X118646428Y-88314285D01*
X118717857Y-88350000D01*
X118896428Y-88350000D01*
X118967857Y-88314285D01*
X119003571Y-88278571D01*
X119039285Y-88207142D01*
X119039285Y-87992857D01*
X119003571Y-87921428D01*
X118967857Y-87885714D01*
%TO.C,Q8*%
X85571428Y-80821214D02*
X85642857Y-80785500D01*
X85714285Y-80714071D01*
X85821428Y-80606928D01*
X85892857Y-80571214D01*
X85964285Y-80571214D01*
X85928571Y-80749785D02*
X86000000Y-80714071D01*
X86071428Y-80642642D01*
X86107142Y-80499785D01*
X86107142Y-80249785D01*
X86071428Y-80106928D01*
X86000000Y-80035500D01*
X85928571Y-79999785D01*
X85785714Y-79999785D01*
X85714285Y-80035500D01*
X85642857Y-80106928D01*
X85607142Y-80249785D01*
X85607142Y-80499785D01*
X85642857Y-80642642D01*
X85714285Y-80714071D01*
X85785714Y-80749785D01*
X85928571Y-80749785D01*
X85178571Y-80321214D02*
X85250000Y-80285500D01*
X85285714Y-80249785D01*
X85321428Y-80178357D01*
X85321428Y-80142642D01*
X85285714Y-80071214D01*
X85250000Y-80035500D01*
X85178571Y-79999785D01*
X85035714Y-79999785D01*
X84964285Y-80035500D01*
X84928571Y-80071214D01*
X84892857Y-80142642D01*
X84892857Y-80178357D01*
X84928571Y-80249785D01*
X84964285Y-80285500D01*
X85035714Y-80321214D01*
X85178571Y-80321214D01*
X85250000Y-80356928D01*
X85285714Y-80392642D01*
X85321428Y-80464071D01*
X85321428Y-80606928D01*
X85285714Y-80678357D01*
X85250000Y-80714071D01*
X85178571Y-80749785D01*
X85035714Y-80749785D01*
X84964285Y-80714071D01*
X84928571Y-80678357D01*
X84892857Y-80606928D01*
X84892857Y-80464071D01*
X84928571Y-80392642D01*
X84964285Y-80356928D01*
X85035714Y-80321214D01*
%TO.C,Q5*%
X99129428Y-94465214D02*
X99200857Y-94429500D01*
X99272285Y-94358071D01*
X99379428Y-94250928D01*
X99450857Y-94215214D01*
X99522285Y-94215214D01*
X99486571Y-94393785D02*
X99558000Y-94358071D01*
X99629428Y-94286642D01*
X99665142Y-94143785D01*
X99665142Y-93893785D01*
X99629428Y-93750928D01*
X99558000Y-93679500D01*
X99486571Y-93643785D01*
X99343714Y-93643785D01*
X99272285Y-93679500D01*
X99200857Y-93750928D01*
X99165142Y-93893785D01*
X99165142Y-94143785D01*
X99200857Y-94286642D01*
X99272285Y-94358071D01*
X99343714Y-94393785D01*
X99486571Y-94393785D01*
X98486571Y-93643785D02*
X98843714Y-93643785D01*
X98879428Y-94000928D01*
X98843714Y-93965214D01*
X98772285Y-93929500D01*
X98593714Y-93929500D01*
X98522285Y-93965214D01*
X98486571Y-94000928D01*
X98450857Y-94072357D01*
X98450857Y-94250928D01*
X98486571Y-94322357D01*
X98522285Y-94358071D01*
X98593714Y-94393785D01*
X98772285Y-94393785D01*
X98843714Y-94358071D01*
X98879428Y-94322357D01*
%TO.C,R14*%
X108541285Y-97445857D02*
X108184142Y-97195857D01*
X108541285Y-97017285D02*
X107791285Y-97017285D01*
X107791285Y-97303000D01*
X107827000Y-97374428D01*
X107862714Y-97410142D01*
X107934142Y-97445857D01*
X108041285Y-97445857D01*
X108112714Y-97410142D01*
X108148428Y-97374428D01*
X108184142Y-97303000D01*
X108184142Y-97017285D01*
X108541285Y-98160142D02*
X108541285Y-97731571D01*
X108541285Y-97945857D02*
X107791285Y-97945857D01*
X107898428Y-97874428D01*
X107969857Y-97803000D01*
X108005571Y-97731571D01*
X108041285Y-98803000D02*
X108541285Y-98803000D01*
X107755571Y-98624428D02*
X108291285Y-98445857D01*
X108291285Y-98910142D01*
%TO.C,Q10*%
X85571428Y-92124214D02*
X85642857Y-92088500D01*
X85714285Y-92017071D01*
X85821428Y-91909928D01*
X85892857Y-91874214D01*
X85964285Y-91874214D01*
X85928571Y-92052785D02*
X85999999Y-92017071D01*
X86071428Y-91945642D01*
X86107142Y-91802785D01*
X86107142Y-91552785D01*
X86071428Y-91409928D01*
X85999999Y-91338500D01*
X85928571Y-91302785D01*
X85785714Y-91302785D01*
X85714285Y-91338500D01*
X85642857Y-91409928D01*
X85607142Y-91552785D01*
X85607142Y-91802785D01*
X85642857Y-91945642D01*
X85714285Y-92017071D01*
X85785714Y-92052785D01*
X85928571Y-92052785D01*
X84892857Y-92052785D02*
X85321428Y-92052785D01*
X85107142Y-92052785D02*
X85107142Y-91302785D01*
X85178571Y-91409928D01*
X85249999Y-91481357D01*
X85321428Y-91517071D01*
X84428571Y-91302785D02*
X84357142Y-91302785D01*
X84285714Y-91338500D01*
X84249999Y-91374214D01*
X84214285Y-91445642D01*
X84178571Y-91588500D01*
X84178571Y-91767071D01*
X84214285Y-91909928D01*
X84249999Y-91981357D01*
X84285714Y-92017071D01*
X84357142Y-92052785D01*
X84428571Y-92052785D01*
X84499999Y-92017071D01*
X84535714Y-91981357D01*
X84571428Y-91909928D01*
X84607142Y-91767071D01*
X84607142Y-91588500D01*
X84571428Y-91445642D01*
X84535714Y-91374214D01*
X84499999Y-91338500D01*
X84428571Y-91302785D01*
%TO.C,C1*%
D10*
X125025000Y-101567857D02*
X125060714Y-101603571D01*
X125167857Y-101639285D01*
X125239285Y-101639285D01*
X125346428Y-101603571D01*
X125417857Y-101532142D01*
X125453571Y-101460714D01*
X125489285Y-101317857D01*
X125489285Y-101210714D01*
X125453571Y-101067857D01*
X125417857Y-100996428D01*
X125346428Y-100925000D01*
X125239285Y-100889285D01*
X125167857Y-100889285D01*
X125060714Y-100925000D01*
X125025000Y-100960714D01*
X124310714Y-101639285D02*
X124739285Y-101639285D01*
X124525000Y-101639285D02*
X124525000Y-100889285D01*
X124596428Y-100996428D01*
X124667857Y-101067857D01*
X124739285Y-101103571D01*
X125739285Y-102839285D02*
X126167857Y-102839285D01*
X125953571Y-102839285D02*
X125953571Y-102089285D01*
X126025000Y-102196428D01*
X126096428Y-102267857D01*
X126167857Y-102303571D01*
X125275000Y-102089285D02*
X125203571Y-102089285D01*
X125132142Y-102125000D01*
X125096428Y-102160714D01*
X125060714Y-102232142D01*
X125025000Y-102375000D01*
X125025000Y-102553571D01*
X125060714Y-102696428D01*
X125096428Y-102767857D01*
X125132142Y-102803571D01*
X125203571Y-102839285D01*
X125275000Y-102839285D01*
X125346428Y-102803571D01*
X125382142Y-102767857D01*
X125417857Y-102696428D01*
X125453571Y-102553571D01*
X125453571Y-102375000D01*
X125417857Y-102232142D01*
X125382142Y-102160714D01*
X125346428Y-102125000D01*
X125275000Y-102089285D01*
X124560714Y-102089285D02*
X124489285Y-102089285D01*
X124417857Y-102125000D01*
X124382142Y-102160714D01*
X124346428Y-102232142D01*
X124310714Y-102375000D01*
X124310714Y-102553571D01*
X124346428Y-102696428D01*
X124382142Y-102767857D01*
X124417857Y-102803571D01*
X124489285Y-102839285D01*
X124560714Y-102839285D01*
X124632142Y-102803571D01*
X124667857Y-102767857D01*
X124703571Y-102696428D01*
X124739285Y-102553571D01*
X124739285Y-102375000D01*
X124703571Y-102232142D01*
X124667857Y-102160714D01*
X124632142Y-102125000D01*
X124560714Y-102089285D01*
X123989285Y-102339285D02*
X123989285Y-102839285D01*
X123989285Y-102410714D02*
X123953571Y-102375000D01*
X123882142Y-102339285D01*
X123775000Y-102339285D01*
X123703571Y-102375000D01*
X123667857Y-102446428D01*
X123667857Y-102839285D01*
%TO.C,R12*%
D13*
X108541285Y-86904857D02*
X108184142Y-86654857D01*
X108541285Y-86476285D02*
X107791285Y-86476285D01*
X107791285Y-86762000D01*
X107827000Y-86833428D01*
X107862714Y-86869142D01*
X107934142Y-86904857D01*
X108041285Y-86904857D01*
X108112714Y-86869142D01*
X108148428Y-86833428D01*
X108184142Y-86762000D01*
X108184142Y-86476285D01*
X108541285Y-87619142D02*
X108541285Y-87190571D01*
X108541285Y-87404857D02*
X107791285Y-87404857D01*
X107898428Y-87333428D01*
X107969857Y-87262000D01*
X108005571Y-87190571D01*
X107862714Y-87904857D02*
X107827000Y-87940571D01*
X107791285Y-88012000D01*
X107791285Y-88190571D01*
X107827000Y-88262000D01*
X107862714Y-88297714D01*
X107934142Y-88333428D01*
X108005571Y-88333428D01*
X108112714Y-88297714D01*
X108541285Y-87869142D01*
X108541285Y-88333428D01*
%TO.C,Q7*%
X85571428Y-75169714D02*
X85642857Y-75134000D01*
X85714285Y-75062571D01*
X85821428Y-74955428D01*
X85892857Y-74919714D01*
X85964285Y-74919714D01*
X85928571Y-75098285D02*
X86000000Y-75062571D01*
X86071428Y-74991142D01*
X86107142Y-74848285D01*
X86107142Y-74598285D01*
X86071428Y-74455428D01*
X86000000Y-74384000D01*
X85928571Y-74348285D01*
X85785714Y-74348285D01*
X85714285Y-74384000D01*
X85642857Y-74455428D01*
X85607142Y-74598285D01*
X85607142Y-74848285D01*
X85642857Y-74991142D01*
X85714285Y-75062571D01*
X85785714Y-75098285D01*
X85928571Y-75098285D01*
X85357142Y-74348285D02*
X84857142Y-74348285D01*
X85178571Y-75098285D01*
%TO.C,R13*%
X108541285Y-91984857D02*
X108184142Y-91734857D01*
X108541285Y-91556285D02*
X107791285Y-91556285D01*
X107791285Y-91842000D01*
X107827000Y-91913428D01*
X107862714Y-91949142D01*
X107934142Y-91984857D01*
X108041285Y-91984857D01*
X108112714Y-91949142D01*
X108148428Y-91913428D01*
X108184142Y-91842000D01*
X108184142Y-91556285D01*
X108541285Y-92699142D02*
X108541285Y-92270571D01*
X108541285Y-92484857D02*
X107791285Y-92484857D01*
X107898428Y-92413428D01*
X107969857Y-92342000D01*
X108005571Y-92270571D01*
X107791285Y-92949142D02*
X107791285Y-93413428D01*
X108077000Y-93163428D01*
X108077000Y-93270571D01*
X108112714Y-93342000D01*
X108148428Y-93377714D01*
X108219857Y-93413428D01*
X108398428Y-93413428D01*
X108469857Y-93377714D01*
X108505571Y-93342000D01*
X108541285Y-93270571D01*
X108541285Y-93056285D01*
X108505571Y-92984857D01*
X108469857Y-92949142D01*
%TO.C,D2*%
D11*
X135378095Y-108728380D02*
X135378095Y-107728380D01*
X134330476Y-108728380D02*
X134663809Y-108252190D01*
X134901904Y-108728380D02*
X134901904Y-107728380D01*
X134520952Y-107728380D01*
X134425714Y-107776000D01*
X134378095Y-107823619D01*
X134330476Y-107918857D01*
X134330476Y-108061714D01*
X134378095Y-108156952D01*
X134425714Y-108204571D01*
X134520952Y-108252190D01*
X134901904Y-108252190D01*
X133282857Y-107728380D02*
X132711428Y-107728380D01*
X132997142Y-108728380D02*
X132997142Y-107728380D01*
X132473333Y-107728380D02*
X131806666Y-108728380D01*
X131806666Y-107728380D02*
X132473333Y-108728380D01*
%TD*%
M02*
