%TF.GenerationSoftware,KiCad,Pcbnew,5.1.5+dfsg1-2build2*%
%TF.CreationDate,2021-01-07T21:04:46-03:00*%
%TF.ProjectId,Punkatoo,50756e6b-6174-46f6-9f2e-6b696361645f,rev?*%
%TF.SameCoordinates,Original*%
%TF.FileFunction,Profile,NP*%
%FSLAX46Y46*%
G04 Gerber Fmt 4.6, Leading zero omitted, Abs format (unit mm)*
G04 Created by KiCad (PCBNEW 5.1.5+dfsg1-2build2) date 2021-01-07 21:04:46*
%MOMM*%
%LPD*%
G04 APERTURE LIST*
%TA.AperFunction,Profile*%
%ADD10C,0.050000*%
%TD*%
G04 APERTURE END LIST*
D10*
X114600000Y-122000000D02*
X73000000Y-122000000D01*
X120100000Y-120900000D02*
X120100000Y-122000000D01*
X114600000Y-120900000D02*
X114600000Y-122000000D01*
X120100000Y-120900000D02*
X114600000Y-120900000D01*
X120100000Y-109100000D02*
X120100000Y-107100000D01*
X114600000Y-109100000D02*
X120100000Y-109100000D01*
X114600000Y-107100000D02*
X114600000Y-109100000D01*
X120100000Y-107100000D02*
X114600000Y-107100000D01*
X142700000Y-89900000D02*
X142700000Y-88400000D01*
X142700000Y-88400000D02*
G75*
G02X148500000Y-82600000I5800000J0D01*
G01*
X148500000Y-95700000D02*
G75*
G02X142700000Y-89900000I0J5800000D01*
G01*
X120100000Y-122000000D02*
X148000000Y-122000000D01*
X73000000Y-122000000D02*
G75*
G02X71000000Y-120000000I0J2000000D01*
G01*
X150000000Y-97200000D02*
X150000000Y-120000000D01*
X150000000Y-63500000D02*
X150000000Y-81100000D01*
X150000000Y-81100000D02*
G75*
G02X148500000Y-82600000I-1500000J0D01*
G01*
X148500000Y-95700000D02*
G75*
G02X150000000Y-97200000I0J-1500000D01*
G01*
X150000000Y-120000000D02*
G75*
G02X148000000Y-122000000I-2000000J0D01*
G01*
X85600000Y-63500000D02*
G75*
G02X90600000Y-58500000I5000000J0D01*
G01*
X145000000Y-58500000D02*
X90600000Y-58500000D01*
X145000000Y-58500000D02*
G75*
G02X150000000Y-63500000I0J-5000000D01*
G01*
X71000000Y-71900000D02*
X71000000Y-120000000D01*
X73000000Y-69900000D02*
X80600000Y-69900000D01*
X85600000Y-63500000D02*
X85600000Y-64900000D01*
X71000000Y-71900000D02*
G75*
G02X73000000Y-69900000I2000000J0D01*
G01*
X85600000Y-64900000D02*
G75*
G02X80600000Y-69900000I-5000000J0D01*
G01*
M02*
