%TF.GenerationSoftware,KiCad,Pcbnew,5.1.5+dfsg1-2build2*%
%TF.CreationDate,2021-01-07T21:04:46-03:00*%
%TF.ProjectId,Punkatoo,50756e6b-6174-46f6-9f2e-6b696361645f,rev?*%
%TF.SameCoordinates,Original*%
%TF.FileFunction,Copper,L2,Bot*%
%TF.FilePolarity,Positive*%
%FSLAX46Y46*%
G04 Gerber Fmt 4.6, Leading zero omitted, Abs format (unit mm)*
G04 Created by KiCad (PCBNEW 5.1.5+dfsg1-2build2) date 2021-01-07 21:04:46*
%MOMM*%
%LPD*%
G04 APERTURE LIST*
%TA.AperFunction,ComponentPad*%
%ADD10O,1.700000X1.700000*%
%TD*%
%TA.AperFunction,ComponentPad*%
%ADD11R,1.700000X1.700000*%
%TD*%
%TA.AperFunction,ComponentPad*%
%ADD12C,1.397000*%
%TD*%
%TA.AperFunction,ComponentPad*%
%ADD13C,1.524000*%
%TD*%
%TA.AperFunction,ComponentPad*%
%ADD14O,1.350000X1.350000*%
%TD*%
%TA.AperFunction,ComponentPad*%
%ADD15R,1.350000X1.350000*%
%TD*%
%TA.AperFunction,ComponentPad*%
%ADD16O,2.400000X2.400000*%
%TD*%
%TA.AperFunction,ComponentPad*%
%ADD17C,2.400000*%
%TD*%
%TA.AperFunction,SMDPad,CuDef*%
%ADD18C,0.100000*%
%TD*%
%TA.AperFunction,ComponentPad*%
%ADD19O,2.200000X1.740000*%
%TD*%
%TA.AperFunction,ComponentPad*%
%ADD20C,0.100000*%
%TD*%
%TA.AperFunction,ComponentPad*%
%ADD21O,1.740000X2.200000*%
%TD*%
%TA.AperFunction,ComponentPad*%
%ADD22C,2.300000*%
%TD*%
%TA.AperFunction,ComponentPad*%
%ADD23R,2.000000X2.300000*%
%TD*%
%TA.AperFunction,ComponentPad*%
%ADD24C,1.700000*%
%TD*%
%TA.AperFunction,ComponentPad*%
%ADD25O,1.070000X1.800000*%
%TD*%
%TA.AperFunction,ComponentPad*%
%ADD26R,1.070000X1.800000*%
%TD*%
%TA.AperFunction,ComponentPad*%
%ADD27C,1.500000*%
%TD*%
%TA.AperFunction,SMDPad,CuDef*%
%ADD28R,0.800000X1.500000*%
%TD*%
%TA.AperFunction,SMDPad,CuDef*%
%ADD29R,1.500000X0.800000*%
%TD*%
%TA.AperFunction,SMDPad,CuDef*%
%ADD30R,3.800000X2.000000*%
%TD*%
%TA.AperFunction,SMDPad,CuDef*%
%ADD31R,1.500000X2.000000*%
%TD*%
%TA.AperFunction,ComponentPad*%
%ADD32C,1.800000*%
%TD*%
%TA.AperFunction,ComponentPad*%
%ADD33R,1.800000X1.800000*%
%TD*%
%TA.AperFunction,ViaPad*%
%ADD34C,0.800000*%
%TD*%
%TA.AperFunction,ViaPad*%
%ADD35C,1.200000*%
%TD*%
%TA.AperFunction,Conductor*%
%ADD36C,0.750000*%
%TD*%
%TA.AperFunction,Conductor*%
%ADD37C,0.500000*%
%TD*%
%TA.AperFunction,Conductor*%
%ADD38C,0.250000*%
%TD*%
%TA.AperFunction,Conductor*%
%ADD39C,0.254000*%
%TD*%
G04 APERTURE END LIST*
D10*
%TO.P,U2,3*%
%TO.N,Net-(C1-Pad1)*%
X120210000Y-105172000D03*
%TO.P,U2,2*%
%TO.N,GND*%
X122750000Y-105172000D03*
D11*
%TO.P,U2,1*%
%TO.N,Net-(U1-Pad6)*%
X125290000Y-105172000D03*
%TD*%
D10*
%TO.P,J6,4*%
%TO.N,Net-(J6-Pad4)*%
X144300000Y-79720000D03*
%TO.P,J6,3*%
%TO.N,Net-(J6-Pad3)*%
X144300000Y-77180000D03*
%TO.P,J6,2*%
%TO.N,GND*%
X144300000Y-74640000D03*
D11*
%TO.P,J6,1*%
%TO.N,+3V3*%
X144300000Y-72100000D03*
%TD*%
D12*
%TO.P,SW2,2*%
%TO.N,GND*%
X103800000Y-61920000D03*
%TO.P,SW2,1*%
%TO.N,/FLASH*%
X103800000Y-67000000D03*
%TO.P,SW2,2*%
%TO.N,GND*%
X96180000Y-61920000D03*
%TO.P,SW2,1*%
%TO.N,/FLASH*%
X96180000Y-67000000D03*
%TD*%
%TO.P,SW1,2*%
%TO.N,Net-(SW1-Pad2)*%
X107100000Y-67000000D03*
%TO.P,SW1,1*%
%TO.N,GND*%
X107100000Y-61920000D03*
%TO.P,SW1,2*%
%TO.N,Net-(SW1-Pad2)*%
X114720000Y-67000000D03*
%TO.P,SW1,1*%
%TO.N,GND*%
X114720000Y-61920000D03*
%TD*%
D13*
%TO.P,RV1,2*%
%TO.N,LINE*%
X97100000Y-120000000D03*
%TO.P,RV1,1*%
%TO.N,NEUT*%
X97100000Y-113000000D03*
%TD*%
D14*
%TO.P,C2,3*%
%TO.N,Net-(C2-Pad3)*%
X83900000Y-111100000D03*
%TO.P,C2,2*%
%TO.N,Net-(C2-Pad2)*%
X83900000Y-109100000D03*
D15*
%TO.P,C2,1*%
%TO.N,/M1*%
X83900000Y-107100000D03*
%TD*%
D16*
%TO.P,F1,2*%
%TO.N,Net-(F1-Pad2)*%
X89660000Y-109000000D03*
D17*
%TO.P,F1,1*%
%TO.N,LINE*%
X104900000Y-109000000D03*
%TD*%
%TA.AperFunction,SMDPad,CuDef*%
D18*
%TO.P,JP3,2*%
%TO.N,LINE*%
G36*
X80274505Y-89301204D02*
G01*
X80298773Y-89304804D01*
X80322572Y-89310765D01*
X80345671Y-89319030D01*
X80367850Y-89329520D01*
X80388893Y-89342132D01*
X80408599Y-89356747D01*
X80426777Y-89373223D01*
X80443253Y-89391401D01*
X80457868Y-89411107D01*
X80470480Y-89432150D01*
X80480970Y-89454329D01*
X80489235Y-89477428D01*
X80495196Y-89501227D01*
X80498796Y-89525495D01*
X80500000Y-89549999D01*
X80500000Y-90450001D01*
X80498796Y-90474505D01*
X80495196Y-90498773D01*
X80489235Y-90522572D01*
X80480970Y-90545671D01*
X80470480Y-90567850D01*
X80457868Y-90588893D01*
X80443253Y-90608599D01*
X80426777Y-90626777D01*
X80408599Y-90643253D01*
X80388893Y-90657868D01*
X80367850Y-90670480D01*
X80345671Y-90680970D01*
X80322572Y-90689235D01*
X80298773Y-90695196D01*
X80274505Y-90698796D01*
X80250001Y-90700000D01*
X79599999Y-90700000D01*
X79575495Y-90698796D01*
X79551227Y-90695196D01*
X79527428Y-90689235D01*
X79504329Y-90680970D01*
X79482150Y-90670480D01*
X79461107Y-90657868D01*
X79441401Y-90643253D01*
X79423223Y-90626777D01*
X79406747Y-90608599D01*
X79392132Y-90588893D01*
X79379520Y-90567850D01*
X79369030Y-90545671D01*
X79360765Y-90522572D01*
X79354804Y-90498773D01*
X79351204Y-90474505D01*
X79350000Y-90450001D01*
X79350000Y-89549999D01*
X79351204Y-89525495D01*
X79354804Y-89501227D01*
X79360765Y-89477428D01*
X79369030Y-89454329D01*
X79379520Y-89432150D01*
X79392132Y-89411107D01*
X79406747Y-89391401D01*
X79423223Y-89373223D01*
X79441401Y-89356747D01*
X79461107Y-89342132D01*
X79482150Y-89329520D01*
X79504329Y-89319030D01*
X79527428Y-89310765D01*
X79551227Y-89304804D01*
X79575495Y-89301204D01*
X79599999Y-89300000D01*
X80250001Y-89300000D01*
X80274505Y-89301204D01*
G37*
%TD.AperFunction*%
%TA.AperFunction,SMDPad,CuDef*%
%TO.P,JP3,1*%
%TO.N,Net-(JP2-Pad1)*%
G36*
X78224505Y-89301204D02*
G01*
X78248773Y-89304804D01*
X78272572Y-89310765D01*
X78295671Y-89319030D01*
X78317850Y-89329520D01*
X78338893Y-89342132D01*
X78358599Y-89356747D01*
X78376777Y-89373223D01*
X78393253Y-89391401D01*
X78407868Y-89411107D01*
X78420480Y-89432150D01*
X78430970Y-89454329D01*
X78439235Y-89477428D01*
X78445196Y-89501227D01*
X78448796Y-89525495D01*
X78450000Y-89549999D01*
X78450000Y-90450001D01*
X78448796Y-90474505D01*
X78445196Y-90498773D01*
X78439235Y-90522572D01*
X78430970Y-90545671D01*
X78420480Y-90567850D01*
X78407868Y-90588893D01*
X78393253Y-90608599D01*
X78376777Y-90626777D01*
X78358599Y-90643253D01*
X78338893Y-90657868D01*
X78317850Y-90670480D01*
X78295671Y-90680970D01*
X78272572Y-90689235D01*
X78248773Y-90695196D01*
X78224505Y-90698796D01*
X78200001Y-90700000D01*
X77549999Y-90700000D01*
X77525495Y-90698796D01*
X77501227Y-90695196D01*
X77477428Y-90689235D01*
X77454329Y-90680970D01*
X77432150Y-90670480D01*
X77411107Y-90657868D01*
X77391401Y-90643253D01*
X77373223Y-90626777D01*
X77356747Y-90608599D01*
X77342132Y-90588893D01*
X77329520Y-90567850D01*
X77319030Y-90545671D01*
X77310765Y-90522572D01*
X77304804Y-90498773D01*
X77301204Y-90474505D01*
X77300000Y-90450001D01*
X77300000Y-89549999D01*
X77301204Y-89525495D01*
X77304804Y-89501227D01*
X77310765Y-89477428D01*
X77319030Y-89454329D01*
X77329520Y-89432150D01*
X77342132Y-89411107D01*
X77356747Y-89391401D01*
X77373223Y-89373223D01*
X77391401Y-89356747D01*
X77411107Y-89342132D01*
X77432150Y-89329520D01*
X77454329Y-89319030D01*
X77477428Y-89310765D01*
X77501227Y-89304804D01*
X77525495Y-89301204D01*
X77549999Y-89300000D01*
X78200001Y-89300000D01*
X78224505Y-89301204D01*
G37*
%TD.AperFunction*%
%TD*%
%TA.AperFunction,SMDPad,CuDef*%
%TO.P,JP2,2*%
%TO.N,/M2*%
G36*
X74224505Y-89301204D02*
G01*
X74248773Y-89304804D01*
X74272572Y-89310765D01*
X74295671Y-89319030D01*
X74317850Y-89329520D01*
X74338893Y-89342132D01*
X74358599Y-89356747D01*
X74376777Y-89373223D01*
X74393253Y-89391401D01*
X74407868Y-89411107D01*
X74420480Y-89432150D01*
X74430970Y-89454329D01*
X74439235Y-89477428D01*
X74445196Y-89501227D01*
X74448796Y-89525495D01*
X74450000Y-89549999D01*
X74450000Y-90450001D01*
X74448796Y-90474505D01*
X74445196Y-90498773D01*
X74439235Y-90522572D01*
X74430970Y-90545671D01*
X74420480Y-90567850D01*
X74407868Y-90588893D01*
X74393253Y-90608599D01*
X74376777Y-90626777D01*
X74358599Y-90643253D01*
X74338893Y-90657868D01*
X74317850Y-90670480D01*
X74295671Y-90680970D01*
X74272572Y-90689235D01*
X74248773Y-90695196D01*
X74224505Y-90698796D01*
X74200001Y-90700000D01*
X73549999Y-90700000D01*
X73525495Y-90698796D01*
X73501227Y-90695196D01*
X73477428Y-90689235D01*
X73454329Y-90680970D01*
X73432150Y-90670480D01*
X73411107Y-90657868D01*
X73391401Y-90643253D01*
X73373223Y-90626777D01*
X73356747Y-90608599D01*
X73342132Y-90588893D01*
X73329520Y-90567850D01*
X73319030Y-90545671D01*
X73310765Y-90522572D01*
X73304804Y-90498773D01*
X73301204Y-90474505D01*
X73300000Y-90450001D01*
X73300000Y-89549999D01*
X73301204Y-89525495D01*
X73304804Y-89501227D01*
X73310765Y-89477428D01*
X73319030Y-89454329D01*
X73329520Y-89432150D01*
X73342132Y-89411107D01*
X73356747Y-89391401D01*
X73373223Y-89373223D01*
X73391401Y-89356747D01*
X73411107Y-89342132D01*
X73432150Y-89329520D01*
X73454329Y-89319030D01*
X73477428Y-89310765D01*
X73501227Y-89304804D01*
X73525495Y-89301204D01*
X73549999Y-89300000D01*
X74200001Y-89300000D01*
X74224505Y-89301204D01*
G37*
%TD.AperFunction*%
%TA.AperFunction,SMDPad,CuDef*%
%TO.P,JP2,1*%
%TO.N,Net-(JP2-Pad1)*%
G36*
X76274505Y-89301204D02*
G01*
X76298773Y-89304804D01*
X76322572Y-89310765D01*
X76345671Y-89319030D01*
X76367850Y-89329520D01*
X76388893Y-89342132D01*
X76408599Y-89356747D01*
X76426777Y-89373223D01*
X76443253Y-89391401D01*
X76457868Y-89411107D01*
X76470480Y-89432150D01*
X76480970Y-89454329D01*
X76489235Y-89477428D01*
X76495196Y-89501227D01*
X76498796Y-89525495D01*
X76500000Y-89549999D01*
X76500000Y-90450001D01*
X76498796Y-90474505D01*
X76495196Y-90498773D01*
X76489235Y-90522572D01*
X76480970Y-90545671D01*
X76470480Y-90567850D01*
X76457868Y-90588893D01*
X76443253Y-90608599D01*
X76426777Y-90626777D01*
X76408599Y-90643253D01*
X76388893Y-90657868D01*
X76367850Y-90670480D01*
X76345671Y-90680970D01*
X76322572Y-90689235D01*
X76298773Y-90695196D01*
X76274505Y-90698796D01*
X76250001Y-90700000D01*
X75599999Y-90700000D01*
X75575495Y-90698796D01*
X75551227Y-90695196D01*
X75527428Y-90689235D01*
X75504329Y-90680970D01*
X75482150Y-90670480D01*
X75461107Y-90657868D01*
X75441401Y-90643253D01*
X75423223Y-90626777D01*
X75406747Y-90608599D01*
X75392132Y-90588893D01*
X75379520Y-90567850D01*
X75369030Y-90545671D01*
X75360765Y-90522572D01*
X75354804Y-90498773D01*
X75351204Y-90474505D01*
X75350000Y-90450001D01*
X75350000Y-89549999D01*
X75351204Y-89525495D01*
X75354804Y-89501227D01*
X75360765Y-89477428D01*
X75369030Y-89454329D01*
X75379520Y-89432150D01*
X75392132Y-89411107D01*
X75406747Y-89391401D01*
X75423223Y-89373223D01*
X75441401Y-89356747D01*
X75461107Y-89342132D01*
X75482150Y-89329520D01*
X75504329Y-89319030D01*
X75527428Y-89310765D01*
X75551227Y-89304804D01*
X75575495Y-89301204D01*
X75599999Y-89300000D01*
X76250001Y-89300000D01*
X76274505Y-89301204D01*
G37*
%TD.AperFunction*%
%TD*%
%TA.AperFunction,SMDPad,CuDef*%
%TO.P,J5,2*%
%TO.N,Net-(J2-Pad10)*%
G36*
X141374505Y-85651204D02*
G01*
X141398773Y-85654804D01*
X141422572Y-85660765D01*
X141445671Y-85669030D01*
X141467850Y-85679520D01*
X141488893Y-85692132D01*
X141508599Y-85706747D01*
X141526777Y-85723223D01*
X141543253Y-85741401D01*
X141557868Y-85761107D01*
X141570480Y-85782150D01*
X141580970Y-85804329D01*
X141589235Y-85827428D01*
X141595196Y-85851227D01*
X141598796Y-85875495D01*
X141600000Y-85899999D01*
X141600000Y-86550001D01*
X141598796Y-86574505D01*
X141595196Y-86598773D01*
X141589235Y-86622572D01*
X141580970Y-86645671D01*
X141570480Y-86667850D01*
X141557868Y-86688893D01*
X141543253Y-86708599D01*
X141526777Y-86726777D01*
X141508599Y-86743253D01*
X141488893Y-86757868D01*
X141467850Y-86770480D01*
X141445671Y-86780970D01*
X141422572Y-86789235D01*
X141398773Y-86795196D01*
X141374505Y-86798796D01*
X141350001Y-86800000D01*
X140449999Y-86800000D01*
X140425495Y-86798796D01*
X140401227Y-86795196D01*
X140377428Y-86789235D01*
X140354329Y-86780970D01*
X140332150Y-86770480D01*
X140311107Y-86757868D01*
X140291401Y-86743253D01*
X140273223Y-86726777D01*
X140256747Y-86708599D01*
X140242132Y-86688893D01*
X140229520Y-86667850D01*
X140219030Y-86645671D01*
X140210765Y-86622572D01*
X140204804Y-86598773D01*
X140201204Y-86574505D01*
X140200000Y-86550001D01*
X140200000Y-85899999D01*
X140201204Y-85875495D01*
X140204804Y-85851227D01*
X140210765Y-85827428D01*
X140219030Y-85804329D01*
X140229520Y-85782150D01*
X140242132Y-85761107D01*
X140256747Y-85741401D01*
X140273223Y-85723223D01*
X140291401Y-85706747D01*
X140311107Y-85692132D01*
X140332150Y-85679520D01*
X140354329Y-85669030D01*
X140377428Y-85660765D01*
X140401227Y-85654804D01*
X140425495Y-85651204D01*
X140449999Y-85650000D01*
X141350001Y-85650000D01*
X141374505Y-85651204D01*
G37*
%TD.AperFunction*%
%TA.AperFunction,SMDPad,CuDef*%
%TO.P,J5,1*%
%TO.N,GND*%
G36*
X141374505Y-83601204D02*
G01*
X141398773Y-83604804D01*
X141422572Y-83610765D01*
X141445671Y-83619030D01*
X141467850Y-83629520D01*
X141488893Y-83642132D01*
X141508599Y-83656747D01*
X141526777Y-83673223D01*
X141543253Y-83691401D01*
X141557868Y-83711107D01*
X141570480Y-83732150D01*
X141580970Y-83754329D01*
X141589235Y-83777428D01*
X141595196Y-83801227D01*
X141598796Y-83825495D01*
X141600000Y-83849999D01*
X141600000Y-84500001D01*
X141598796Y-84524505D01*
X141595196Y-84548773D01*
X141589235Y-84572572D01*
X141580970Y-84595671D01*
X141570480Y-84617850D01*
X141557868Y-84638893D01*
X141543253Y-84658599D01*
X141526777Y-84676777D01*
X141508599Y-84693253D01*
X141488893Y-84707868D01*
X141467850Y-84720480D01*
X141445671Y-84730970D01*
X141422572Y-84739235D01*
X141398773Y-84745196D01*
X141374505Y-84748796D01*
X141350001Y-84750000D01*
X140449999Y-84750000D01*
X140425495Y-84748796D01*
X140401227Y-84745196D01*
X140377428Y-84739235D01*
X140354329Y-84730970D01*
X140332150Y-84720480D01*
X140311107Y-84707868D01*
X140291401Y-84693253D01*
X140273223Y-84676777D01*
X140256747Y-84658599D01*
X140242132Y-84638893D01*
X140229520Y-84617850D01*
X140219030Y-84595671D01*
X140210765Y-84572572D01*
X140204804Y-84548773D01*
X140201204Y-84524505D01*
X140200000Y-84500001D01*
X140200000Y-83849999D01*
X140201204Y-83825495D01*
X140204804Y-83801227D01*
X140210765Y-83777428D01*
X140219030Y-83754329D01*
X140229520Y-83732150D01*
X140242132Y-83711107D01*
X140256747Y-83691401D01*
X140273223Y-83673223D01*
X140291401Y-83656747D01*
X140311107Y-83642132D01*
X140332150Y-83629520D01*
X140354329Y-83619030D01*
X140377428Y-83610765D01*
X140401227Y-83604804D01*
X140425495Y-83601204D01*
X140449999Y-83600000D01*
X141350001Y-83600000D01*
X141374505Y-83601204D01*
G37*
%TD.AperFunction*%
%TD*%
%TA.AperFunction,SMDPad,CuDef*%
%TO.P,J4,2*%
%TO.N,Net-(J2-Pad10)*%
G36*
X147974505Y-111501204D02*
G01*
X147998773Y-111504804D01*
X148022572Y-111510765D01*
X148045671Y-111519030D01*
X148067850Y-111529520D01*
X148088893Y-111542132D01*
X148108599Y-111556747D01*
X148126777Y-111573223D01*
X148143253Y-111591401D01*
X148157868Y-111611107D01*
X148170480Y-111632150D01*
X148180970Y-111654329D01*
X148189235Y-111677428D01*
X148195196Y-111701227D01*
X148198796Y-111725495D01*
X148200000Y-111749999D01*
X148200000Y-112400001D01*
X148198796Y-112424505D01*
X148195196Y-112448773D01*
X148189235Y-112472572D01*
X148180970Y-112495671D01*
X148170480Y-112517850D01*
X148157868Y-112538893D01*
X148143253Y-112558599D01*
X148126777Y-112576777D01*
X148108599Y-112593253D01*
X148088893Y-112607868D01*
X148067850Y-112620480D01*
X148045671Y-112630970D01*
X148022572Y-112639235D01*
X147998773Y-112645196D01*
X147974505Y-112648796D01*
X147950001Y-112650000D01*
X147049999Y-112650000D01*
X147025495Y-112648796D01*
X147001227Y-112645196D01*
X146977428Y-112639235D01*
X146954329Y-112630970D01*
X146932150Y-112620480D01*
X146911107Y-112607868D01*
X146891401Y-112593253D01*
X146873223Y-112576777D01*
X146856747Y-112558599D01*
X146842132Y-112538893D01*
X146829520Y-112517850D01*
X146819030Y-112495671D01*
X146810765Y-112472572D01*
X146804804Y-112448773D01*
X146801204Y-112424505D01*
X146800000Y-112400001D01*
X146800000Y-111749999D01*
X146801204Y-111725495D01*
X146804804Y-111701227D01*
X146810765Y-111677428D01*
X146819030Y-111654329D01*
X146829520Y-111632150D01*
X146842132Y-111611107D01*
X146856747Y-111591401D01*
X146873223Y-111573223D01*
X146891401Y-111556747D01*
X146911107Y-111542132D01*
X146932150Y-111529520D01*
X146954329Y-111519030D01*
X146977428Y-111510765D01*
X147001227Y-111504804D01*
X147025495Y-111501204D01*
X147049999Y-111500000D01*
X147950001Y-111500000D01*
X147974505Y-111501204D01*
G37*
%TD.AperFunction*%
%TA.AperFunction,SMDPad,CuDef*%
%TO.P,J4,1*%
%TO.N,+3V3*%
G36*
X147974505Y-113551204D02*
G01*
X147998773Y-113554804D01*
X148022572Y-113560765D01*
X148045671Y-113569030D01*
X148067850Y-113579520D01*
X148088893Y-113592132D01*
X148108599Y-113606747D01*
X148126777Y-113623223D01*
X148143253Y-113641401D01*
X148157868Y-113661107D01*
X148170480Y-113682150D01*
X148180970Y-113704329D01*
X148189235Y-113727428D01*
X148195196Y-113751227D01*
X148198796Y-113775495D01*
X148200000Y-113799999D01*
X148200000Y-114450001D01*
X148198796Y-114474505D01*
X148195196Y-114498773D01*
X148189235Y-114522572D01*
X148180970Y-114545671D01*
X148170480Y-114567850D01*
X148157868Y-114588893D01*
X148143253Y-114608599D01*
X148126777Y-114626777D01*
X148108599Y-114643253D01*
X148088893Y-114657868D01*
X148067850Y-114670480D01*
X148045671Y-114680970D01*
X148022572Y-114689235D01*
X147998773Y-114695196D01*
X147974505Y-114698796D01*
X147950001Y-114700000D01*
X147049999Y-114700000D01*
X147025495Y-114698796D01*
X147001227Y-114695196D01*
X146977428Y-114689235D01*
X146954329Y-114680970D01*
X146932150Y-114670480D01*
X146911107Y-114657868D01*
X146891401Y-114643253D01*
X146873223Y-114626777D01*
X146856747Y-114608599D01*
X146842132Y-114588893D01*
X146829520Y-114567850D01*
X146819030Y-114545671D01*
X146810765Y-114522572D01*
X146804804Y-114498773D01*
X146801204Y-114474505D01*
X146800000Y-114450001D01*
X146800000Y-113799999D01*
X146801204Y-113775495D01*
X146804804Y-113751227D01*
X146810765Y-113727428D01*
X146819030Y-113704329D01*
X146829520Y-113682150D01*
X146842132Y-113661107D01*
X146856747Y-113641401D01*
X146873223Y-113623223D01*
X146891401Y-113606747D01*
X146911107Y-113592132D01*
X146932150Y-113579520D01*
X146954329Y-113569030D01*
X146977428Y-113560765D01*
X147001227Y-113554804D01*
X147025495Y-113551204D01*
X147049999Y-113550000D01*
X147950001Y-113550000D01*
X147974505Y-113551204D01*
G37*
%TD.AperFunction*%
%TD*%
D10*
%TO.P,J2,10*%
%TO.N,Net-(J2-Pad10)*%
X145240000Y-107460000D03*
%TO.P,J2,9*%
%TO.N,Net-(J2-Pad9)*%
X142700000Y-107460000D03*
%TO.P,J2,8*%
%TO.N,Net-(J2-Pad10)*%
X145240000Y-104920000D03*
%TO.P,J2,7*%
%TO.N,Net-(J2-Pad7)*%
X142700000Y-104920000D03*
%TO.P,J2,6*%
%TO.N,Net-(J2-Pad10)*%
X145240000Y-102380000D03*
%TO.P,J2,5*%
%TO.N,Net-(J2-Pad5)*%
X142700000Y-102380000D03*
%TO.P,J2,4*%
%TO.N,Net-(J2-Pad10)*%
X145240000Y-99840000D03*
%TO.P,J2,3*%
%TO.N,Net-(J2-Pad3)*%
X142700000Y-99840000D03*
%TO.P,J2,2*%
%TO.N,Net-(J2-Pad10)*%
X145240000Y-97300000D03*
D11*
%TO.P,J2,1*%
%TO.N,Net-(J2-Pad1)*%
X142700000Y-97300000D03*
%TD*%
D10*
%TO.P,J3,6*%
%TO.N,Net-(J3-Pad6)*%
X135450000Y-94250000D03*
%TO.P,J3,5*%
%TO.N,/TXD*%
X132910000Y-94250000D03*
%TO.P,J3,4*%
%TO.N,/RXD*%
X130370000Y-94250000D03*
%TO.P,J3,3*%
%TO.N,Net-(J3-Pad3)*%
X127830000Y-94250000D03*
%TO.P,J3,2*%
%TO.N,Net-(J3-Pad2)*%
X125290000Y-94250000D03*
D11*
%TO.P,J3,1*%
%TO.N,GND*%
X122750000Y-94250000D03*
%TD*%
D19*
%TO.P,J7,5*%
%TO.N,/LMP*%
X75500000Y-107440000D03*
%TO.P,J7,4*%
%TO.N,/M2*%
X75500000Y-109980000D03*
%TO.P,J7,3*%
%TO.N,/M1*%
X75500000Y-112520000D03*
%TO.P,J7,2*%
%TO.N,Net-(C2-Pad2)*%
X75500000Y-115060000D03*
%TA.AperFunction,ComponentPad*%
D20*
%TO.P,J7,1*%
%TO.N,Net-(C2-Pad3)*%
G36*
X76374505Y-116731204D02*
G01*
X76398773Y-116734804D01*
X76422572Y-116740765D01*
X76445671Y-116749030D01*
X76467850Y-116759520D01*
X76488893Y-116772132D01*
X76508599Y-116786747D01*
X76526777Y-116803223D01*
X76543253Y-116821401D01*
X76557868Y-116841107D01*
X76570480Y-116862150D01*
X76580970Y-116884329D01*
X76589235Y-116907428D01*
X76595196Y-116931227D01*
X76598796Y-116955495D01*
X76600000Y-116979999D01*
X76600000Y-118220001D01*
X76598796Y-118244505D01*
X76595196Y-118268773D01*
X76589235Y-118292572D01*
X76580970Y-118315671D01*
X76570480Y-118337850D01*
X76557868Y-118358893D01*
X76543253Y-118378599D01*
X76526777Y-118396777D01*
X76508599Y-118413253D01*
X76488893Y-118427868D01*
X76467850Y-118440480D01*
X76445671Y-118450970D01*
X76422572Y-118459235D01*
X76398773Y-118465196D01*
X76374505Y-118468796D01*
X76350001Y-118470000D01*
X74649999Y-118470000D01*
X74625495Y-118468796D01*
X74601227Y-118465196D01*
X74577428Y-118459235D01*
X74554329Y-118450970D01*
X74532150Y-118440480D01*
X74511107Y-118427868D01*
X74491401Y-118413253D01*
X74473223Y-118396777D01*
X74456747Y-118378599D01*
X74442132Y-118358893D01*
X74429520Y-118337850D01*
X74419030Y-118315671D01*
X74410765Y-118292572D01*
X74404804Y-118268773D01*
X74401204Y-118244505D01*
X74400000Y-118220001D01*
X74400000Y-116979999D01*
X74401204Y-116955495D01*
X74404804Y-116931227D01*
X74410765Y-116907428D01*
X74419030Y-116884329D01*
X74429520Y-116862150D01*
X74442132Y-116841107D01*
X74456747Y-116821401D01*
X74473223Y-116803223D01*
X74491401Y-116786747D01*
X74511107Y-116772132D01*
X74532150Y-116759520D01*
X74554329Y-116749030D01*
X74577428Y-116740765D01*
X74601227Y-116734804D01*
X74625495Y-116731204D01*
X74649999Y-116730000D01*
X76350001Y-116730000D01*
X76374505Y-116731204D01*
G37*
%TD.AperFunction*%
%TD*%
D21*
%TO.P,J1,2*%
%TO.N,Net-(F1-Pad2)*%
X82460000Y-116200000D03*
%TA.AperFunction,ComponentPad*%
D20*
%TO.P,J1,1*%
%TO.N,NEUT*%
G36*
X85644505Y-115101204D02*
G01*
X85668773Y-115104804D01*
X85692572Y-115110765D01*
X85715671Y-115119030D01*
X85737850Y-115129520D01*
X85758893Y-115142132D01*
X85778599Y-115156747D01*
X85796777Y-115173223D01*
X85813253Y-115191401D01*
X85827868Y-115211107D01*
X85840480Y-115232150D01*
X85850970Y-115254329D01*
X85859235Y-115277428D01*
X85865196Y-115301227D01*
X85868796Y-115325495D01*
X85870000Y-115349999D01*
X85870000Y-117050001D01*
X85868796Y-117074505D01*
X85865196Y-117098773D01*
X85859235Y-117122572D01*
X85850970Y-117145671D01*
X85840480Y-117167850D01*
X85827868Y-117188893D01*
X85813253Y-117208599D01*
X85796777Y-117226777D01*
X85778599Y-117243253D01*
X85758893Y-117257868D01*
X85737850Y-117270480D01*
X85715671Y-117280970D01*
X85692572Y-117289235D01*
X85668773Y-117295196D01*
X85644505Y-117298796D01*
X85620001Y-117300000D01*
X84379999Y-117300000D01*
X84355495Y-117298796D01*
X84331227Y-117295196D01*
X84307428Y-117289235D01*
X84284329Y-117280970D01*
X84262150Y-117270480D01*
X84241107Y-117257868D01*
X84221401Y-117243253D01*
X84203223Y-117226777D01*
X84186747Y-117208599D01*
X84172132Y-117188893D01*
X84159520Y-117167850D01*
X84149030Y-117145671D01*
X84140765Y-117122572D01*
X84134804Y-117098773D01*
X84131204Y-117074505D01*
X84130000Y-117050001D01*
X84130000Y-115349999D01*
X84131204Y-115325495D01*
X84134804Y-115301227D01*
X84140765Y-115277428D01*
X84149030Y-115254329D01*
X84159520Y-115232150D01*
X84172132Y-115211107D01*
X84186747Y-115191401D01*
X84203223Y-115173223D01*
X84221401Y-115156747D01*
X84241107Y-115142132D01*
X84262150Y-115129520D01*
X84284329Y-115119030D01*
X84307428Y-115110765D01*
X84331227Y-115104804D01*
X84355495Y-115101204D01*
X84379999Y-115100000D01*
X85620001Y-115100000D01*
X85644505Y-115101204D01*
G37*
%TD.AperFunction*%
%TD*%
D22*
%TO.P,PS1,4*%
%TO.N,+5V*%
X115100000Y-74116000D03*
%TO.P,PS1,2*%
%TO.N,NEUT*%
X109900000Y-103516000D03*
D23*
%TO.P,PS1,1*%
%TO.N,LINE*%
X104900000Y-103516000D03*
D22*
%TO.P,PS1,3*%
%TO.N,GND*%
X99700000Y-74116000D03*
%TD*%
D24*
%TO.P,K5,2*%
%TO.N,LINE*%
X81532000Y-101103000D03*
%TO.P,K5,1*%
%TO.N,/LMP*%
X73912000Y-101103000D03*
%TO.P,K5,3*%
%TO.N,Net-(K5-Pad3)*%
X91692000Y-101103000D03*
%TO.P,K5,4*%
%TO.N,GND*%
X94232000Y-101103000D03*
%TO.P,K5,1*%
%TO.N,/LMP*%
X76452000Y-101103000D03*
%TD*%
%TO.P,K4,2*%
%TO.N,LINE*%
X81532000Y-94054500D03*
%TO.P,K4,1*%
%TO.N,/M2*%
X73912000Y-94054500D03*
%TO.P,K4,3*%
%TO.N,Net-(K4-Pad3)*%
X91692000Y-94054500D03*
%TO.P,K4,4*%
%TO.N,GND*%
X94232000Y-94054500D03*
%TO.P,K4,1*%
%TO.N,/M2*%
X76452000Y-94054500D03*
%TD*%
%TO.P,K3,2*%
%TO.N,LINE*%
X81532000Y-87006000D03*
%TO.P,K3,1*%
%TO.N,/M1*%
X73912000Y-87006000D03*
%TO.P,K3,3*%
%TO.N,Net-(K3-Pad3)*%
X91692000Y-87006000D03*
%TO.P,K3,4*%
%TO.N,GND*%
X94232000Y-87006000D03*
%TO.P,K3,1*%
%TO.N,/M1*%
X76452000Y-87006000D03*
%TD*%
%TO.P,K2,2*%
%TO.N,Net-(JP2-Pad1)*%
X81532000Y-79957500D03*
%TO.P,K2,1*%
%TO.N,Net-(C2-Pad2)*%
X73912000Y-79957500D03*
%TO.P,K2,3*%
%TO.N,Net-(K2-Pad3)*%
X91692000Y-79957500D03*
%TO.P,K2,4*%
%TO.N,GND*%
X94232000Y-79957500D03*
%TO.P,K2,1*%
%TO.N,Net-(C2-Pad2)*%
X76452000Y-79957500D03*
%TD*%
%TO.P,K1,2*%
%TO.N,Net-(JP2-Pad1)*%
X81532000Y-72909000D03*
%TO.P,K1,1*%
%TO.N,Net-(C2-Pad3)*%
X73912000Y-72909000D03*
%TO.P,K1,3*%
%TO.N,Net-(K1-Pad3)*%
X91692000Y-72909000D03*
%TO.P,K1,4*%
%TO.N,GND*%
X94232000Y-72909000D03*
%TO.P,K1,1*%
%TO.N,Net-(C2-Pad3)*%
X76452000Y-72909000D03*
%TD*%
D25*
%TO.P,D1,4*%
%TO.N,+3V3*%
X141224000Y-112776000D03*
%TO.P,D1,3*%
%TO.N,Net-(D1-Pad3)*%
X142494000Y-112776000D03*
%TO.P,D1,2*%
%TO.N,Net-(D1-Pad2)*%
X143764000Y-112776000D03*
D26*
%TO.P,D1,1*%
%TO.N,Net-(D1-Pad1)*%
X145034000Y-112776000D03*
%TD*%
%TA.AperFunction,SMDPad,CuDef*%
D18*
%TO.P,R6,2*%
%TO.N,Net-(R6-Pad2)*%
G36*
X138874505Y-111251204D02*
G01*
X138898773Y-111254804D01*
X138922572Y-111260765D01*
X138945671Y-111269030D01*
X138967850Y-111279520D01*
X138988893Y-111292132D01*
X139008599Y-111306747D01*
X139026777Y-111323223D01*
X139043253Y-111341401D01*
X139057868Y-111361107D01*
X139070480Y-111382150D01*
X139080970Y-111404329D01*
X139089235Y-111427428D01*
X139095196Y-111451227D01*
X139098796Y-111475495D01*
X139100000Y-111499999D01*
X139100000Y-112150001D01*
X139098796Y-112174505D01*
X139095196Y-112198773D01*
X139089235Y-112222572D01*
X139080970Y-112245671D01*
X139070480Y-112267850D01*
X139057868Y-112288893D01*
X139043253Y-112308599D01*
X139026777Y-112326777D01*
X139008599Y-112343253D01*
X138988893Y-112357868D01*
X138967850Y-112370480D01*
X138945671Y-112380970D01*
X138922572Y-112389235D01*
X138898773Y-112395196D01*
X138874505Y-112398796D01*
X138850001Y-112400000D01*
X137949999Y-112400000D01*
X137925495Y-112398796D01*
X137901227Y-112395196D01*
X137877428Y-112389235D01*
X137854329Y-112380970D01*
X137832150Y-112370480D01*
X137811107Y-112357868D01*
X137791401Y-112343253D01*
X137773223Y-112326777D01*
X137756747Y-112308599D01*
X137742132Y-112288893D01*
X137729520Y-112267850D01*
X137719030Y-112245671D01*
X137710765Y-112222572D01*
X137704804Y-112198773D01*
X137701204Y-112174505D01*
X137700000Y-112150001D01*
X137700000Y-111499999D01*
X137701204Y-111475495D01*
X137704804Y-111451227D01*
X137710765Y-111427428D01*
X137719030Y-111404329D01*
X137729520Y-111382150D01*
X137742132Y-111361107D01*
X137756747Y-111341401D01*
X137773223Y-111323223D01*
X137791401Y-111306747D01*
X137811107Y-111292132D01*
X137832150Y-111279520D01*
X137854329Y-111269030D01*
X137877428Y-111260765D01*
X137901227Y-111254804D01*
X137925495Y-111251204D01*
X137949999Y-111250000D01*
X138850001Y-111250000D01*
X138874505Y-111251204D01*
G37*
%TD.AperFunction*%
%TA.AperFunction,SMDPad,CuDef*%
%TO.P,R6,1*%
%TO.N,+3V3*%
G36*
X138874505Y-109201204D02*
G01*
X138898773Y-109204804D01*
X138922572Y-109210765D01*
X138945671Y-109219030D01*
X138967850Y-109229520D01*
X138988893Y-109242132D01*
X139008599Y-109256747D01*
X139026777Y-109273223D01*
X139043253Y-109291401D01*
X139057868Y-109311107D01*
X139070480Y-109332150D01*
X139080970Y-109354329D01*
X139089235Y-109377428D01*
X139095196Y-109401227D01*
X139098796Y-109425495D01*
X139100000Y-109449999D01*
X139100000Y-110100001D01*
X139098796Y-110124505D01*
X139095196Y-110148773D01*
X139089235Y-110172572D01*
X139080970Y-110195671D01*
X139070480Y-110217850D01*
X139057868Y-110238893D01*
X139043253Y-110258599D01*
X139026777Y-110276777D01*
X139008599Y-110293253D01*
X138988893Y-110307868D01*
X138967850Y-110320480D01*
X138945671Y-110330970D01*
X138922572Y-110339235D01*
X138898773Y-110345196D01*
X138874505Y-110348796D01*
X138850001Y-110350000D01*
X137949999Y-110350000D01*
X137925495Y-110348796D01*
X137901227Y-110345196D01*
X137877428Y-110339235D01*
X137854329Y-110330970D01*
X137832150Y-110320480D01*
X137811107Y-110307868D01*
X137791401Y-110293253D01*
X137773223Y-110276777D01*
X137756747Y-110258599D01*
X137742132Y-110238893D01*
X137729520Y-110217850D01*
X137719030Y-110195671D01*
X137710765Y-110172572D01*
X137704804Y-110148773D01*
X137701204Y-110124505D01*
X137700000Y-110100001D01*
X137700000Y-109449999D01*
X137701204Y-109425495D01*
X137704804Y-109401227D01*
X137710765Y-109377428D01*
X137719030Y-109354329D01*
X137729520Y-109332150D01*
X137742132Y-109311107D01*
X137756747Y-109291401D01*
X137773223Y-109273223D01*
X137791401Y-109256747D01*
X137811107Y-109242132D01*
X137832150Y-109229520D01*
X137854329Y-109219030D01*
X137877428Y-109210765D01*
X137901227Y-109204804D01*
X137925495Y-109201204D01*
X137949999Y-109200000D01*
X138850001Y-109200000D01*
X138874505Y-109201204D01*
G37*
%TD.AperFunction*%
%TD*%
%TA.AperFunction,SMDPad,CuDef*%
%TO.P,R7,2*%
%TO.N,Net-(D2-Pad2)*%
G36*
X129674505Y-112251204D02*
G01*
X129698773Y-112254804D01*
X129722572Y-112260765D01*
X129745671Y-112269030D01*
X129767850Y-112279520D01*
X129788893Y-112292132D01*
X129808599Y-112306747D01*
X129826777Y-112323223D01*
X129843253Y-112341401D01*
X129857868Y-112361107D01*
X129870480Y-112382150D01*
X129880970Y-112404329D01*
X129889235Y-112427428D01*
X129895196Y-112451227D01*
X129898796Y-112475495D01*
X129900000Y-112499999D01*
X129900000Y-113150001D01*
X129898796Y-113174505D01*
X129895196Y-113198773D01*
X129889235Y-113222572D01*
X129880970Y-113245671D01*
X129870480Y-113267850D01*
X129857868Y-113288893D01*
X129843253Y-113308599D01*
X129826777Y-113326777D01*
X129808599Y-113343253D01*
X129788893Y-113357868D01*
X129767850Y-113370480D01*
X129745671Y-113380970D01*
X129722572Y-113389235D01*
X129698773Y-113395196D01*
X129674505Y-113398796D01*
X129650001Y-113400000D01*
X128749999Y-113400000D01*
X128725495Y-113398796D01*
X128701227Y-113395196D01*
X128677428Y-113389235D01*
X128654329Y-113380970D01*
X128632150Y-113370480D01*
X128611107Y-113357868D01*
X128591401Y-113343253D01*
X128573223Y-113326777D01*
X128556747Y-113308599D01*
X128542132Y-113288893D01*
X128529520Y-113267850D01*
X128519030Y-113245671D01*
X128510765Y-113222572D01*
X128504804Y-113198773D01*
X128501204Y-113174505D01*
X128500000Y-113150001D01*
X128500000Y-112499999D01*
X128501204Y-112475495D01*
X128504804Y-112451227D01*
X128510765Y-112427428D01*
X128519030Y-112404329D01*
X128529520Y-112382150D01*
X128542132Y-112361107D01*
X128556747Y-112341401D01*
X128573223Y-112323223D01*
X128591401Y-112306747D01*
X128611107Y-112292132D01*
X128632150Y-112279520D01*
X128654329Y-112269030D01*
X128677428Y-112260765D01*
X128701227Y-112254804D01*
X128725495Y-112251204D01*
X128749999Y-112250000D01*
X129650001Y-112250000D01*
X129674505Y-112251204D01*
G37*
%TD.AperFunction*%
%TA.AperFunction,SMDPad,CuDef*%
%TO.P,R7,1*%
%TO.N,Net-(R6-Pad2)*%
G36*
X129674505Y-110201204D02*
G01*
X129698773Y-110204804D01*
X129722572Y-110210765D01*
X129745671Y-110219030D01*
X129767850Y-110229520D01*
X129788893Y-110242132D01*
X129808599Y-110256747D01*
X129826777Y-110273223D01*
X129843253Y-110291401D01*
X129857868Y-110311107D01*
X129870480Y-110332150D01*
X129880970Y-110354329D01*
X129889235Y-110377428D01*
X129895196Y-110401227D01*
X129898796Y-110425495D01*
X129900000Y-110449999D01*
X129900000Y-111100001D01*
X129898796Y-111124505D01*
X129895196Y-111148773D01*
X129889235Y-111172572D01*
X129880970Y-111195671D01*
X129870480Y-111217850D01*
X129857868Y-111238893D01*
X129843253Y-111258599D01*
X129826777Y-111276777D01*
X129808599Y-111293253D01*
X129788893Y-111307868D01*
X129767850Y-111320480D01*
X129745671Y-111330970D01*
X129722572Y-111339235D01*
X129698773Y-111345196D01*
X129674505Y-111348796D01*
X129650001Y-111350000D01*
X128749999Y-111350000D01*
X128725495Y-111348796D01*
X128701227Y-111345196D01*
X128677428Y-111339235D01*
X128654329Y-111330970D01*
X128632150Y-111320480D01*
X128611107Y-111307868D01*
X128591401Y-111293253D01*
X128573223Y-111276777D01*
X128556747Y-111258599D01*
X128542132Y-111238893D01*
X128529520Y-111217850D01*
X128519030Y-111195671D01*
X128510765Y-111172572D01*
X128504804Y-111148773D01*
X128501204Y-111124505D01*
X128500000Y-111100001D01*
X128500000Y-110449999D01*
X128501204Y-110425495D01*
X128504804Y-110401227D01*
X128510765Y-110377428D01*
X128519030Y-110354329D01*
X128529520Y-110332150D01*
X128542132Y-110311107D01*
X128556747Y-110291401D01*
X128573223Y-110273223D01*
X128591401Y-110256747D01*
X128611107Y-110242132D01*
X128632150Y-110229520D01*
X128654329Y-110219030D01*
X128677428Y-110210765D01*
X128701227Y-110204804D01*
X128725495Y-110201204D01*
X128749999Y-110200000D01*
X129650001Y-110200000D01*
X129674505Y-110201204D01*
G37*
%TD.AperFunction*%
%TD*%
D27*
%TO.P,R1,2*%
%TO.N,Net-(R1-Pad2)*%
X112630000Y-114476000D03*
%TO.P,R1,1*%
%TO.N,+3V3*%
X112630000Y-111076000D03*
%TD*%
D28*
%TO.P,Q11,1*%
%TO.N,Net-(Q11-Pad1)*%
X89340000Y-98670000D03*
%TO.P,Q11,2*%
%TO.N,+5V*%
X87440000Y-98670000D03*
%TO.P,Q11,3*%
%TO.N,Net-(K5-Pad3)*%
X88390000Y-96170000D03*
%TD*%
D29*
%TO.P,Q4,1*%
%TO.N,+3V3*%
X103356000Y-86691000D03*
%TO.P,Q4,2*%
%TO.N,Net-(Q4-Pad2)*%
X103356000Y-88591000D03*
%TO.P,Q4,3*%
%TO.N,Net-(Q4-Pad3)*%
X100856000Y-87641000D03*
%TD*%
D28*
%TO.P,Q9,1*%
%TO.N,Net-(Q4-Pad3)*%
X89340000Y-87367000D03*
%TO.P,Q9,2*%
%TO.N,+5V*%
X87440000Y-87367000D03*
%TO.P,Q9,3*%
%TO.N,Net-(K3-Pad3)*%
X88390000Y-84867000D03*
%TD*%
D29*
%TO.P,Q6,1*%
%TO.N,+3V3*%
X103356000Y-96978000D03*
%TO.P,Q6,2*%
%TO.N,Net-(Q6-Pad2)*%
X103356000Y-98878000D03*
%TO.P,Q6,3*%
%TO.N,Net-(Q11-Pad1)*%
X100856000Y-97928000D03*
%TD*%
%TO.P,Q2,1*%
%TO.N,+3V3*%
X103356000Y-76404000D03*
%TO.P,Q2,2*%
%TO.N,Net-(Q2-Pad2)*%
X103356000Y-78304000D03*
%TO.P,Q2,3*%
%TO.N,Net-(Q2-Pad3)*%
X100856000Y-77354000D03*
%TD*%
%TA.AperFunction,SMDPad,CuDef*%
D18*
%TO.P,R9,1*%
%TO.N,+3V3*%
G36*
X120736505Y-98107204D02*
G01*
X120760773Y-98110804D01*
X120784572Y-98116765D01*
X120807671Y-98125030D01*
X120829850Y-98135520D01*
X120850893Y-98148132D01*
X120870599Y-98162747D01*
X120888777Y-98179223D01*
X120905253Y-98197401D01*
X120919868Y-98217107D01*
X120932480Y-98238150D01*
X120942970Y-98260329D01*
X120951235Y-98283428D01*
X120957196Y-98307227D01*
X120960796Y-98331495D01*
X120962000Y-98355999D01*
X120962000Y-99256001D01*
X120960796Y-99280505D01*
X120957196Y-99304773D01*
X120951235Y-99328572D01*
X120942970Y-99351671D01*
X120932480Y-99373850D01*
X120919868Y-99394893D01*
X120905253Y-99414599D01*
X120888777Y-99432777D01*
X120870599Y-99449253D01*
X120850893Y-99463868D01*
X120829850Y-99476480D01*
X120807671Y-99486970D01*
X120784572Y-99495235D01*
X120760773Y-99501196D01*
X120736505Y-99504796D01*
X120712001Y-99506000D01*
X120061999Y-99506000D01*
X120037495Y-99504796D01*
X120013227Y-99501196D01*
X119989428Y-99495235D01*
X119966329Y-99486970D01*
X119944150Y-99476480D01*
X119923107Y-99463868D01*
X119903401Y-99449253D01*
X119885223Y-99432777D01*
X119868747Y-99414599D01*
X119854132Y-99394893D01*
X119841520Y-99373850D01*
X119831030Y-99351671D01*
X119822765Y-99328572D01*
X119816804Y-99304773D01*
X119813204Y-99280505D01*
X119812000Y-99256001D01*
X119812000Y-98355999D01*
X119813204Y-98331495D01*
X119816804Y-98307227D01*
X119822765Y-98283428D01*
X119831030Y-98260329D01*
X119841520Y-98238150D01*
X119854132Y-98217107D01*
X119868747Y-98197401D01*
X119885223Y-98179223D01*
X119903401Y-98162747D01*
X119923107Y-98148132D01*
X119944150Y-98135520D01*
X119966329Y-98125030D01*
X119989428Y-98116765D01*
X120013227Y-98110804D01*
X120037495Y-98107204D01*
X120061999Y-98106000D01*
X120712001Y-98106000D01*
X120736505Y-98107204D01*
G37*
%TD.AperFunction*%
%TA.AperFunction,SMDPad,CuDef*%
%TO.P,R9,2*%
%TO.N,Net-(C1-Pad1)*%
G36*
X122786505Y-98107204D02*
G01*
X122810773Y-98110804D01*
X122834572Y-98116765D01*
X122857671Y-98125030D01*
X122879850Y-98135520D01*
X122900893Y-98148132D01*
X122920599Y-98162747D01*
X122938777Y-98179223D01*
X122955253Y-98197401D01*
X122969868Y-98217107D01*
X122982480Y-98238150D01*
X122992970Y-98260329D01*
X123001235Y-98283428D01*
X123007196Y-98307227D01*
X123010796Y-98331495D01*
X123012000Y-98355999D01*
X123012000Y-99256001D01*
X123010796Y-99280505D01*
X123007196Y-99304773D01*
X123001235Y-99328572D01*
X122992970Y-99351671D01*
X122982480Y-99373850D01*
X122969868Y-99394893D01*
X122955253Y-99414599D01*
X122938777Y-99432777D01*
X122920599Y-99449253D01*
X122900893Y-99463868D01*
X122879850Y-99476480D01*
X122857671Y-99486970D01*
X122834572Y-99495235D01*
X122810773Y-99501196D01*
X122786505Y-99504796D01*
X122762001Y-99506000D01*
X122111999Y-99506000D01*
X122087495Y-99504796D01*
X122063227Y-99501196D01*
X122039428Y-99495235D01*
X122016329Y-99486970D01*
X121994150Y-99476480D01*
X121973107Y-99463868D01*
X121953401Y-99449253D01*
X121935223Y-99432777D01*
X121918747Y-99414599D01*
X121904132Y-99394893D01*
X121891520Y-99373850D01*
X121881030Y-99351671D01*
X121872765Y-99328572D01*
X121866804Y-99304773D01*
X121863204Y-99280505D01*
X121862000Y-99256001D01*
X121862000Y-98355999D01*
X121863204Y-98331495D01*
X121866804Y-98307227D01*
X121872765Y-98283428D01*
X121881030Y-98260329D01*
X121891520Y-98238150D01*
X121904132Y-98217107D01*
X121918747Y-98197401D01*
X121935223Y-98179223D01*
X121953401Y-98162747D01*
X121973107Y-98148132D01*
X121994150Y-98135520D01*
X122016329Y-98125030D01*
X122039428Y-98116765D01*
X122063227Y-98110804D01*
X122087495Y-98107204D01*
X122111999Y-98106000D01*
X122762001Y-98106000D01*
X122786505Y-98107204D01*
G37*
%TD.AperFunction*%
%TD*%
D29*
%TO.P,Q3,1*%
%TO.N,+3V3*%
X103356000Y-81547500D03*
%TO.P,Q3,2*%
%TO.N,Net-(Q3-Pad2)*%
X103356000Y-83447500D03*
%TO.P,Q3,3*%
%TO.N,Net-(Q3-Pad3)*%
X100856000Y-82497500D03*
%TD*%
%TA.AperFunction,SMDPad,CuDef*%
D18*
%TO.P,R11,1*%
%TO.N,R2*%
G36*
X106898505Y-80454204D02*
G01*
X106922773Y-80457804D01*
X106946572Y-80463765D01*
X106969671Y-80472030D01*
X106991850Y-80482520D01*
X107012893Y-80495132D01*
X107032599Y-80509747D01*
X107050777Y-80526223D01*
X107067253Y-80544401D01*
X107081868Y-80564107D01*
X107094480Y-80585150D01*
X107104970Y-80607329D01*
X107113235Y-80630428D01*
X107119196Y-80654227D01*
X107122796Y-80678495D01*
X107124000Y-80702999D01*
X107124000Y-81353001D01*
X107122796Y-81377505D01*
X107119196Y-81401773D01*
X107113235Y-81425572D01*
X107104970Y-81448671D01*
X107094480Y-81470850D01*
X107081868Y-81491893D01*
X107067253Y-81511599D01*
X107050777Y-81529777D01*
X107032599Y-81546253D01*
X107012893Y-81560868D01*
X106991850Y-81573480D01*
X106969671Y-81583970D01*
X106946572Y-81592235D01*
X106922773Y-81598196D01*
X106898505Y-81601796D01*
X106874001Y-81603000D01*
X105973999Y-81603000D01*
X105949495Y-81601796D01*
X105925227Y-81598196D01*
X105901428Y-81592235D01*
X105878329Y-81583970D01*
X105856150Y-81573480D01*
X105835107Y-81560868D01*
X105815401Y-81546253D01*
X105797223Y-81529777D01*
X105780747Y-81511599D01*
X105766132Y-81491893D01*
X105753520Y-81470850D01*
X105743030Y-81448671D01*
X105734765Y-81425572D01*
X105728804Y-81401773D01*
X105725204Y-81377505D01*
X105724000Y-81353001D01*
X105724000Y-80702999D01*
X105725204Y-80678495D01*
X105728804Y-80654227D01*
X105734765Y-80630428D01*
X105743030Y-80607329D01*
X105753520Y-80585150D01*
X105766132Y-80564107D01*
X105780747Y-80544401D01*
X105797223Y-80526223D01*
X105815401Y-80509747D01*
X105835107Y-80495132D01*
X105856150Y-80482520D01*
X105878329Y-80472030D01*
X105901428Y-80463765D01*
X105925227Y-80457804D01*
X105949495Y-80454204D01*
X105973999Y-80453000D01*
X106874001Y-80453000D01*
X106898505Y-80454204D01*
G37*
%TD.AperFunction*%
%TA.AperFunction,SMDPad,CuDef*%
%TO.P,R11,2*%
%TO.N,Net-(Q3-Pad2)*%
G36*
X106898505Y-82504204D02*
G01*
X106922773Y-82507804D01*
X106946572Y-82513765D01*
X106969671Y-82522030D01*
X106991850Y-82532520D01*
X107012893Y-82545132D01*
X107032599Y-82559747D01*
X107050777Y-82576223D01*
X107067253Y-82594401D01*
X107081868Y-82614107D01*
X107094480Y-82635150D01*
X107104970Y-82657329D01*
X107113235Y-82680428D01*
X107119196Y-82704227D01*
X107122796Y-82728495D01*
X107124000Y-82752999D01*
X107124000Y-83403001D01*
X107122796Y-83427505D01*
X107119196Y-83451773D01*
X107113235Y-83475572D01*
X107104970Y-83498671D01*
X107094480Y-83520850D01*
X107081868Y-83541893D01*
X107067253Y-83561599D01*
X107050777Y-83579777D01*
X107032599Y-83596253D01*
X107012893Y-83610868D01*
X106991850Y-83623480D01*
X106969671Y-83633970D01*
X106946572Y-83642235D01*
X106922773Y-83648196D01*
X106898505Y-83651796D01*
X106874001Y-83653000D01*
X105973999Y-83653000D01*
X105949495Y-83651796D01*
X105925227Y-83648196D01*
X105901428Y-83642235D01*
X105878329Y-83633970D01*
X105856150Y-83623480D01*
X105835107Y-83610868D01*
X105815401Y-83596253D01*
X105797223Y-83579777D01*
X105780747Y-83561599D01*
X105766132Y-83541893D01*
X105753520Y-83520850D01*
X105743030Y-83498671D01*
X105734765Y-83475572D01*
X105728804Y-83451773D01*
X105725204Y-83427505D01*
X105724000Y-83403001D01*
X105724000Y-82752999D01*
X105725204Y-82728495D01*
X105728804Y-82704227D01*
X105734765Y-82680428D01*
X105743030Y-82657329D01*
X105753520Y-82635150D01*
X105766132Y-82614107D01*
X105780747Y-82594401D01*
X105797223Y-82576223D01*
X105815401Y-82559747D01*
X105835107Y-82545132D01*
X105856150Y-82532520D01*
X105878329Y-82522030D01*
X105901428Y-82513765D01*
X105925227Y-82507804D01*
X105949495Y-82504204D01*
X105973999Y-82503000D01*
X106874001Y-82503000D01*
X106898505Y-82504204D01*
G37*
%TD.AperFunction*%
%TD*%
%TA.AperFunction,SMDPad,CuDef*%
%TO.P,R10,1*%
%TO.N,R1*%
G36*
X106898505Y-75247204D02*
G01*
X106922773Y-75250804D01*
X106946572Y-75256765D01*
X106969671Y-75265030D01*
X106991850Y-75275520D01*
X107012893Y-75288132D01*
X107032599Y-75302747D01*
X107050777Y-75319223D01*
X107067253Y-75337401D01*
X107081868Y-75357107D01*
X107094480Y-75378150D01*
X107104970Y-75400329D01*
X107113235Y-75423428D01*
X107119196Y-75447227D01*
X107122796Y-75471495D01*
X107124000Y-75495999D01*
X107124000Y-76146001D01*
X107122796Y-76170505D01*
X107119196Y-76194773D01*
X107113235Y-76218572D01*
X107104970Y-76241671D01*
X107094480Y-76263850D01*
X107081868Y-76284893D01*
X107067253Y-76304599D01*
X107050777Y-76322777D01*
X107032599Y-76339253D01*
X107012893Y-76353868D01*
X106991850Y-76366480D01*
X106969671Y-76376970D01*
X106946572Y-76385235D01*
X106922773Y-76391196D01*
X106898505Y-76394796D01*
X106874001Y-76396000D01*
X105973999Y-76396000D01*
X105949495Y-76394796D01*
X105925227Y-76391196D01*
X105901428Y-76385235D01*
X105878329Y-76376970D01*
X105856150Y-76366480D01*
X105835107Y-76353868D01*
X105815401Y-76339253D01*
X105797223Y-76322777D01*
X105780747Y-76304599D01*
X105766132Y-76284893D01*
X105753520Y-76263850D01*
X105743030Y-76241671D01*
X105734765Y-76218572D01*
X105728804Y-76194773D01*
X105725204Y-76170505D01*
X105724000Y-76146001D01*
X105724000Y-75495999D01*
X105725204Y-75471495D01*
X105728804Y-75447227D01*
X105734765Y-75423428D01*
X105743030Y-75400329D01*
X105753520Y-75378150D01*
X105766132Y-75357107D01*
X105780747Y-75337401D01*
X105797223Y-75319223D01*
X105815401Y-75302747D01*
X105835107Y-75288132D01*
X105856150Y-75275520D01*
X105878329Y-75265030D01*
X105901428Y-75256765D01*
X105925227Y-75250804D01*
X105949495Y-75247204D01*
X105973999Y-75246000D01*
X106874001Y-75246000D01*
X106898505Y-75247204D01*
G37*
%TD.AperFunction*%
%TA.AperFunction,SMDPad,CuDef*%
%TO.P,R10,2*%
%TO.N,Net-(Q2-Pad2)*%
G36*
X106898505Y-77297204D02*
G01*
X106922773Y-77300804D01*
X106946572Y-77306765D01*
X106969671Y-77315030D01*
X106991850Y-77325520D01*
X107012893Y-77338132D01*
X107032599Y-77352747D01*
X107050777Y-77369223D01*
X107067253Y-77387401D01*
X107081868Y-77407107D01*
X107094480Y-77428150D01*
X107104970Y-77450329D01*
X107113235Y-77473428D01*
X107119196Y-77497227D01*
X107122796Y-77521495D01*
X107124000Y-77545999D01*
X107124000Y-78196001D01*
X107122796Y-78220505D01*
X107119196Y-78244773D01*
X107113235Y-78268572D01*
X107104970Y-78291671D01*
X107094480Y-78313850D01*
X107081868Y-78334893D01*
X107067253Y-78354599D01*
X107050777Y-78372777D01*
X107032599Y-78389253D01*
X107012893Y-78403868D01*
X106991850Y-78416480D01*
X106969671Y-78426970D01*
X106946572Y-78435235D01*
X106922773Y-78441196D01*
X106898505Y-78444796D01*
X106874001Y-78446000D01*
X105973999Y-78446000D01*
X105949495Y-78444796D01*
X105925227Y-78441196D01*
X105901428Y-78435235D01*
X105878329Y-78426970D01*
X105856150Y-78416480D01*
X105835107Y-78403868D01*
X105815401Y-78389253D01*
X105797223Y-78372777D01*
X105780747Y-78354599D01*
X105766132Y-78334893D01*
X105753520Y-78313850D01*
X105743030Y-78291671D01*
X105734765Y-78268572D01*
X105728804Y-78244773D01*
X105725204Y-78220505D01*
X105724000Y-78196001D01*
X105724000Y-77545999D01*
X105725204Y-77521495D01*
X105728804Y-77497227D01*
X105734765Y-77473428D01*
X105743030Y-77450329D01*
X105753520Y-77428150D01*
X105766132Y-77407107D01*
X105780747Y-77387401D01*
X105797223Y-77369223D01*
X105815401Y-77352747D01*
X105835107Y-77338132D01*
X105856150Y-77325520D01*
X105878329Y-77315030D01*
X105901428Y-77306765D01*
X105925227Y-77300804D01*
X105949495Y-77297204D01*
X105973999Y-77296000D01*
X106874001Y-77296000D01*
X106898505Y-77297204D01*
G37*
%TD.AperFunction*%
%TD*%
D30*
%TO.P,U3,2*%
%TO.N,+3V3*%
X113028000Y-86346000D03*
D31*
X113028000Y-80046000D03*
%TO.P,U3,3*%
%TO.N,+5V*%
X115328000Y-80046000D03*
%TO.P,U3,1*%
%TO.N,GND*%
X110728000Y-80046000D03*
%TD*%
D28*
%TO.P,Q8,1*%
%TO.N,Net-(Q3-Pad3)*%
X89340000Y-81715500D03*
%TO.P,Q8,2*%
%TO.N,+5V*%
X87440000Y-81715500D03*
%TO.P,Q8,3*%
%TO.N,Net-(K2-Pad3)*%
X88390000Y-79215500D03*
%TD*%
D29*
%TO.P,Q5,1*%
%TO.N,+3V3*%
X103356000Y-91834500D03*
%TO.P,Q5,2*%
%TO.N,Net-(Q5-Pad2)*%
X103356000Y-93734500D03*
%TO.P,Q5,3*%
%TO.N,Net-(Q10-Pad1)*%
X100856000Y-92784500D03*
%TD*%
%TA.AperFunction,SMDPad,CuDef*%
D18*
%TO.P,R14,1*%
%TO.N,Net-(Q6-Pad2)*%
G36*
X106898505Y-98125204D02*
G01*
X106922773Y-98128804D01*
X106946572Y-98134765D01*
X106969671Y-98143030D01*
X106991850Y-98153520D01*
X107012893Y-98166132D01*
X107032599Y-98180747D01*
X107050777Y-98197223D01*
X107067253Y-98215401D01*
X107081868Y-98235107D01*
X107094480Y-98256150D01*
X107104970Y-98278329D01*
X107113235Y-98301428D01*
X107119196Y-98325227D01*
X107122796Y-98349495D01*
X107124000Y-98373999D01*
X107124000Y-99024001D01*
X107122796Y-99048505D01*
X107119196Y-99072773D01*
X107113235Y-99096572D01*
X107104970Y-99119671D01*
X107094480Y-99141850D01*
X107081868Y-99162893D01*
X107067253Y-99182599D01*
X107050777Y-99200777D01*
X107032599Y-99217253D01*
X107012893Y-99231868D01*
X106991850Y-99244480D01*
X106969671Y-99254970D01*
X106946572Y-99263235D01*
X106922773Y-99269196D01*
X106898505Y-99272796D01*
X106874001Y-99274000D01*
X105973999Y-99274000D01*
X105949495Y-99272796D01*
X105925227Y-99269196D01*
X105901428Y-99263235D01*
X105878329Y-99254970D01*
X105856150Y-99244480D01*
X105835107Y-99231868D01*
X105815401Y-99217253D01*
X105797223Y-99200777D01*
X105780747Y-99182599D01*
X105766132Y-99162893D01*
X105753520Y-99141850D01*
X105743030Y-99119671D01*
X105734765Y-99096572D01*
X105728804Y-99072773D01*
X105725204Y-99048505D01*
X105724000Y-99024001D01*
X105724000Y-98373999D01*
X105725204Y-98349495D01*
X105728804Y-98325227D01*
X105734765Y-98301428D01*
X105743030Y-98278329D01*
X105753520Y-98256150D01*
X105766132Y-98235107D01*
X105780747Y-98215401D01*
X105797223Y-98197223D01*
X105815401Y-98180747D01*
X105835107Y-98166132D01*
X105856150Y-98153520D01*
X105878329Y-98143030D01*
X105901428Y-98134765D01*
X105925227Y-98128804D01*
X105949495Y-98125204D01*
X105973999Y-98124000D01*
X106874001Y-98124000D01*
X106898505Y-98125204D01*
G37*
%TD.AperFunction*%
%TA.AperFunction,SMDPad,CuDef*%
%TO.P,R14,2*%
%TO.N,R5*%
G36*
X106898505Y-96075204D02*
G01*
X106922773Y-96078804D01*
X106946572Y-96084765D01*
X106969671Y-96093030D01*
X106991850Y-96103520D01*
X107012893Y-96116132D01*
X107032599Y-96130747D01*
X107050777Y-96147223D01*
X107067253Y-96165401D01*
X107081868Y-96185107D01*
X107094480Y-96206150D01*
X107104970Y-96228329D01*
X107113235Y-96251428D01*
X107119196Y-96275227D01*
X107122796Y-96299495D01*
X107124000Y-96323999D01*
X107124000Y-96974001D01*
X107122796Y-96998505D01*
X107119196Y-97022773D01*
X107113235Y-97046572D01*
X107104970Y-97069671D01*
X107094480Y-97091850D01*
X107081868Y-97112893D01*
X107067253Y-97132599D01*
X107050777Y-97150777D01*
X107032599Y-97167253D01*
X107012893Y-97181868D01*
X106991850Y-97194480D01*
X106969671Y-97204970D01*
X106946572Y-97213235D01*
X106922773Y-97219196D01*
X106898505Y-97222796D01*
X106874001Y-97224000D01*
X105973999Y-97224000D01*
X105949495Y-97222796D01*
X105925227Y-97219196D01*
X105901428Y-97213235D01*
X105878329Y-97204970D01*
X105856150Y-97194480D01*
X105835107Y-97181868D01*
X105815401Y-97167253D01*
X105797223Y-97150777D01*
X105780747Y-97132599D01*
X105766132Y-97112893D01*
X105753520Y-97091850D01*
X105743030Y-97069671D01*
X105734765Y-97046572D01*
X105728804Y-97022773D01*
X105725204Y-96998505D01*
X105724000Y-96974001D01*
X105724000Y-96323999D01*
X105725204Y-96299495D01*
X105728804Y-96275227D01*
X105734765Y-96251428D01*
X105743030Y-96228329D01*
X105753520Y-96206150D01*
X105766132Y-96185107D01*
X105780747Y-96165401D01*
X105797223Y-96147223D01*
X105815401Y-96130747D01*
X105835107Y-96116132D01*
X105856150Y-96103520D01*
X105878329Y-96093030D01*
X105901428Y-96084765D01*
X105925227Y-96078804D01*
X105949495Y-96075204D01*
X105973999Y-96074000D01*
X106874001Y-96074000D01*
X106898505Y-96075204D01*
G37*
%TD.AperFunction*%
%TD*%
D28*
%TO.P,Q10,1*%
%TO.N,Net-(Q10-Pad1)*%
X89340000Y-93018500D03*
%TO.P,Q10,2*%
%TO.N,+5V*%
X87440000Y-93018500D03*
%TO.P,Q10,3*%
%TO.N,Net-(K4-Pad3)*%
X88390000Y-90518500D03*
%TD*%
%TA.AperFunction,SMDPad,CuDef*%
D18*
%TO.P,C1,1*%
%TO.N,Net-(C1-Pad1)*%
G36*
X120736505Y-101155204D02*
G01*
X120760773Y-101158804D01*
X120784572Y-101164765D01*
X120807671Y-101173030D01*
X120829850Y-101183520D01*
X120850893Y-101196132D01*
X120870599Y-101210747D01*
X120888777Y-101227223D01*
X120905253Y-101245401D01*
X120919868Y-101265107D01*
X120932480Y-101286150D01*
X120942970Y-101308329D01*
X120951235Y-101331428D01*
X120957196Y-101355227D01*
X120960796Y-101379495D01*
X120962000Y-101403999D01*
X120962000Y-102304001D01*
X120960796Y-102328505D01*
X120957196Y-102352773D01*
X120951235Y-102376572D01*
X120942970Y-102399671D01*
X120932480Y-102421850D01*
X120919868Y-102442893D01*
X120905253Y-102462599D01*
X120888777Y-102480777D01*
X120870599Y-102497253D01*
X120850893Y-102511868D01*
X120829850Y-102524480D01*
X120807671Y-102534970D01*
X120784572Y-102543235D01*
X120760773Y-102549196D01*
X120736505Y-102552796D01*
X120712001Y-102554000D01*
X120061999Y-102554000D01*
X120037495Y-102552796D01*
X120013227Y-102549196D01*
X119989428Y-102543235D01*
X119966329Y-102534970D01*
X119944150Y-102524480D01*
X119923107Y-102511868D01*
X119903401Y-102497253D01*
X119885223Y-102480777D01*
X119868747Y-102462599D01*
X119854132Y-102442893D01*
X119841520Y-102421850D01*
X119831030Y-102399671D01*
X119822765Y-102376572D01*
X119816804Y-102352773D01*
X119813204Y-102328505D01*
X119812000Y-102304001D01*
X119812000Y-101403999D01*
X119813204Y-101379495D01*
X119816804Y-101355227D01*
X119822765Y-101331428D01*
X119831030Y-101308329D01*
X119841520Y-101286150D01*
X119854132Y-101265107D01*
X119868747Y-101245401D01*
X119885223Y-101227223D01*
X119903401Y-101210747D01*
X119923107Y-101196132D01*
X119944150Y-101183520D01*
X119966329Y-101173030D01*
X119989428Y-101164765D01*
X120013227Y-101158804D01*
X120037495Y-101155204D01*
X120061999Y-101154000D01*
X120712001Y-101154000D01*
X120736505Y-101155204D01*
G37*
%TD.AperFunction*%
%TA.AperFunction,SMDPad,CuDef*%
%TO.P,C1,2*%
%TO.N,GND*%
G36*
X122786505Y-101155204D02*
G01*
X122810773Y-101158804D01*
X122834572Y-101164765D01*
X122857671Y-101173030D01*
X122879850Y-101183520D01*
X122900893Y-101196132D01*
X122920599Y-101210747D01*
X122938777Y-101227223D01*
X122955253Y-101245401D01*
X122969868Y-101265107D01*
X122982480Y-101286150D01*
X122992970Y-101308329D01*
X123001235Y-101331428D01*
X123007196Y-101355227D01*
X123010796Y-101379495D01*
X123012000Y-101403999D01*
X123012000Y-102304001D01*
X123010796Y-102328505D01*
X123007196Y-102352773D01*
X123001235Y-102376572D01*
X122992970Y-102399671D01*
X122982480Y-102421850D01*
X122969868Y-102442893D01*
X122955253Y-102462599D01*
X122938777Y-102480777D01*
X122920599Y-102497253D01*
X122900893Y-102511868D01*
X122879850Y-102524480D01*
X122857671Y-102534970D01*
X122834572Y-102543235D01*
X122810773Y-102549196D01*
X122786505Y-102552796D01*
X122762001Y-102554000D01*
X122111999Y-102554000D01*
X122087495Y-102552796D01*
X122063227Y-102549196D01*
X122039428Y-102543235D01*
X122016329Y-102534970D01*
X121994150Y-102524480D01*
X121973107Y-102511868D01*
X121953401Y-102497253D01*
X121935223Y-102480777D01*
X121918747Y-102462599D01*
X121904132Y-102442893D01*
X121891520Y-102421850D01*
X121881030Y-102399671D01*
X121872765Y-102376572D01*
X121866804Y-102352773D01*
X121863204Y-102328505D01*
X121862000Y-102304001D01*
X121862000Y-101403999D01*
X121863204Y-101379495D01*
X121866804Y-101355227D01*
X121872765Y-101331428D01*
X121881030Y-101308329D01*
X121891520Y-101286150D01*
X121904132Y-101265107D01*
X121918747Y-101245401D01*
X121935223Y-101227223D01*
X121953401Y-101210747D01*
X121973107Y-101196132D01*
X121994150Y-101183520D01*
X122016329Y-101173030D01*
X122039428Y-101164765D01*
X122063227Y-101158804D01*
X122087495Y-101155204D01*
X122111999Y-101154000D01*
X122762001Y-101154000D01*
X122786505Y-101155204D01*
G37*
%TD.AperFunction*%
%TD*%
%TA.AperFunction,SMDPad,CuDef*%
%TO.P,R12,1*%
%TO.N,R3*%
G36*
X106898505Y-85661204D02*
G01*
X106922773Y-85664804D01*
X106946572Y-85670765D01*
X106969671Y-85679030D01*
X106991850Y-85689520D01*
X107012893Y-85702132D01*
X107032599Y-85716747D01*
X107050777Y-85733223D01*
X107067253Y-85751401D01*
X107081868Y-85771107D01*
X107094480Y-85792150D01*
X107104970Y-85814329D01*
X107113235Y-85837428D01*
X107119196Y-85861227D01*
X107122796Y-85885495D01*
X107124000Y-85909999D01*
X107124000Y-86560001D01*
X107122796Y-86584505D01*
X107119196Y-86608773D01*
X107113235Y-86632572D01*
X107104970Y-86655671D01*
X107094480Y-86677850D01*
X107081868Y-86698893D01*
X107067253Y-86718599D01*
X107050777Y-86736777D01*
X107032599Y-86753253D01*
X107012893Y-86767868D01*
X106991850Y-86780480D01*
X106969671Y-86790970D01*
X106946572Y-86799235D01*
X106922773Y-86805196D01*
X106898505Y-86808796D01*
X106874001Y-86810000D01*
X105973999Y-86810000D01*
X105949495Y-86808796D01*
X105925227Y-86805196D01*
X105901428Y-86799235D01*
X105878329Y-86790970D01*
X105856150Y-86780480D01*
X105835107Y-86767868D01*
X105815401Y-86753253D01*
X105797223Y-86736777D01*
X105780747Y-86718599D01*
X105766132Y-86698893D01*
X105753520Y-86677850D01*
X105743030Y-86655671D01*
X105734765Y-86632572D01*
X105728804Y-86608773D01*
X105725204Y-86584505D01*
X105724000Y-86560001D01*
X105724000Y-85909999D01*
X105725204Y-85885495D01*
X105728804Y-85861227D01*
X105734765Y-85837428D01*
X105743030Y-85814329D01*
X105753520Y-85792150D01*
X105766132Y-85771107D01*
X105780747Y-85751401D01*
X105797223Y-85733223D01*
X105815401Y-85716747D01*
X105835107Y-85702132D01*
X105856150Y-85689520D01*
X105878329Y-85679030D01*
X105901428Y-85670765D01*
X105925227Y-85664804D01*
X105949495Y-85661204D01*
X105973999Y-85660000D01*
X106874001Y-85660000D01*
X106898505Y-85661204D01*
G37*
%TD.AperFunction*%
%TA.AperFunction,SMDPad,CuDef*%
%TO.P,R12,2*%
%TO.N,Net-(Q4-Pad2)*%
G36*
X106898505Y-87711204D02*
G01*
X106922773Y-87714804D01*
X106946572Y-87720765D01*
X106969671Y-87729030D01*
X106991850Y-87739520D01*
X107012893Y-87752132D01*
X107032599Y-87766747D01*
X107050777Y-87783223D01*
X107067253Y-87801401D01*
X107081868Y-87821107D01*
X107094480Y-87842150D01*
X107104970Y-87864329D01*
X107113235Y-87887428D01*
X107119196Y-87911227D01*
X107122796Y-87935495D01*
X107124000Y-87959999D01*
X107124000Y-88610001D01*
X107122796Y-88634505D01*
X107119196Y-88658773D01*
X107113235Y-88682572D01*
X107104970Y-88705671D01*
X107094480Y-88727850D01*
X107081868Y-88748893D01*
X107067253Y-88768599D01*
X107050777Y-88786777D01*
X107032599Y-88803253D01*
X107012893Y-88817868D01*
X106991850Y-88830480D01*
X106969671Y-88840970D01*
X106946572Y-88849235D01*
X106922773Y-88855196D01*
X106898505Y-88858796D01*
X106874001Y-88860000D01*
X105973999Y-88860000D01*
X105949495Y-88858796D01*
X105925227Y-88855196D01*
X105901428Y-88849235D01*
X105878329Y-88840970D01*
X105856150Y-88830480D01*
X105835107Y-88817868D01*
X105815401Y-88803253D01*
X105797223Y-88786777D01*
X105780747Y-88768599D01*
X105766132Y-88748893D01*
X105753520Y-88727850D01*
X105743030Y-88705671D01*
X105734765Y-88682572D01*
X105728804Y-88658773D01*
X105725204Y-88634505D01*
X105724000Y-88610001D01*
X105724000Y-87959999D01*
X105725204Y-87935495D01*
X105728804Y-87911227D01*
X105734765Y-87887428D01*
X105743030Y-87864329D01*
X105753520Y-87842150D01*
X105766132Y-87821107D01*
X105780747Y-87801401D01*
X105797223Y-87783223D01*
X105815401Y-87766747D01*
X105835107Y-87752132D01*
X105856150Y-87739520D01*
X105878329Y-87729030D01*
X105901428Y-87720765D01*
X105925227Y-87714804D01*
X105949495Y-87711204D01*
X105973999Y-87710000D01*
X106874001Y-87710000D01*
X106898505Y-87711204D01*
G37*
%TD.AperFunction*%
%TD*%
D28*
%TO.P,Q7,1*%
%TO.N,Net-(Q2-Pad3)*%
X89340000Y-76064000D03*
%TO.P,Q7,2*%
%TO.N,+5V*%
X87440000Y-76064000D03*
%TO.P,Q7,3*%
%TO.N,Net-(K1-Pad3)*%
X88390000Y-73564000D03*
%TD*%
%TA.AperFunction,SMDPad,CuDef*%
D18*
%TO.P,R13,1*%
%TO.N,R4*%
G36*
X106898505Y-90868204D02*
G01*
X106922773Y-90871804D01*
X106946572Y-90877765D01*
X106969671Y-90886030D01*
X106991850Y-90896520D01*
X107012893Y-90909132D01*
X107032599Y-90923747D01*
X107050777Y-90940223D01*
X107067253Y-90958401D01*
X107081868Y-90978107D01*
X107094480Y-90999150D01*
X107104970Y-91021329D01*
X107113235Y-91044428D01*
X107119196Y-91068227D01*
X107122796Y-91092495D01*
X107124000Y-91116999D01*
X107124000Y-91767001D01*
X107122796Y-91791505D01*
X107119196Y-91815773D01*
X107113235Y-91839572D01*
X107104970Y-91862671D01*
X107094480Y-91884850D01*
X107081868Y-91905893D01*
X107067253Y-91925599D01*
X107050777Y-91943777D01*
X107032599Y-91960253D01*
X107012893Y-91974868D01*
X106991850Y-91987480D01*
X106969671Y-91997970D01*
X106946572Y-92006235D01*
X106922773Y-92012196D01*
X106898505Y-92015796D01*
X106874001Y-92017000D01*
X105973999Y-92017000D01*
X105949495Y-92015796D01*
X105925227Y-92012196D01*
X105901428Y-92006235D01*
X105878329Y-91997970D01*
X105856150Y-91987480D01*
X105835107Y-91974868D01*
X105815401Y-91960253D01*
X105797223Y-91943777D01*
X105780747Y-91925599D01*
X105766132Y-91905893D01*
X105753520Y-91884850D01*
X105743030Y-91862671D01*
X105734765Y-91839572D01*
X105728804Y-91815773D01*
X105725204Y-91791505D01*
X105724000Y-91767001D01*
X105724000Y-91116999D01*
X105725204Y-91092495D01*
X105728804Y-91068227D01*
X105734765Y-91044428D01*
X105743030Y-91021329D01*
X105753520Y-90999150D01*
X105766132Y-90978107D01*
X105780747Y-90958401D01*
X105797223Y-90940223D01*
X105815401Y-90923747D01*
X105835107Y-90909132D01*
X105856150Y-90896520D01*
X105878329Y-90886030D01*
X105901428Y-90877765D01*
X105925227Y-90871804D01*
X105949495Y-90868204D01*
X105973999Y-90867000D01*
X106874001Y-90867000D01*
X106898505Y-90868204D01*
G37*
%TD.AperFunction*%
%TA.AperFunction,SMDPad,CuDef*%
%TO.P,R13,2*%
%TO.N,Net-(Q5-Pad2)*%
G36*
X106898505Y-92918204D02*
G01*
X106922773Y-92921804D01*
X106946572Y-92927765D01*
X106969671Y-92936030D01*
X106991850Y-92946520D01*
X107012893Y-92959132D01*
X107032599Y-92973747D01*
X107050777Y-92990223D01*
X107067253Y-93008401D01*
X107081868Y-93028107D01*
X107094480Y-93049150D01*
X107104970Y-93071329D01*
X107113235Y-93094428D01*
X107119196Y-93118227D01*
X107122796Y-93142495D01*
X107124000Y-93166999D01*
X107124000Y-93817001D01*
X107122796Y-93841505D01*
X107119196Y-93865773D01*
X107113235Y-93889572D01*
X107104970Y-93912671D01*
X107094480Y-93934850D01*
X107081868Y-93955893D01*
X107067253Y-93975599D01*
X107050777Y-93993777D01*
X107032599Y-94010253D01*
X107012893Y-94024868D01*
X106991850Y-94037480D01*
X106969671Y-94047970D01*
X106946572Y-94056235D01*
X106922773Y-94062196D01*
X106898505Y-94065796D01*
X106874001Y-94067000D01*
X105973999Y-94067000D01*
X105949495Y-94065796D01*
X105925227Y-94062196D01*
X105901428Y-94056235D01*
X105878329Y-94047970D01*
X105856150Y-94037480D01*
X105835107Y-94024868D01*
X105815401Y-94010253D01*
X105797223Y-93993777D01*
X105780747Y-93975599D01*
X105766132Y-93955893D01*
X105753520Y-93934850D01*
X105743030Y-93912671D01*
X105734765Y-93889572D01*
X105728804Y-93865773D01*
X105725204Y-93841505D01*
X105724000Y-93817001D01*
X105724000Y-93166999D01*
X105725204Y-93142495D01*
X105728804Y-93118227D01*
X105734765Y-93094428D01*
X105743030Y-93071329D01*
X105753520Y-93049150D01*
X105766132Y-93028107D01*
X105780747Y-93008401D01*
X105797223Y-92990223D01*
X105815401Y-92973747D01*
X105835107Y-92959132D01*
X105856150Y-92946520D01*
X105878329Y-92936030D01*
X105901428Y-92927765D01*
X105925227Y-92921804D01*
X105949495Y-92918204D01*
X105973999Y-92917000D01*
X106874001Y-92917000D01*
X106898505Y-92918204D01*
G37*
%TD.AperFunction*%
%TD*%
D32*
%TO.P,D2,2*%
%TO.N,Net-(D2-Pad2)*%
X132500000Y-112776000D03*
D33*
%TO.P,D2,1*%
%TO.N,Net-(D2-Pad1)*%
X135040000Y-112776000D03*
%TD*%
D10*
%TO.P,JP1,2*%
%TO.N,Net-(J3-Pad3)*%
X131318000Y-100076000D03*
D11*
%TO.P,JP1,1*%
%TO.N,+3V3*%
X133858000Y-100076000D03*
%TD*%
D34*
%TO.N,GND*%
X131424000Y-105176000D03*
%TO.N,+3V3*%
X103356000Y-90328000D03*
X103356000Y-79914000D03*
X103356000Y-74580000D03*
X103356000Y-84994000D03*
X103356000Y-95408000D03*
D35*
X127750000Y-73250000D03*
D34*
%TO.N,Net-(K5-Pad3)*%
X91692000Y-97420000D03*
%TO.N,/TXD*%
X134900000Y-75900000D03*
%TO.N,/RXD*%
X133600000Y-75900000D03*
%TO.N,/FLASH*%
X129000000Y-87500000D03*
D35*
%TO.N,Net-(SW1-Pad2)*%
X119700000Y-75800000D03*
D34*
%TO.N,R1*%
X108710000Y-75830000D03*
%TO.N,R2*%
X108456000Y-81164000D03*
%TO.N,R3*%
X108200000Y-85600000D03*
%TO.N,R4*%
X108400000Y-91400000D03*
%TO.N,R5*%
X126800000Y-91800000D03*
X115062000Y-91694000D03*
X109100000Y-96649000D03*
%TO.N,Net-(D1-Pad2)*%
X135400000Y-103300000D03*
%TO.N,Net-(J2-Pad3)*%
X135365000Y-80835000D03*
%TO.N,Net-(U1-Pad6)*%
X118700000Y-80200000D03*
X117040000Y-90380000D03*
%TO.N,Net-(J2-Pad9)*%
X135300000Y-85200000D03*
%TO.N,Net-(J2-Pad7)*%
X135300000Y-83700000D03*
%TO.N,Net-(J2-Pad5)*%
X135300000Y-82100000D03*
%TO.N,Net-(J2-Pad1)*%
X137500000Y-74700000D03*
%TO.N,Net-(R1-Pad2)*%
X120300000Y-80300000D03*
X120300000Y-87134315D03*
%TO.N,Net-(R8-Pad1)*%
X132700000Y-86200000D03*
X136700000Y-97200000D03*
%TD*%
D36*
%TO.N,GND*%
X107694000Y-72274000D02*
X101542000Y-72274000D01*
X110728000Y-80046000D02*
X110728000Y-75308000D01*
X110728000Y-75308000D02*
X107694000Y-72274000D01*
X101542000Y-72274000D02*
X99700000Y-74116000D01*
X100780000Y-73036000D02*
X99700000Y-74116000D01*
X122740000Y-94260000D02*
X122750000Y-94250000D01*
D37*
X122640000Y-94360000D02*
X122750000Y-94250000D01*
D36*
X122437000Y-104859000D02*
X122750000Y-105172000D01*
X123698000Y-101854000D02*
X124959000Y-100593000D01*
X124959000Y-100593000D02*
X124959000Y-98806000D01*
X122437000Y-101854000D02*
X123698000Y-101854000D01*
X124959000Y-98035000D02*
X124959000Y-98806000D01*
X122750000Y-95826000D02*
X124959000Y-98035000D01*
X122750000Y-94250000D02*
X122750000Y-95826000D01*
X122884081Y-105306081D02*
X122750000Y-105172000D01*
X98493000Y-72909000D02*
X99700000Y-74116000D01*
X94232000Y-72909000D02*
X98493000Y-72909000D01*
X140900000Y-84175000D02*
X140900000Y-76400000D01*
X142660000Y-74640000D02*
X144300000Y-74640000D01*
X140900000Y-76400000D02*
X142660000Y-74640000D01*
D37*
X123012000Y-101854000D02*
X122437000Y-101854000D01*
D36*
X122437000Y-101854000D02*
X122437000Y-104859000D01*
D37*
X131424000Y-104500000D02*
X124959000Y-98035000D01*
X131424000Y-105176000D02*
X131424000Y-104500000D01*
D36*
%TO.N,+3V3*%
X103356000Y-79914000D02*
X103356000Y-79914000D01*
X103356000Y-74580000D02*
X103356000Y-74580000D01*
X103356000Y-86691000D02*
X103356000Y-84994000D01*
X103356000Y-84994000D02*
X103356000Y-84994000D01*
X103356000Y-86691000D02*
X103061000Y-86691000D01*
X103356000Y-81547500D02*
X103251500Y-81547500D01*
X113028000Y-80046000D02*
X113028000Y-86346000D01*
X103356000Y-96978000D02*
X103356000Y-95408000D01*
X103356000Y-95408000D02*
X103356000Y-95408000D01*
X103356000Y-90328000D02*
X103356000Y-90328000D01*
X103356000Y-76404000D02*
X103356000Y-74580000D01*
X103356000Y-81547500D02*
X103356000Y-79914000D01*
X103356000Y-91834500D02*
X103356000Y-90328000D01*
X103764000Y-95000000D02*
X103356000Y-95408000D01*
X111500000Y-95000000D02*
X103764000Y-95000000D01*
X113028000Y-93472000D02*
X111500000Y-95000000D01*
X113028000Y-88096000D02*
X113028000Y-93472000D01*
X113028000Y-86346000D02*
X113028000Y-88096000D01*
D37*
X113028000Y-93472000D02*
X113031000Y-93475000D01*
D36*
X118362000Y-98806000D02*
X113028000Y-93472000D01*
X120387000Y-98806000D02*
X118362000Y-98806000D01*
X136250000Y-73250000D02*
X127750000Y-73250000D01*
X139623000Y-109775000D02*
X138400000Y-109775000D01*
X141224000Y-111376000D02*
X139623000Y-109775000D01*
X141224000Y-112776000D02*
X141224000Y-111376000D01*
X137500000Y-72000000D02*
X136250000Y-73250000D01*
X143600000Y-72000000D02*
X137500000Y-72000000D01*
X141224000Y-112776000D02*
X141224000Y-114224000D01*
X141224000Y-114224000D02*
X141900000Y-114900000D01*
X147500000Y-114700000D02*
X147500000Y-114125000D01*
X147300000Y-114900000D02*
X147500000Y-114700000D01*
X141900000Y-114900000D02*
X147300000Y-114900000D01*
X118362000Y-98806000D02*
X118362000Y-102138000D01*
X128950000Y-108450000D02*
X127950000Y-108450000D01*
X128950000Y-108450000D02*
X136375000Y-108450000D01*
X137700000Y-109775000D02*
X138400000Y-109775000D01*
X133858000Y-105933000D02*
X137700000Y-109775000D01*
X133858000Y-100076000D02*
X133858000Y-105933000D01*
X118362000Y-102489458D02*
X118362000Y-102138000D01*
X112630000Y-108221458D02*
X118362000Y-102489458D01*
X112630000Y-111076000D02*
X112630000Y-108221458D01*
X125324000Y-111076000D02*
X127950000Y-108450000D01*
X112630000Y-111076000D02*
X125324000Y-111076000D01*
%TO.N,LINE*%
X81600000Y-87074000D02*
X81532000Y-87006000D01*
X81600000Y-94122500D02*
X81532000Y-94054500D01*
X81600000Y-101171000D02*
X81532000Y-101103000D01*
X81532000Y-101103000D02*
X81532000Y-94054500D01*
X104900000Y-103666000D02*
X104900000Y-103516000D01*
X81464000Y-90000000D02*
X79925000Y-90000000D01*
X81532000Y-89932000D02*
X81464000Y-90000000D01*
X81532000Y-87006000D02*
X81532000Y-89932000D01*
X81532000Y-89932000D02*
X81532000Y-94054500D01*
X104900000Y-103700000D02*
X104900000Y-103516000D01*
X83200000Y-105000000D02*
X81532000Y-103332000D01*
X103400000Y-105000000D02*
X83200000Y-105000000D01*
X81532000Y-103332000D02*
X81532000Y-101103000D01*
X104884000Y-103516000D02*
X103400000Y-105000000D01*
X104900000Y-103516000D02*
X104884000Y-103516000D01*
X104900000Y-103516000D02*
X104900000Y-106400000D01*
X104900000Y-106400000D02*
X104900000Y-109000000D01*
X104900000Y-106400000D02*
X104800000Y-106500000D01*
X104900000Y-109000000D02*
X104900000Y-112200000D01*
X104900000Y-112200000D02*
X97200000Y-119900000D01*
%TO.N,Net-(K1-Pad3)*%
X89045000Y-72909000D02*
X88390000Y-73564000D01*
X91692000Y-72909000D02*
X89045000Y-72909000D01*
D37*
%TO.N,Net-(Q4-Pad3)*%
X99459000Y-89038000D02*
X100856000Y-87641000D01*
X91011000Y-89038000D02*
X99459000Y-89038000D01*
X89340000Y-87367000D02*
X91011000Y-89038000D01*
D36*
%TO.N,Net-(Q4-Pad2)*%
X106118000Y-88591000D02*
X106424000Y-88285000D01*
X103356000Y-88591000D02*
X106118000Y-88591000D01*
D37*
%TO.N,Net-(Q5-Pad2)*%
X106181500Y-93734500D02*
X106424000Y-93492000D01*
X103356000Y-93734500D02*
X106181500Y-93734500D01*
%TO.N,Net-(Q10-Pad1)*%
X89340000Y-93018500D02*
X89489500Y-93018500D01*
X89340000Y-93018500D02*
X89340000Y-94306000D01*
X89340000Y-94306000D02*
X91184000Y-96150000D01*
X91184000Y-96150000D02*
X97280000Y-96150000D01*
X100645500Y-92784500D02*
X97280000Y-96150000D01*
X100856000Y-92784500D02*
X100645500Y-92784500D01*
D36*
%TO.N,Net-(K2-Pad3)*%
X90950000Y-79215500D02*
X91692000Y-79957500D01*
X88390000Y-79215500D02*
X90950000Y-79215500D01*
%TO.N,Net-(K3-Pad3)*%
X88390000Y-84867000D02*
X90569000Y-84867000D01*
X91692000Y-85990000D02*
X91692000Y-87006000D01*
X90569000Y-84867000D02*
X91692000Y-85990000D01*
%TO.N,Net-(K4-Pad3)*%
X88390000Y-90518500D02*
X90378500Y-90518500D01*
X91692000Y-91832000D02*
X91692000Y-94054500D01*
X90378500Y-90518500D02*
X91692000Y-91832000D01*
%TO.N,Net-(K5-Pad3)*%
X88390000Y-96170000D02*
X89426000Y-96170000D01*
X89426000Y-96170000D02*
X90676000Y-97420000D01*
X90676000Y-97420000D02*
X91692000Y-97420000D01*
D37*
X91692000Y-97420000D02*
X91692000Y-97420000D01*
D36*
%TO.N,+5V*%
X88136000Y-71004000D02*
X89152000Y-71004000D01*
X86866000Y-72274000D02*
X88136000Y-71004000D01*
X89152000Y-71004000D02*
X88898000Y-71004000D01*
X111988000Y-71004000D02*
X89152000Y-71004000D01*
X115100000Y-74116000D02*
X111988000Y-71004000D01*
X115100000Y-79818000D02*
X115328000Y-80046000D01*
X115100000Y-74116000D02*
X115100000Y-79818000D01*
X87440000Y-98670000D02*
X87100000Y-98670000D01*
D37*
X87100000Y-98670000D02*
X86866000Y-98436000D01*
D36*
X86866000Y-76638000D02*
X87440000Y-76064000D01*
X87440000Y-87367000D02*
X86973000Y-87367000D01*
D37*
X86973000Y-87367000D02*
X86866000Y-87260000D01*
X86949500Y-93018500D02*
X86866000Y-93102000D01*
D36*
X87440000Y-93018500D02*
X86949500Y-93018500D01*
D37*
X86909500Y-81715500D02*
X86866000Y-81672000D01*
D36*
X87440000Y-81715500D02*
X86909500Y-81715500D01*
X86866000Y-81672000D02*
X86866000Y-76638000D01*
X86866000Y-87260000D02*
X86866000Y-81672000D01*
X86866000Y-76638000D02*
X86866000Y-72274000D01*
X86866000Y-93102000D02*
X86866000Y-87260000D01*
X86866000Y-98436000D02*
X86866000Y-93102000D01*
D37*
%TO.N,Net-(Q3-Pad3)*%
X90122000Y-82497500D02*
X89340000Y-81715500D01*
X90122000Y-82497500D02*
X100856000Y-82497500D01*
%TO.N,Net-(Q3-Pad2)*%
X106054500Y-83447500D02*
X106424000Y-83078000D01*
X103356000Y-83447500D02*
X106054500Y-83447500D01*
%TO.N,Net-(Q2-Pad3)*%
X89340000Y-76064000D02*
X95990000Y-76064000D01*
X95990000Y-76064000D02*
X97280000Y-77354000D01*
X97280000Y-77354000D02*
X100856000Y-77354000D01*
%TO.N,Net-(Q2-Pad2)*%
X105991000Y-78304000D02*
X106424000Y-77871000D01*
X103356000Y-78304000D02*
X105991000Y-78304000D01*
D38*
%TO.N,/TXD*%
X134900000Y-77200000D02*
X134900000Y-75900000D01*
X131500000Y-80600000D02*
X134900000Y-77200000D01*
X131500000Y-92840000D02*
X131500000Y-80600000D01*
X132910000Y-94250000D02*
X131500000Y-92840000D01*
%TO.N,/RXD*%
X130370000Y-94250000D02*
X130370000Y-78330000D01*
X132800000Y-75900000D02*
X130370000Y-78330000D01*
X133600000Y-75900000D02*
X132800000Y-75900000D01*
D37*
%TO.N,/FLASH*%
X96180000Y-67000000D02*
X103800000Y-67000000D01*
X105106086Y-69293914D02*
X103800000Y-67987828D01*
X103800000Y-67987828D02*
X103800000Y-67000000D01*
X113900000Y-69400000D02*
X105106086Y-69293914D01*
X118600000Y-76600000D02*
X118600000Y-74100000D01*
X126800000Y-78000000D02*
X120000000Y-78000000D01*
X118600000Y-74100000D02*
X113900000Y-69400000D01*
X129000000Y-80200000D02*
X126800000Y-78000000D01*
X120000000Y-78000000D02*
X118600000Y-76600000D01*
X129000000Y-87500000D02*
X129000000Y-80200000D01*
%TO.N,Net-(SW1-Pad2)*%
X107100000Y-67000000D02*
X114720000Y-67000000D01*
X114720000Y-68720000D02*
X114720000Y-67000000D01*
X119700000Y-73700000D02*
X114720000Y-68720000D01*
X119700000Y-75800000D02*
X119700000Y-73700000D01*
D36*
%TO.N,R1*%
X108701000Y-75821000D02*
X108710000Y-75830000D01*
X106424000Y-75821000D02*
X108701000Y-75821000D01*
D37*
%TO.N,R2*%
X108320000Y-81028000D02*
X108456000Y-81164000D01*
X106424000Y-81028000D02*
X108320000Y-81028000D01*
%TO.N,R3*%
X106424000Y-86235000D02*
X107565000Y-86235000D01*
X107565000Y-86235000D02*
X108200000Y-85600000D01*
X108200000Y-85600000D02*
X108200000Y-85600000D01*
%TO.N,R4*%
X107124000Y-91442000D02*
X107166000Y-91400000D01*
X106424000Y-91442000D02*
X107124000Y-91442000D01*
X107166000Y-91400000D02*
X108400000Y-91400000D01*
%TO.N,R5*%
X106424000Y-96649000D02*
X109100000Y-96649000D01*
X115168000Y-91800000D02*
X115062000Y-91694000D01*
X126800000Y-91800000D02*
X115168000Y-91800000D01*
D36*
%TO.N,Net-(C2-Pad2)*%
X76452000Y-79957500D02*
X73912000Y-79957500D01*
X82090000Y-109100000D02*
X83900000Y-109100000D01*
X76440000Y-114750000D02*
X82090000Y-109100000D01*
X76440000Y-115060000D02*
X76440000Y-114750000D01*
X75500000Y-115060000D02*
X76440000Y-115060000D01*
%TO.N,Net-(C2-Pad3)*%
X76400000Y-72961000D02*
X76452000Y-72909000D01*
X76452000Y-72909000D02*
X73912000Y-72909000D01*
X82630000Y-111100000D02*
X83900000Y-111100000D01*
X76400000Y-117600000D02*
X76400000Y-117330000D01*
X76400000Y-117330000D02*
X82630000Y-111100000D01*
X75500000Y-117600000D02*
X76400000Y-117600000D01*
%TO.N,Net-(J3-Pad3)*%
X127830000Y-95452081D02*
X127830000Y-94250000D01*
X129487920Y-97110001D02*
X127830000Y-95452081D01*
X129554082Y-97110001D02*
X129487920Y-97110001D01*
X131318000Y-98873919D02*
X129554082Y-97110001D01*
X131318000Y-100076000D02*
X131318000Y-98873919D01*
D37*
%TO.N,Net-(D1-Pad2)*%
X143764000Y-111376000D02*
X142088000Y-109700000D01*
X143764000Y-112776000D02*
X143764000Y-111376000D01*
X135400000Y-103300000D02*
X135600000Y-103300000D01*
X143676000Y-111376000D02*
X143764000Y-111376000D01*
X135600000Y-103300000D02*
X143676000Y-111376000D01*
%TO.N,Net-(C1-Pad1)*%
X120387000Y-101154000D02*
X120449000Y-101092000D01*
X120387000Y-101854000D02*
X120387000Y-101154000D01*
X122437000Y-98806000D02*
X122437000Y-99813000D01*
X122437000Y-99813000D02*
X121920000Y-100330000D01*
X121920000Y-100330000D02*
X121158000Y-100330000D01*
X120387000Y-101101000D02*
X120387000Y-101854000D01*
X121158000Y-100330000D02*
X120387000Y-101101000D01*
X120387000Y-104995000D02*
X120210000Y-105172000D01*
X120387000Y-101854000D02*
X120387000Y-104995000D01*
D38*
%TO.N,Net-(J2-Pad3)*%
X136135000Y-80835000D02*
X135365000Y-80835000D01*
X137700000Y-82400000D02*
X136135000Y-80835000D01*
X137600000Y-87300000D02*
X137700000Y-82400000D01*
X139800000Y-89500000D02*
X137600000Y-87300000D01*
X142700000Y-99840000D02*
X140640000Y-99840000D01*
X139796666Y-98996666D02*
X139796666Y-96603334D01*
X140640000Y-99840000D02*
X139796666Y-98996666D01*
X139796666Y-96603334D02*
X139796666Y-89500000D01*
X139796666Y-96800000D02*
X139796666Y-96603334D01*
D36*
%TO.N,/M1*%
X73912000Y-87006000D02*
X76452000Y-87006000D01*
X76380000Y-112520000D02*
X81800000Y-107100000D01*
X81800000Y-107100000D02*
X83900000Y-107100000D01*
X75500000Y-112520000D02*
X76380000Y-112520000D01*
%TO.N,/LMP*%
X73912000Y-101103000D02*
X76452000Y-101103000D01*
X73785000Y-100976000D02*
X73912000Y-101103000D01*
X74121000Y-101312000D02*
X73912000Y-101103000D01*
X76452000Y-106488000D02*
X75500000Y-107440000D01*
X76452000Y-101103000D02*
X76452000Y-106488000D01*
%TO.N,/M2*%
X73880500Y-94086000D02*
X73912000Y-94054500D01*
X73912000Y-94054500D02*
X76452000Y-94054500D01*
X76400000Y-94106500D02*
X76452000Y-94054500D01*
X76350000Y-94156500D02*
X76452000Y-94054500D01*
X79517501Y-107282499D02*
X79517501Y-97120001D01*
X79517501Y-97120001D02*
X76452000Y-94054500D01*
X76820000Y-109980000D02*
X79517501Y-107282499D01*
X75500000Y-109980000D02*
X76820000Y-109980000D01*
X73912000Y-90037000D02*
X73875000Y-90000000D01*
X73912000Y-94054500D02*
X73912000Y-90037000D01*
D37*
%TO.N,Net-(Q11-Pad1)*%
X100114000Y-98670000D02*
X100856000Y-97928000D01*
X89340000Y-98670000D02*
X100114000Y-98670000D01*
D36*
%TO.N,Net-(JP2-Pad1)*%
X81600000Y-80025500D02*
X81532000Y-79957500D01*
X81600000Y-72977000D02*
X81532000Y-72909000D01*
X81532000Y-79957500D02*
X81532000Y-72909000D01*
X77875000Y-90000000D02*
X75925000Y-90000000D01*
X80700000Y-80900000D02*
X81532000Y-79957500D01*
X79100000Y-82500000D02*
X80700000Y-80900000D01*
X79100000Y-88075000D02*
X79100000Y-82500000D01*
X77875000Y-89300000D02*
X79100000Y-88075000D01*
X77875000Y-90000000D02*
X77875000Y-89300000D01*
D37*
%TO.N,Net-(Q6-Pad2)*%
X106245000Y-98878000D02*
X106424000Y-98699000D01*
X103356000Y-98878000D02*
X106245000Y-98878000D01*
%TO.N,Net-(D2-Pad2)*%
X132451000Y-112825000D02*
X132500000Y-112776000D01*
D36*
X129200000Y-112825000D02*
X132451000Y-112825000D01*
D37*
%TO.N,Net-(U1-Pad6)*%
X118700000Y-88720000D02*
X117040000Y-90380000D01*
X118700000Y-80200000D02*
X118700000Y-88720000D01*
D36*
%TO.N,Net-(F1-Pad2)*%
X89660000Y-110697056D02*
X86957056Y-113400000D01*
X89660000Y-109000000D02*
X89660000Y-110697056D01*
X83410000Y-113400000D02*
X86957056Y-113400000D01*
X82460000Y-114350000D02*
X83410000Y-113400000D01*
X82460000Y-116200000D02*
X82460000Y-114350000D01*
D38*
%TO.N,Net-(J2-Pad10)*%
X145240000Y-107460000D02*
X145240000Y-104920000D01*
X145240000Y-103717919D02*
X145240000Y-102380000D01*
X145240000Y-104920000D02*
X145240000Y-103717919D01*
X145240000Y-102380000D02*
X145240000Y-99840000D01*
X145240000Y-98502081D02*
X145240000Y-99840000D01*
X145240000Y-97300000D02*
X145240000Y-98502081D01*
D36*
X140900000Y-86800000D02*
X140900000Y-86225000D01*
X141500000Y-87400000D02*
X140900000Y-86800000D01*
X145240000Y-97300000D02*
X145240000Y-96097919D01*
X141500000Y-92357919D02*
X145240000Y-96097919D01*
X141500000Y-87400000D02*
X141500000Y-92357919D01*
X147500000Y-109720000D02*
X145240000Y-107460000D01*
X147500000Y-112075000D02*
X147500000Y-109720000D01*
D38*
%TO.N,Net-(J2-Pad9)*%
X141497919Y-107460000D02*
X142700000Y-107460000D01*
X140960000Y-107460000D02*
X137933332Y-104433332D01*
X142700000Y-107460000D02*
X140960000Y-107460000D01*
X137903333Y-90903333D02*
X135300000Y-88300000D01*
X137903333Y-104433332D02*
X137903333Y-90903333D01*
X135300000Y-88300000D02*
X135300000Y-85200000D01*
%TO.N,Net-(J2-Pad7)*%
X136000000Y-83700000D02*
X136300000Y-84000000D01*
X135300000Y-83700000D02*
X136000000Y-83700000D01*
X141497919Y-104920000D02*
X141477919Y-104900000D01*
X142700000Y-104920000D02*
X141497919Y-104920000D01*
X136300000Y-88200000D02*
X136300000Y-88200002D01*
X136300000Y-84000000D02*
X136300000Y-88200000D01*
X139444999Y-104920000D02*
X141497919Y-104920000D01*
X138524999Y-104000000D02*
X139444999Y-104920000D01*
X138506666Y-90424999D02*
X138506666Y-104000000D01*
X136300000Y-88200000D02*
X138524999Y-90424999D01*
%TO.N,Net-(J2-Pad5)*%
X137000000Y-82900000D02*
X137000000Y-87733336D01*
X136200000Y-82100000D02*
X137000000Y-82900000D01*
X135300000Y-82100000D02*
X136200000Y-82100000D01*
X140180000Y-102380000D02*
X142700000Y-102380000D01*
X139116666Y-101316666D02*
X140180000Y-102380000D01*
X139200000Y-89933336D02*
X139200000Y-90900000D01*
X139193333Y-90900000D02*
X139109999Y-101316666D01*
X137000000Y-87733336D02*
X139200000Y-89933336D01*
X139116666Y-90800000D02*
X139200000Y-90900000D01*
%TO.N,Net-(J2-Pad1)*%
X137500000Y-74700000D02*
X137500000Y-74700000D01*
X137500000Y-80200000D02*
X137500000Y-74700000D01*
X138600000Y-81300000D02*
X137500000Y-80200000D01*
X138600000Y-87400000D02*
X138600000Y-81300000D01*
X140400000Y-89200000D02*
X138600000Y-87400000D01*
X140400000Y-96900000D02*
X140400000Y-89200000D01*
X140800000Y-97300000D02*
X140400000Y-96900000D01*
X142700000Y-97300000D02*
X140800000Y-97300000D01*
D37*
%TO.N,Net-(R1-Pad2)*%
X120300000Y-80300000D02*
X120300000Y-80300000D01*
X120300000Y-87134315D02*
X120300000Y-80300000D01*
X120300000Y-87134315D02*
X120300000Y-87134315D01*
%TO.N,Net-(R6-Pad2)*%
X129900000Y-110775000D02*
X129200000Y-110775000D01*
D36*
X136650000Y-110775000D02*
X129900000Y-110775000D01*
X137700000Y-111825000D02*
X136650000Y-110775000D01*
D37*
X138400000Y-111825000D02*
X137700000Y-111825000D01*
D38*
%TO.N,Net-(R8-Pad1)*%
X136700000Y-96634315D02*
X137300000Y-96034315D01*
X136700000Y-97200000D02*
X136700000Y-96634315D01*
X137300000Y-91500000D02*
X132800000Y-87000000D01*
X137300000Y-96034315D02*
X137300000Y-91500000D01*
X132800000Y-87000000D02*
X132700000Y-86200000D01*
%TD*%
D39*
%TO.N,+3V3*%
G36*
X112823000Y-73963148D02*
G01*
X112823000Y-74340265D01*
X112910504Y-74780176D01*
X113082149Y-75194564D01*
X113331339Y-75567503D01*
X113598000Y-75834164D01*
X113598001Y-78409119D01*
X113313750Y-78411000D01*
X113155000Y-78569750D01*
X113155000Y-79919000D01*
X113175000Y-79919000D01*
X113175000Y-80173000D01*
X113155000Y-80173000D01*
X113155000Y-81522250D01*
X113313750Y-81681000D01*
X113642983Y-81683179D01*
X113777235Y-81846765D01*
X113948843Y-81987600D01*
X114144629Y-82092250D01*
X114357069Y-82156693D01*
X114578000Y-82178453D01*
X116078000Y-82178453D01*
X116298931Y-82156693D01*
X116511371Y-82092250D01*
X116707157Y-81987600D01*
X116878765Y-81846765D01*
X117019600Y-81675157D01*
X117124250Y-81479371D01*
X117188693Y-81266931D01*
X117210453Y-81046000D01*
X117210453Y-80538688D01*
X117231681Y-80645410D01*
X117323000Y-80865872D01*
X117323001Y-88149627D01*
X116537159Y-88935470D01*
X116316694Y-89026790D01*
X116066594Y-89193901D01*
X115853901Y-89406594D01*
X115686790Y-89656694D01*
X115571681Y-89934590D01*
X115513295Y-90228119D01*
X115507410Y-90225681D01*
X115212396Y-90167000D01*
X114911604Y-90167000D01*
X114616590Y-90225681D01*
X114338694Y-90340790D01*
X114088594Y-90507901D01*
X113875901Y-90720594D01*
X113708790Y-90970694D01*
X113593681Y-91248590D01*
X113535000Y-91543604D01*
X113535000Y-91844396D01*
X113593681Y-92139410D01*
X113708790Y-92417306D01*
X113875901Y-92667406D01*
X114088594Y-92880099D01*
X114338694Y-93047210D01*
X114616590Y-93162319D01*
X114911604Y-93221000D01*
X115212396Y-93221000D01*
X115433602Y-93177000D01*
X120789935Y-93177000D01*
X120789307Y-93179069D01*
X120767547Y-93400000D01*
X120767547Y-95100000D01*
X120789307Y-95320931D01*
X120853750Y-95533371D01*
X120958400Y-95729157D01*
X121099235Y-95900765D01*
X121261187Y-96033676D01*
X121269733Y-96120443D01*
X121355620Y-96403571D01*
X121495091Y-96664504D01*
X121497656Y-96667629D01*
X121502387Y-97121846D01*
X121343950Y-97206532D01*
X121134458Y-97378458D01*
X121053626Y-97476952D01*
X120962000Y-97467928D01*
X120672750Y-97471000D01*
X120514000Y-97629750D01*
X120514000Y-98679000D01*
X120534000Y-98679000D01*
X120534000Y-98933000D01*
X120514000Y-98933000D01*
X120514000Y-98953000D01*
X120260000Y-98953000D01*
X120260000Y-98933000D01*
X119335750Y-98933000D01*
X119295750Y-98973000D01*
X108256453Y-98973000D01*
X108256453Y-98373999D01*
X108229890Y-98104296D01*
X108206139Y-98026000D01*
X108434128Y-98026000D01*
X108654590Y-98117319D01*
X108949604Y-98176000D01*
X109250396Y-98176000D01*
X109545410Y-98117319D01*
X109572736Y-98106000D01*
X119173928Y-98106000D01*
X119177000Y-98520250D01*
X119335750Y-98679000D01*
X120260000Y-98679000D01*
X120260000Y-97629750D01*
X120101250Y-97471000D01*
X119812000Y-97467928D01*
X119687518Y-97480188D01*
X119567820Y-97516498D01*
X119457506Y-97575463D01*
X119360815Y-97654815D01*
X119281463Y-97751506D01*
X119222498Y-97861820D01*
X119186188Y-97981518D01*
X119173928Y-98106000D01*
X109572736Y-98106000D01*
X109823306Y-98002210D01*
X110073406Y-97835099D01*
X110286099Y-97622406D01*
X110453210Y-97372306D01*
X110568319Y-97094410D01*
X110627000Y-96799396D01*
X110627000Y-96498604D01*
X110568319Y-96203590D01*
X110453210Y-95925694D01*
X110286099Y-95675594D01*
X110073406Y-95462901D01*
X109823306Y-95295790D01*
X109545410Y-95180681D01*
X109250396Y-95122000D01*
X108949604Y-95122000D01*
X108654590Y-95180681D01*
X108434128Y-95272000D01*
X107760815Y-95272000D01*
X107642050Y-95174532D01*
X107447419Y-95070500D01*
X107642050Y-94966468D01*
X107851542Y-94794542D01*
X108023468Y-94585050D01*
X108151220Y-94346042D01*
X108229890Y-94086704D01*
X108256453Y-93817001D01*
X108256453Y-93166999D01*
X108232480Y-92923594D01*
X108249604Y-92927000D01*
X108550396Y-92927000D01*
X108845410Y-92868319D01*
X109123306Y-92753210D01*
X109373406Y-92586099D01*
X109586099Y-92373406D01*
X109753210Y-92123306D01*
X109868319Y-91845410D01*
X109927000Y-91550396D01*
X109927000Y-91249604D01*
X109868319Y-90954590D01*
X109753210Y-90676694D01*
X109586099Y-90426594D01*
X109373406Y-90213901D01*
X109123306Y-90046790D01*
X108845410Y-89931681D01*
X108550396Y-89873000D01*
X108249604Y-89873000D01*
X107954590Y-89931681D01*
X107734128Y-90023000D01*
X107709638Y-90023000D01*
X107642050Y-89967532D01*
X107447419Y-89863500D01*
X107642050Y-89759468D01*
X107851542Y-89587542D01*
X108023468Y-89378050D01*
X108151220Y-89139042D01*
X108229890Y-88879704D01*
X108256453Y-88610001D01*
X108256453Y-87959999D01*
X108229890Y-87690296D01*
X108164810Y-87475758D01*
X108333721Y-87385473D01*
X108381819Y-87346000D01*
X110489928Y-87346000D01*
X110502188Y-87470482D01*
X110538498Y-87590180D01*
X110597463Y-87700494D01*
X110676815Y-87797185D01*
X110773506Y-87876537D01*
X110883820Y-87935502D01*
X111003518Y-87971812D01*
X111128000Y-87984072D01*
X112742250Y-87981000D01*
X112901000Y-87822250D01*
X112901000Y-86473000D01*
X113155000Y-86473000D01*
X113155000Y-87822250D01*
X113313750Y-87981000D01*
X114928000Y-87984072D01*
X115052482Y-87971812D01*
X115172180Y-87935502D01*
X115282494Y-87876537D01*
X115379185Y-87797185D01*
X115458537Y-87700494D01*
X115517502Y-87590180D01*
X115553812Y-87470482D01*
X115566072Y-87346000D01*
X115563000Y-86631750D01*
X115404250Y-86473000D01*
X113155000Y-86473000D01*
X112901000Y-86473000D01*
X110651750Y-86473000D01*
X110493000Y-86631750D01*
X110489928Y-87346000D01*
X108381819Y-87346000D01*
X108543397Y-87213397D01*
X108586521Y-87160850D01*
X108702841Y-87044530D01*
X108923306Y-86953210D01*
X109173406Y-86786099D01*
X109386099Y-86573406D01*
X109553210Y-86323306D01*
X109668319Y-86045410D01*
X109727000Y-85750396D01*
X109727000Y-85449604D01*
X109706393Y-85346000D01*
X110489928Y-85346000D01*
X110493000Y-86060250D01*
X110651750Y-86219000D01*
X112901000Y-86219000D01*
X112901000Y-84869750D01*
X113155000Y-84869750D01*
X113155000Y-86219000D01*
X115404250Y-86219000D01*
X115563000Y-86060250D01*
X115566072Y-85346000D01*
X115553812Y-85221518D01*
X115517502Y-85101820D01*
X115458537Y-84991506D01*
X115379185Y-84894815D01*
X115282494Y-84815463D01*
X115172180Y-84756498D01*
X115052482Y-84720188D01*
X114928000Y-84707928D01*
X113313750Y-84711000D01*
X113155000Y-84869750D01*
X112901000Y-84869750D01*
X112742250Y-84711000D01*
X111128000Y-84707928D01*
X111003518Y-84720188D01*
X110883820Y-84756498D01*
X110773506Y-84815463D01*
X110676815Y-84894815D01*
X110597463Y-84991506D01*
X110538498Y-85101820D01*
X110502188Y-85221518D01*
X110489928Y-85346000D01*
X109706393Y-85346000D01*
X109668319Y-85154590D01*
X109553210Y-84876694D01*
X109386099Y-84626594D01*
X109173406Y-84413901D01*
X108923306Y-84246790D01*
X108645410Y-84131681D01*
X108350396Y-84073000D01*
X108075877Y-84073000D01*
X108151220Y-83932042D01*
X108229890Y-83672704D01*
X108256453Y-83403001D01*
X108256453Y-82752999D01*
X108249243Y-82679789D01*
X108305604Y-82691000D01*
X108606396Y-82691000D01*
X108901410Y-82632319D01*
X109179306Y-82517210D01*
X109429406Y-82350099D01*
X109642099Y-82137406D01*
X109650760Y-82124444D01*
X109757069Y-82156693D01*
X109978000Y-82178453D01*
X111478000Y-82178453D01*
X111698931Y-82156693D01*
X111911371Y-82092250D01*
X112107157Y-81987600D01*
X112278765Y-81846765D01*
X112413017Y-81683179D01*
X112742250Y-81681000D01*
X112901000Y-81522250D01*
X112901000Y-80173000D01*
X112881000Y-80173000D01*
X112881000Y-79919000D01*
X112901000Y-79919000D01*
X112901000Y-78569750D01*
X112742250Y-78411000D01*
X112413017Y-78408821D01*
X112278765Y-78245235D01*
X112230000Y-78205215D01*
X112230000Y-75381783D01*
X112237267Y-75308000D01*
X112208267Y-75013556D01*
X112160653Y-74856594D01*
X112122381Y-74730429D01*
X111982910Y-74469496D01*
X111795213Y-74240787D01*
X111737896Y-74193748D01*
X110050147Y-72506000D01*
X111365853Y-72506000D01*
X112823000Y-73963148D01*
G37*
X112823000Y-73963148D02*
X112823000Y-74340265D01*
X112910504Y-74780176D01*
X113082149Y-75194564D01*
X113331339Y-75567503D01*
X113598000Y-75834164D01*
X113598001Y-78409119D01*
X113313750Y-78411000D01*
X113155000Y-78569750D01*
X113155000Y-79919000D01*
X113175000Y-79919000D01*
X113175000Y-80173000D01*
X113155000Y-80173000D01*
X113155000Y-81522250D01*
X113313750Y-81681000D01*
X113642983Y-81683179D01*
X113777235Y-81846765D01*
X113948843Y-81987600D01*
X114144629Y-82092250D01*
X114357069Y-82156693D01*
X114578000Y-82178453D01*
X116078000Y-82178453D01*
X116298931Y-82156693D01*
X116511371Y-82092250D01*
X116707157Y-81987600D01*
X116878765Y-81846765D01*
X117019600Y-81675157D01*
X117124250Y-81479371D01*
X117188693Y-81266931D01*
X117210453Y-81046000D01*
X117210453Y-80538688D01*
X117231681Y-80645410D01*
X117323000Y-80865872D01*
X117323001Y-88149627D01*
X116537159Y-88935470D01*
X116316694Y-89026790D01*
X116066594Y-89193901D01*
X115853901Y-89406594D01*
X115686790Y-89656694D01*
X115571681Y-89934590D01*
X115513295Y-90228119D01*
X115507410Y-90225681D01*
X115212396Y-90167000D01*
X114911604Y-90167000D01*
X114616590Y-90225681D01*
X114338694Y-90340790D01*
X114088594Y-90507901D01*
X113875901Y-90720594D01*
X113708790Y-90970694D01*
X113593681Y-91248590D01*
X113535000Y-91543604D01*
X113535000Y-91844396D01*
X113593681Y-92139410D01*
X113708790Y-92417306D01*
X113875901Y-92667406D01*
X114088594Y-92880099D01*
X114338694Y-93047210D01*
X114616590Y-93162319D01*
X114911604Y-93221000D01*
X115212396Y-93221000D01*
X115433602Y-93177000D01*
X120789935Y-93177000D01*
X120789307Y-93179069D01*
X120767547Y-93400000D01*
X120767547Y-95100000D01*
X120789307Y-95320931D01*
X120853750Y-95533371D01*
X120958400Y-95729157D01*
X121099235Y-95900765D01*
X121261187Y-96033676D01*
X121269733Y-96120443D01*
X121355620Y-96403571D01*
X121495091Y-96664504D01*
X121497656Y-96667629D01*
X121502387Y-97121846D01*
X121343950Y-97206532D01*
X121134458Y-97378458D01*
X121053626Y-97476952D01*
X120962000Y-97467928D01*
X120672750Y-97471000D01*
X120514000Y-97629750D01*
X120514000Y-98679000D01*
X120534000Y-98679000D01*
X120534000Y-98933000D01*
X120514000Y-98933000D01*
X120514000Y-98953000D01*
X120260000Y-98953000D01*
X120260000Y-98933000D01*
X119335750Y-98933000D01*
X119295750Y-98973000D01*
X108256453Y-98973000D01*
X108256453Y-98373999D01*
X108229890Y-98104296D01*
X108206139Y-98026000D01*
X108434128Y-98026000D01*
X108654590Y-98117319D01*
X108949604Y-98176000D01*
X109250396Y-98176000D01*
X109545410Y-98117319D01*
X109572736Y-98106000D01*
X119173928Y-98106000D01*
X119177000Y-98520250D01*
X119335750Y-98679000D01*
X120260000Y-98679000D01*
X120260000Y-97629750D01*
X120101250Y-97471000D01*
X119812000Y-97467928D01*
X119687518Y-97480188D01*
X119567820Y-97516498D01*
X119457506Y-97575463D01*
X119360815Y-97654815D01*
X119281463Y-97751506D01*
X119222498Y-97861820D01*
X119186188Y-97981518D01*
X119173928Y-98106000D01*
X109572736Y-98106000D01*
X109823306Y-98002210D01*
X110073406Y-97835099D01*
X110286099Y-97622406D01*
X110453210Y-97372306D01*
X110568319Y-97094410D01*
X110627000Y-96799396D01*
X110627000Y-96498604D01*
X110568319Y-96203590D01*
X110453210Y-95925694D01*
X110286099Y-95675594D01*
X110073406Y-95462901D01*
X109823306Y-95295790D01*
X109545410Y-95180681D01*
X109250396Y-95122000D01*
X108949604Y-95122000D01*
X108654590Y-95180681D01*
X108434128Y-95272000D01*
X107760815Y-95272000D01*
X107642050Y-95174532D01*
X107447419Y-95070500D01*
X107642050Y-94966468D01*
X107851542Y-94794542D01*
X108023468Y-94585050D01*
X108151220Y-94346042D01*
X108229890Y-94086704D01*
X108256453Y-93817001D01*
X108256453Y-93166999D01*
X108232480Y-92923594D01*
X108249604Y-92927000D01*
X108550396Y-92927000D01*
X108845410Y-92868319D01*
X109123306Y-92753210D01*
X109373406Y-92586099D01*
X109586099Y-92373406D01*
X109753210Y-92123306D01*
X109868319Y-91845410D01*
X109927000Y-91550396D01*
X109927000Y-91249604D01*
X109868319Y-90954590D01*
X109753210Y-90676694D01*
X109586099Y-90426594D01*
X109373406Y-90213901D01*
X109123306Y-90046790D01*
X108845410Y-89931681D01*
X108550396Y-89873000D01*
X108249604Y-89873000D01*
X107954590Y-89931681D01*
X107734128Y-90023000D01*
X107709638Y-90023000D01*
X107642050Y-89967532D01*
X107447419Y-89863500D01*
X107642050Y-89759468D01*
X107851542Y-89587542D01*
X108023468Y-89378050D01*
X108151220Y-89139042D01*
X108229890Y-88879704D01*
X108256453Y-88610001D01*
X108256453Y-87959999D01*
X108229890Y-87690296D01*
X108164810Y-87475758D01*
X108333721Y-87385473D01*
X108381819Y-87346000D01*
X110489928Y-87346000D01*
X110502188Y-87470482D01*
X110538498Y-87590180D01*
X110597463Y-87700494D01*
X110676815Y-87797185D01*
X110773506Y-87876537D01*
X110883820Y-87935502D01*
X111003518Y-87971812D01*
X111128000Y-87984072D01*
X112742250Y-87981000D01*
X112901000Y-87822250D01*
X112901000Y-86473000D01*
X113155000Y-86473000D01*
X113155000Y-87822250D01*
X113313750Y-87981000D01*
X114928000Y-87984072D01*
X115052482Y-87971812D01*
X115172180Y-87935502D01*
X115282494Y-87876537D01*
X115379185Y-87797185D01*
X115458537Y-87700494D01*
X115517502Y-87590180D01*
X115553812Y-87470482D01*
X115566072Y-87346000D01*
X115563000Y-86631750D01*
X115404250Y-86473000D01*
X113155000Y-86473000D01*
X112901000Y-86473000D01*
X110651750Y-86473000D01*
X110493000Y-86631750D01*
X110489928Y-87346000D01*
X108381819Y-87346000D01*
X108543397Y-87213397D01*
X108586521Y-87160850D01*
X108702841Y-87044530D01*
X108923306Y-86953210D01*
X109173406Y-86786099D01*
X109386099Y-86573406D01*
X109553210Y-86323306D01*
X109668319Y-86045410D01*
X109727000Y-85750396D01*
X109727000Y-85449604D01*
X109706393Y-85346000D01*
X110489928Y-85346000D01*
X110493000Y-86060250D01*
X110651750Y-86219000D01*
X112901000Y-86219000D01*
X112901000Y-84869750D01*
X113155000Y-84869750D01*
X113155000Y-86219000D01*
X115404250Y-86219000D01*
X115563000Y-86060250D01*
X115566072Y-85346000D01*
X115553812Y-85221518D01*
X115517502Y-85101820D01*
X115458537Y-84991506D01*
X115379185Y-84894815D01*
X115282494Y-84815463D01*
X115172180Y-84756498D01*
X115052482Y-84720188D01*
X114928000Y-84707928D01*
X113313750Y-84711000D01*
X113155000Y-84869750D01*
X112901000Y-84869750D01*
X112742250Y-84711000D01*
X111128000Y-84707928D01*
X111003518Y-84720188D01*
X110883820Y-84756498D01*
X110773506Y-84815463D01*
X110676815Y-84894815D01*
X110597463Y-84991506D01*
X110538498Y-85101820D01*
X110502188Y-85221518D01*
X110489928Y-85346000D01*
X109706393Y-85346000D01*
X109668319Y-85154590D01*
X109553210Y-84876694D01*
X109386099Y-84626594D01*
X109173406Y-84413901D01*
X108923306Y-84246790D01*
X108645410Y-84131681D01*
X108350396Y-84073000D01*
X108075877Y-84073000D01*
X108151220Y-83932042D01*
X108229890Y-83672704D01*
X108256453Y-83403001D01*
X108256453Y-82752999D01*
X108249243Y-82679789D01*
X108305604Y-82691000D01*
X108606396Y-82691000D01*
X108901410Y-82632319D01*
X109179306Y-82517210D01*
X109429406Y-82350099D01*
X109642099Y-82137406D01*
X109650760Y-82124444D01*
X109757069Y-82156693D01*
X109978000Y-82178453D01*
X111478000Y-82178453D01*
X111698931Y-82156693D01*
X111911371Y-82092250D01*
X112107157Y-81987600D01*
X112278765Y-81846765D01*
X112413017Y-81683179D01*
X112742250Y-81681000D01*
X112901000Y-81522250D01*
X112901000Y-80173000D01*
X112881000Y-80173000D01*
X112881000Y-79919000D01*
X112901000Y-79919000D01*
X112901000Y-78569750D01*
X112742250Y-78411000D01*
X112413017Y-78408821D01*
X112278765Y-78245235D01*
X112230000Y-78205215D01*
X112230000Y-75381783D01*
X112237267Y-75308000D01*
X112208267Y-75013556D01*
X112160653Y-74856594D01*
X112122381Y-74730429D01*
X111982910Y-74469496D01*
X111795213Y-74240787D01*
X111737896Y-74193748D01*
X110050147Y-72506000D01*
X111365853Y-72506000D01*
X112823000Y-73963148D01*
%TD*%
M02*
