%TF.GenerationSoftware,KiCad,Pcbnew,5.1.5+dfsg1-2build2*%
%TF.CreationDate,2021-01-07T21:04:46-03:00*%
%TF.ProjectId,Punkatoo,50756e6b-6174-46f6-9f2e-6b696361645f,rev?*%
%TF.SameCoordinates,Original*%
%TF.FileFunction,Paste,Bot*%
%TF.FilePolarity,Positive*%
%FSLAX46Y46*%
G04 Gerber Fmt 4.6, Leading zero omitted, Abs format (unit mm)*
G04 Created by KiCad (PCBNEW 5.1.5+dfsg1-2build2) date 2021-01-07 21:04:46*
%MOMM*%
%LPD*%
G04 APERTURE LIST*
%ADD10C,0.100000*%
%ADD11R,0.800000X1.500000*%
%ADD12R,1.500000X0.800000*%
%ADD13R,3.800000X2.000000*%
%ADD14R,1.500000X2.000000*%
G04 APERTURE END LIST*
D10*
%TO.C,JP3*%
G36*
X80274505Y-89301204D02*
G01*
X80298773Y-89304804D01*
X80322572Y-89310765D01*
X80345671Y-89319030D01*
X80367850Y-89329520D01*
X80388893Y-89342132D01*
X80408599Y-89356747D01*
X80426777Y-89373223D01*
X80443253Y-89391401D01*
X80457868Y-89411107D01*
X80470480Y-89432150D01*
X80480970Y-89454329D01*
X80489235Y-89477428D01*
X80495196Y-89501227D01*
X80498796Y-89525495D01*
X80500000Y-89549999D01*
X80500000Y-90450001D01*
X80498796Y-90474505D01*
X80495196Y-90498773D01*
X80489235Y-90522572D01*
X80480970Y-90545671D01*
X80470480Y-90567850D01*
X80457868Y-90588893D01*
X80443253Y-90608599D01*
X80426777Y-90626777D01*
X80408599Y-90643253D01*
X80388893Y-90657868D01*
X80367850Y-90670480D01*
X80345671Y-90680970D01*
X80322572Y-90689235D01*
X80298773Y-90695196D01*
X80274505Y-90698796D01*
X80250001Y-90700000D01*
X79599999Y-90700000D01*
X79575495Y-90698796D01*
X79551227Y-90695196D01*
X79527428Y-90689235D01*
X79504329Y-90680970D01*
X79482150Y-90670480D01*
X79461107Y-90657868D01*
X79441401Y-90643253D01*
X79423223Y-90626777D01*
X79406747Y-90608599D01*
X79392132Y-90588893D01*
X79379520Y-90567850D01*
X79369030Y-90545671D01*
X79360765Y-90522572D01*
X79354804Y-90498773D01*
X79351204Y-90474505D01*
X79350000Y-90450001D01*
X79350000Y-89549999D01*
X79351204Y-89525495D01*
X79354804Y-89501227D01*
X79360765Y-89477428D01*
X79369030Y-89454329D01*
X79379520Y-89432150D01*
X79392132Y-89411107D01*
X79406747Y-89391401D01*
X79423223Y-89373223D01*
X79441401Y-89356747D01*
X79461107Y-89342132D01*
X79482150Y-89329520D01*
X79504329Y-89319030D01*
X79527428Y-89310765D01*
X79551227Y-89304804D01*
X79575495Y-89301204D01*
X79599999Y-89300000D01*
X80250001Y-89300000D01*
X80274505Y-89301204D01*
G37*
G36*
X78224505Y-89301204D02*
G01*
X78248773Y-89304804D01*
X78272572Y-89310765D01*
X78295671Y-89319030D01*
X78317850Y-89329520D01*
X78338893Y-89342132D01*
X78358599Y-89356747D01*
X78376777Y-89373223D01*
X78393253Y-89391401D01*
X78407868Y-89411107D01*
X78420480Y-89432150D01*
X78430970Y-89454329D01*
X78439235Y-89477428D01*
X78445196Y-89501227D01*
X78448796Y-89525495D01*
X78450000Y-89549999D01*
X78450000Y-90450001D01*
X78448796Y-90474505D01*
X78445196Y-90498773D01*
X78439235Y-90522572D01*
X78430970Y-90545671D01*
X78420480Y-90567850D01*
X78407868Y-90588893D01*
X78393253Y-90608599D01*
X78376777Y-90626777D01*
X78358599Y-90643253D01*
X78338893Y-90657868D01*
X78317850Y-90670480D01*
X78295671Y-90680970D01*
X78272572Y-90689235D01*
X78248773Y-90695196D01*
X78224505Y-90698796D01*
X78200001Y-90700000D01*
X77549999Y-90700000D01*
X77525495Y-90698796D01*
X77501227Y-90695196D01*
X77477428Y-90689235D01*
X77454329Y-90680970D01*
X77432150Y-90670480D01*
X77411107Y-90657868D01*
X77391401Y-90643253D01*
X77373223Y-90626777D01*
X77356747Y-90608599D01*
X77342132Y-90588893D01*
X77329520Y-90567850D01*
X77319030Y-90545671D01*
X77310765Y-90522572D01*
X77304804Y-90498773D01*
X77301204Y-90474505D01*
X77300000Y-90450001D01*
X77300000Y-89549999D01*
X77301204Y-89525495D01*
X77304804Y-89501227D01*
X77310765Y-89477428D01*
X77319030Y-89454329D01*
X77329520Y-89432150D01*
X77342132Y-89411107D01*
X77356747Y-89391401D01*
X77373223Y-89373223D01*
X77391401Y-89356747D01*
X77411107Y-89342132D01*
X77432150Y-89329520D01*
X77454329Y-89319030D01*
X77477428Y-89310765D01*
X77501227Y-89304804D01*
X77525495Y-89301204D01*
X77549999Y-89300000D01*
X78200001Y-89300000D01*
X78224505Y-89301204D01*
G37*
%TD*%
%TO.C,JP2*%
G36*
X74224505Y-89301204D02*
G01*
X74248773Y-89304804D01*
X74272572Y-89310765D01*
X74295671Y-89319030D01*
X74317850Y-89329520D01*
X74338893Y-89342132D01*
X74358599Y-89356747D01*
X74376777Y-89373223D01*
X74393253Y-89391401D01*
X74407868Y-89411107D01*
X74420480Y-89432150D01*
X74430970Y-89454329D01*
X74439235Y-89477428D01*
X74445196Y-89501227D01*
X74448796Y-89525495D01*
X74450000Y-89549999D01*
X74450000Y-90450001D01*
X74448796Y-90474505D01*
X74445196Y-90498773D01*
X74439235Y-90522572D01*
X74430970Y-90545671D01*
X74420480Y-90567850D01*
X74407868Y-90588893D01*
X74393253Y-90608599D01*
X74376777Y-90626777D01*
X74358599Y-90643253D01*
X74338893Y-90657868D01*
X74317850Y-90670480D01*
X74295671Y-90680970D01*
X74272572Y-90689235D01*
X74248773Y-90695196D01*
X74224505Y-90698796D01*
X74200001Y-90700000D01*
X73549999Y-90700000D01*
X73525495Y-90698796D01*
X73501227Y-90695196D01*
X73477428Y-90689235D01*
X73454329Y-90680970D01*
X73432150Y-90670480D01*
X73411107Y-90657868D01*
X73391401Y-90643253D01*
X73373223Y-90626777D01*
X73356747Y-90608599D01*
X73342132Y-90588893D01*
X73329520Y-90567850D01*
X73319030Y-90545671D01*
X73310765Y-90522572D01*
X73304804Y-90498773D01*
X73301204Y-90474505D01*
X73300000Y-90450001D01*
X73300000Y-89549999D01*
X73301204Y-89525495D01*
X73304804Y-89501227D01*
X73310765Y-89477428D01*
X73319030Y-89454329D01*
X73329520Y-89432150D01*
X73342132Y-89411107D01*
X73356747Y-89391401D01*
X73373223Y-89373223D01*
X73391401Y-89356747D01*
X73411107Y-89342132D01*
X73432150Y-89329520D01*
X73454329Y-89319030D01*
X73477428Y-89310765D01*
X73501227Y-89304804D01*
X73525495Y-89301204D01*
X73549999Y-89300000D01*
X74200001Y-89300000D01*
X74224505Y-89301204D01*
G37*
G36*
X76274505Y-89301204D02*
G01*
X76298773Y-89304804D01*
X76322572Y-89310765D01*
X76345671Y-89319030D01*
X76367850Y-89329520D01*
X76388893Y-89342132D01*
X76408599Y-89356747D01*
X76426777Y-89373223D01*
X76443253Y-89391401D01*
X76457868Y-89411107D01*
X76470480Y-89432150D01*
X76480970Y-89454329D01*
X76489235Y-89477428D01*
X76495196Y-89501227D01*
X76498796Y-89525495D01*
X76500000Y-89549999D01*
X76500000Y-90450001D01*
X76498796Y-90474505D01*
X76495196Y-90498773D01*
X76489235Y-90522572D01*
X76480970Y-90545671D01*
X76470480Y-90567850D01*
X76457868Y-90588893D01*
X76443253Y-90608599D01*
X76426777Y-90626777D01*
X76408599Y-90643253D01*
X76388893Y-90657868D01*
X76367850Y-90670480D01*
X76345671Y-90680970D01*
X76322572Y-90689235D01*
X76298773Y-90695196D01*
X76274505Y-90698796D01*
X76250001Y-90700000D01*
X75599999Y-90700000D01*
X75575495Y-90698796D01*
X75551227Y-90695196D01*
X75527428Y-90689235D01*
X75504329Y-90680970D01*
X75482150Y-90670480D01*
X75461107Y-90657868D01*
X75441401Y-90643253D01*
X75423223Y-90626777D01*
X75406747Y-90608599D01*
X75392132Y-90588893D01*
X75379520Y-90567850D01*
X75369030Y-90545671D01*
X75360765Y-90522572D01*
X75354804Y-90498773D01*
X75351204Y-90474505D01*
X75350000Y-90450001D01*
X75350000Y-89549999D01*
X75351204Y-89525495D01*
X75354804Y-89501227D01*
X75360765Y-89477428D01*
X75369030Y-89454329D01*
X75379520Y-89432150D01*
X75392132Y-89411107D01*
X75406747Y-89391401D01*
X75423223Y-89373223D01*
X75441401Y-89356747D01*
X75461107Y-89342132D01*
X75482150Y-89329520D01*
X75504329Y-89319030D01*
X75527428Y-89310765D01*
X75551227Y-89304804D01*
X75575495Y-89301204D01*
X75599999Y-89300000D01*
X76250001Y-89300000D01*
X76274505Y-89301204D01*
G37*
%TD*%
%TO.C,J5*%
G36*
X141374505Y-85651204D02*
G01*
X141398773Y-85654804D01*
X141422572Y-85660765D01*
X141445671Y-85669030D01*
X141467850Y-85679520D01*
X141488893Y-85692132D01*
X141508599Y-85706747D01*
X141526777Y-85723223D01*
X141543253Y-85741401D01*
X141557868Y-85761107D01*
X141570480Y-85782150D01*
X141580970Y-85804329D01*
X141589235Y-85827428D01*
X141595196Y-85851227D01*
X141598796Y-85875495D01*
X141600000Y-85899999D01*
X141600000Y-86550001D01*
X141598796Y-86574505D01*
X141595196Y-86598773D01*
X141589235Y-86622572D01*
X141580970Y-86645671D01*
X141570480Y-86667850D01*
X141557868Y-86688893D01*
X141543253Y-86708599D01*
X141526777Y-86726777D01*
X141508599Y-86743253D01*
X141488893Y-86757868D01*
X141467850Y-86770480D01*
X141445671Y-86780970D01*
X141422572Y-86789235D01*
X141398773Y-86795196D01*
X141374505Y-86798796D01*
X141350001Y-86800000D01*
X140449999Y-86800000D01*
X140425495Y-86798796D01*
X140401227Y-86795196D01*
X140377428Y-86789235D01*
X140354329Y-86780970D01*
X140332150Y-86770480D01*
X140311107Y-86757868D01*
X140291401Y-86743253D01*
X140273223Y-86726777D01*
X140256747Y-86708599D01*
X140242132Y-86688893D01*
X140229520Y-86667850D01*
X140219030Y-86645671D01*
X140210765Y-86622572D01*
X140204804Y-86598773D01*
X140201204Y-86574505D01*
X140200000Y-86550001D01*
X140200000Y-85899999D01*
X140201204Y-85875495D01*
X140204804Y-85851227D01*
X140210765Y-85827428D01*
X140219030Y-85804329D01*
X140229520Y-85782150D01*
X140242132Y-85761107D01*
X140256747Y-85741401D01*
X140273223Y-85723223D01*
X140291401Y-85706747D01*
X140311107Y-85692132D01*
X140332150Y-85679520D01*
X140354329Y-85669030D01*
X140377428Y-85660765D01*
X140401227Y-85654804D01*
X140425495Y-85651204D01*
X140449999Y-85650000D01*
X141350001Y-85650000D01*
X141374505Y-85651204D01*
G37*
G36*
X141374505Y-83601204D02*
G01*
X141398773Y-83604804D01*
X141422572Y-83610765D01*
X141445671Y-83619030D01*
X141467850Y-83629520D01*
X141488893Y-83642132D01*
X141508599Y-83656747D01*
X141526777Y-83673223D01*
X141543253Y-83691401D01*
X141557868Y-83711107D01*
X141570480Y-83732150D01*
X141580970Y-83754329D01*
X141589235Y-83777428D01*
X141595196Y-83801227D01*
X141598796Y-83825495D01*
X141600000Y-83849999D01*
X141600000Y-84500001D01*
X141598796Y-84524505D01*
X141595196Y-84548773D01*
X141589235Y-84572572D01*
X141580970Y-84595671D01*
X141570480Y-84617850D01*
X141557868Y-84638893D01*
X141543253Y-84658599D01*
X141526777Y-84676777D01*
X141508599Y-84693253D01*
X141488893Y-84707868D01*
X141467850Y-84720480D01*
X141445671Y-84730970D01*
X141422572Y-84739235D01*
X141398773Y-84745196D01*
X141374505Y-84748796D01*
X141350001Y-84750000D01*
X140449999Y-84750000D01*
X140425495Y-84748796D01*
X140401227Y-84745196D01*
X140377428Y-84739235D01*
X140354329Y-84730970D01*
X140332150Y-84720480D01*
X140311107Y-84707868D01*
X140291401Y-84693253D01*
X140273223Y-84676777D01*
X140256747Y-84658599D01*
X140242132Y-84638893D01*
X140229520Y-84617850D01*
X140219030Y-84595671D01*
X140210765Y-84572572D01*
X140204804Y-84548773D01*
X140201204Y-84524505D01*
X140200000Y-84500001D01*
X140200000Y-83849999D01*
X140201204Y-83825495D01*
X140204804Y-83801227D01*
X140210765Y-83777428D01*
X140219030Y-83754329D01*
X140229520Y-83732150D01*
X140242132Y-83711107D01*
X140256747Y-83691401D01*
X140273223Y-83673223D01*
X140291401Y-83656747D01*
X140311107Y-83642132D01*
X140332150Y-83629520D01*
X140354329Y-83619030D01*
X140377428Y-83610765D01*
X140401227Y-83604804D01*
X140425495Y-83601204D01*
X140449999Y-83600000D01*
X141350001Y-83600000D01*
X141374505Y-83601204D01*
G37*
%TD*%
%TO.C,J4*%
G36*
X147974505Y-111501204D02*
G01*
X147998773Y-111504804D01*
X148022572Y-111510765D01*
X148045671Y-111519030D01*
X148067850Y-111529520D01*
X148088893Y-111542132D01*
X148108599Y-111556747D01*
X148126777Y-111573223D01*
X148143253Y-111591401D01*
X148157868Y-111611107D01*
X148170480Y-111632150D01*
X148180970Y-111654329D01*
X148189235Y-111677428D01*
X148195196Y-111701227D01*
X148198796Y-111725495D01*
X148200000Y-111749999D01*
X148200000Y-112400001D01*
X148198796Y-112424505D01*
X148195196Y-112448773D01*
X148189235Y-112472572D01*
X148180970Y-112495671D01*
X148170480Y-112517850D01*
X148157868Y-112538893D01*
X148143253Y-112558599D01*
X148126777Y-112576777D01*
X148108599Y-112593253D01*
X148088893Y-112607868D01*
X148067850Y-112620480D01*
X148045671Y-112630970D01*
X148022572Y-112639235D01*
X147998773Y-112645196D01*
X147974505Y-112648796D01*
X147950001Y-112650000D01*
X147049999Y-112650000D01*
X147025495Y-112648796D01*
X147001227Y-112645196D01*
X146977428Y-112639235D01*
X146954329Y-112630970D01*
X146932150Y-112620480D01*
X146911107Y-112607868D01*
X146891401Y-112593253D01*
X146873223Y-112576777D01*
X146856747Y-112558599D01*
X146842132Y-112538893D01*
X146829520Y-112517850D01*
X146819030Y-112495671D01*
X146810765Y-112472572D01*
X146804804Y-112448773D01*
X146801204Y-112424505D01*
X146800000Y-112400001D01*
X146800000Y-111749999D01*
X146801204Y-111725495D01*
X146804804Y-111701227D01*
X146810765Y-111677428D01*
X146819030Y-111654329D01*
X146829520Y-111632150D01*
X146842132Y-111611107D01*
X146856747Y-111591401D01*
X146873223Y-111573223D01*
X146891401Y-111556747D01*
X146911107Y-111542132D01*
X146932150Y-111529520D01*
X146954329Y-111519030D01*
X146977428Y-111510765D01*
X147001227Y-111504804D01*
X147025495Y-111501204D01*
X147049999Y-111500000D01*
X147950001Y-111500000D01*
X147974505Y-111501204D01*
G37*
G36*
X147974505Y-113551204D02*
G01*
X147998773Y-113554804D01*
X148022572Y-113560765D01*
X148045671Y-113569030D01*
X148067850Y-113579520D01*
X148088893Y-113592132D01*
X148108599Y-113606747D01*
X148126777Y-113623223D01*
X148143253Y-113641401D01*
X148157868Y-113661107D01*
X148170480Y-113682150D01*
X148180970Y-113704329D01*
X148189235Y-113727428D01*
X148195196Y-113751227D01*
X148198796Y-113775495D01*
X148200000Y-113799999D01*
X148200000Y-114450001D01*
X148198796Y-114474505D01*
X148195196Y-114498773D01*
X148189235Y-114522572D01*
X148180970Y-114545671D01*
X148170480Y-114567850D01*
X148157868Y-114588893D01*
X148143253Y-114608599D01*
X148126777Y-114626777D01*
X148108599Y-114643253D01*
X148088893Y-114657868D01*
X148067850Y-114670480D01*
X148045671Y-114680970D01*
X148022572Y-114689235D01*
X147998773Y-114695196D01*
X147974505Y-114698796D01*
X147950001Y-114700000D01*
X147049999Y-114700000D01*
X147025495Y-114698796D01*
X147001227Y-114695196D01*
X146977428Y-114689235D01*
X146954329Y-114680970D01*
X146932150Y-114670480D01*
X146911107Y-114657868D01*
X146891401Y-114643253D01*
X146873223Y-114626777D01*
X146856747Y-114608599D01*
X146842132Y-114588893D01*
X146829520Y-114567850D01*
X146819030Y-114545671D01*
X146810765Y-114522572D01*
X146804804Y-114498773D01*
X146801204Y-114474505D01*
X146800000Y-114450001D01*
X146800000Y-113799999D01*
X146801204Y-113775495D01*
X146804804Y-113751227D01*
X146810765Y-113727428D01*
X146819030Y-113704329D01*
X146829520Y-113682150D01*
X146842132Y-113661107D01*
X146856747Y-113641401D01*
X146873223Y-113623223D01*
X146891401Y-113606747D01*
X146911107Y-113592132D01*
X146932150Y-113579520D01*
X146954329Y-113569030D01*
X146977428Y-113560765D01*
X147001227Y-113554804D01*
X147025495Y-113551204D01*
X147049999Y-113550000D01*
X147950001Y-113550000D01*
X147974505Y-113551204D01*
G37*
%TD*%
%TO.C,R6*%
G36*
X138874505Y-111251204D02*
G01*
X138898773Y-111254804D01*
X138922572Y-111260765D01*
X138945671Y-111269030D01*
X138967850Y-111279520D01*
X138988893Y-111292132D01*
X139008599Y-111306747D01*
X139026777Y-111323223D01*
X139043253Y-111341401D01*
X139057868Y-111361107D01*
X139070480Y-111382150D01*
X139080970Y-111404329D01*
X139089235Y-111427428D01*
X139095196Y-111451227D01*
X139098796Y-111475495D01*
X139100000Y-111499999D01*
X139100000Y-112150001D01*
X139098796Y-112174505D01*
X139095196Y-112198773D01*
X139089235Y-112222572D01*
X139080970Y-112245671D01*
X139070480Y-112267850D01*
X139057868Y-112288893D01*
X139043253Y-112308599D01*
X139026777Y-112326777D01*
X139008599Y-112343253D01*
X138988893Y-112357868D01*
X138967850Y-112370480D01*
X138945671Y-112380970D01*
X138922572Y-112389235D01*
X138898773Y-112395196D01*
X138874505Y-112398796D01*
X138850001Y-112400000D01*
X137949999Y-112400000D01*
X137925495Y-112398796D01*
X137901227Y-112395196D01*
X137877428Y-112389235D01*
X137854329Y-112380970D01*
X137832150Y-112370480D01*
X137811107Y-112357868D01*
X137791401Y-112343253D01*
X137773223Y-112326777D01*
X137756747Y-112308599D01*
X137742132Y-112288893D01*
X137729520Y-112267850D01*
X137719030Y-112245671D01*
X137710765Y-112222572D01*
X137704804Y-112198773D01*
X137701204Y-112174505D01*
X137700000Y-112150001D01*
X137700000Y-111499999D01*
X137701204Y-111475495D01*
X137704804Y-111451227D01*
X137710765Y-111427428D01*
X137719030Y-111404329D01*
X137729520Y-111382150D01*
X137742132Y-111361107D01*
X137756747Y-111341401D01*
X137773223Y-111323223D01*
X137791401Y-111306747D01*
X137811107Y-111292132D01*
X137832150Y-111279520D01*
X137854329Y-111269030D01*
X137877428Y-111260765D01*
X137901227Y-111254804D01*
X137925495Y-111251204D01*
X137949999Y-111250000D01*
X138850001Y-111250000D01*
X138874505Y-111251204D01*
G37*
G36*
X138874505Y-109201204D02*
G01*
X138898773Y-109204804D01*
X138922572Y-109210765D01*
X138945671Y-109219030D01*
X138967850Y-109229520D01*
X138988893Y-109242132D01*
X139008599Y-109256747D01*
X139026777Y-109273223D01*
X139043253Y-109291401D01*
X139057868Y-109311107D01*
X139070480Y-109332150D01*
X139080970Y-109354329D01*
X139089235Y-109377428D01*
X139095196Y-109401227D01*
X139098796Y-109425495D01*
X139100000Y-109449999D01*
X139100000Y-110100001D01*
X139098796Y-110124505D01*
X139095196Y-110148773D01*
X139089235Y-110172572D01*
X139080970Y-110195671D01*
X139070480Y-110217850D01*
X139057868Y-110238893D01*
X139043253Y-110258599D01*
X139026777Y-110276777D01*
X139008599Y-110293253D01*
X138988893Y-110307868D01*
X138967850Y-110320480D01*
X138945671Y-110330970D01*
X138922572Y-110339235D01*
X138898773Y-110345196D01*
X138874505Y-110348796D01*
X138850001Y-110350000D01*
X137949999Y-110350000D01*
X137925495Y-110348796D01*
X137901227Y-110345196D01*
X137877428Y-110339235D01*
X137854329Y-110330970D01*
X137832150Y-110320480D01*
X137811107Y-110307868D01*
X137791401Y-110293253D01*
X137773223Y-110276777D01*
X137756747Y-110258599D01*
X137742132Y-110238893D01*
X137729520Y-110217850D01*
X137719030Y-110195671D01*
X137710765Y-110172572D01*
X137704804Y-110148773D01*
X137701204Y-110124505D01*
X137700000Y-110100001D01*
X137700000Y-109449999D01*
X137701204Y-109425495D01*
X137704804Y-109401227D01*
X137710765Y-109377428D01*
X137719030Y-109354329D01*
X137729520Y-109332150D01*
X137742132Y-109311107D01*
X137756747Y-109291401D01*
X137773223Y-109273223D01*
X137791401Y-109256747D01*
X137811107Y-109242132D01*
X137832150Y-109229520D01*
X137854329Y-109219030D01*
X137877428Y-109210765D01*
X137901227Y-109204804D01*
X137925495Y-109201204D01*
X137949999Y-109200000D01*
X138850001Y-109200000D01*
X138874505Y-109201204D01*
G37*
%TD*%
%TO.C,R7*%
G36*
X129674505Y-112251204D02*
G01*
X129698773Y-112254804D01*
X129722572Y-112260765D01*
X129745671Y-112269030D01*
X129767850Y-112279520D01*
X129788893Y-112292132D01*
X129808599Y-112306747D01*
X129826777Y-112323223D01*
X129843253Y-112341401D01*
X129857868Y-112361107D01*
X129870480Y-112382150D01*
X129880970Y-112404329D01*
X129889235Y-112427428D01*
X129895196Y-112451227D01*
X129898796Y-112475495D01*
X129900000Y-112499999D01*
X129900000Y-113150001D01*
X129898796Y-113174505D01*
X129895196Y-113198773D01*
X129889235Y-113222572D01*
X129880970Y-113245671D01*
X129870480Y-113267850D01*
X129857868Y-113288893D01*
X129843253Y-113308599D01*
X129826777Y-113326777D01*
X129808599Y-113343253D01*
X129788893Y-113357868D01*
X129767850Y-113370480D01*
X129745671Y-113380970D01*
X129722572Y-113389235D01*
X129698773Y-113395196D01*
X129674505Y-113398796D01*
X129650001Y-113400000D01*
X128749999Y-113400000D01*
X128725495Y-113398796D01*
X128701227Y-113395196D01*
X128677428Y-113389235D01*
X128654329Y-113380970D01*
X128632150Y-113370480D01*
X128611107Y-113357868D01*
X128591401Y-113343253D01*
X128573223Y-113326777D01*
X128556747Y-113308599D01*
X128542132Y-113288893D01*
X128529520Y-113267850D01*
X128519030Y-113245671D01*
X128510765Y-113222572D01*
X128504804Y-113198773D01*
X128501204Y-113174505D01*
X128500000Y-113150001D01*
X128500000Y-112499999D01*
X128501204Y-112475495D01*
X128504804Y-112451227D01*
X128510765Y-112427428D01*
X128519030Y-112404329D01*
X128529520Y-112382150D01*
X128542132Y-112361107D01*
X128556747Y-112341401D01*
X128573223Y-112323223D01*
X128591401Y-112306747D01*
X128611107Y-112292132D01*
X128632150Y-112279520D01*
X128654329Y-112269030D01*
X128677428Y-112260765D01*
X128701227Y-112254804D01*
X128725495Y-112251204D01*
X128749999Y-112250000D01*
X129650001Y-112250000D01*
X129674505Y-112251204D01*
G37*
G36*
X129674505Y-110201204D02*
G01*
X129698773Y-110204804D01*
X129722572Y-110210765D01*
X129745671Y-110219030D01*
X129767850Y-110229520D01*
X129788893Y-110242132D01*
X129808599Y-110256747D01*
X129826777Y-110273223D01*
X129843253Y-110291401D01*
X129857868Y-110311107D01*
X129870480Y-110332150D01*
X129880970Y-110354329D01*
X129889235Y-110377428D01*
X129895196Y-110401227D01*
X129898796Y-110425495D01*
X129900000Y-110449999D01*
X129900000Y-111100001D01*
X129898796Y-111124505D01*
X129895196Y-111148773D01*
X129889235Y-111172572D01*
X129880970Y-111195671D01*
X129870480Y-111217850D01*
X129857868Y-111238893D01*
X129843253Y-111258599D01*
X129826777Y-111276777D01*
X129808599Y-111293253D01*
X129788893Y-111307868D01*
X129767850Y-111320480D01*
X129745671Y-111330970D01*
X129722572Y-111339235D01*
X129698773Y-111345196D01*
X129674505Y-111348796D01*
X129650001Y-111350000D01*
X128749999Y-111350000D01*
X128725495Y-111348796D01*
X128701227Y-111345196D01*
X128677428Y-111339235D01*
X128654329Y-111330970D01*
X128632150Y-111320480D01*
X128611107Y-111307868D01*
X128591401Y-111293253D01*
X128573223Y-111276777D01*
X128556747Y-111258599D01*
X128542132Y-111238893D01*
X128529520Y-111217850D01*
X128519030Y-111195671D01*
X128510765Y-111172572D01*
X128504804Y-111148773D01*
X128501204Y-111124505D01*
X128500000Y-111100001D01*
X128500000Y-110449999D01*
X128501204Y-110425495D01*
X128504804Y-110401227D01*
X128510765Y-110377428D01*
X128519030Y-110354329D01*
X128529520Y-110332150D01*
X128542132Y-110311107D01*
X128556747Y-110291401D01*
X128573223Y-110273223D01*
X128591401Y-110256747D01*
X128611107Y-110242132D01*
X128632150Y-110229520D01*
X128654329Y-110219030D01*
X128677428Y-110210765D01*
X128701227Y-110204804D01*
X128725495Y-110201204D01*
X128749999Y-110200000D01*
X129650001Y-110200000D01*
X129674505Y-110201204D01*
G37*
%TD*%
D11*
%TO.C,Q11*%
X89340000Y-98670000D03*
X87440000Y-98670000D03*
X88390000Y-96170000D03*
%TD*%
D12*
%TO.C,Q4*%
X103356000Y-86691000D03*
X103356000Y-88591000D03*
X100856000Y-87641000D03*
%TD*%
D11*
%TO.C,Q9*%
X89340000Y-87367000D03*
X87440000Y-87367000D03*
X88390000Y-84867000D03*
%TD*%
D12*
%TO.C,Q6*%
X103356000Y-96978000D03*
X103356000Y-98878000D03*
X100856000Y-97928000D03*
%TD*%
%TO.C,Q2*%
X103356000Y-76404000D03*
X103356000Y-78304000D03*
X100856000Y-77354000D03*
%TD*%
D10*
%TO.C,R9*%
G36*
X120736505Y-98107204D02*
G01*
X120760773Y-98110804D01*
X120784572Y-98116765D01*
X120807671Y-98125030D01*
X120829850Y-98135520D01*
X120850893Y-98148132D01*
X120870599Y-98162747D01*
X120888777Y-98179223D01*
X120905253Y-98197401D01*
X120919868Y-98217107D01*
X120932480Y-98238150D01*
X120942970Y-98260329D01*
X120951235Y-98283428D01*
X120957196Y-98307227D01*
X120960796Y-98331495D01*
X120962000Y-98355999D01*
X120962000Y-99256001D01*
X120960796Y-99280505D01*
X120957196Y-99304773D01*
X120951235Y-99328572D01*
X120942970Y-99351671D01*
X120932480Y-99373850D01*
X120919868Y-99394893D01*
X120905253Y-99414599D01*
X120888777Y-99432777D01*
X120870599Y-99449253D01*
X120850893Y-99463868D01*
X120829850Y-99476480D01*
X120807671Y-99486970D01*
X120784572Y-99495235D01*
X120760773Y-99501196D01*
X120736505Y-99504796D01*
X120712001Y-99506000D01*
X120061999Y-99506000D01*
X120037495Y-99504796D01*
X120013227Y-99501196D01*
X119989428Y-99495235D01*
X119966329Y-99486970D01*
X119944150Y-99476480D01*
X119923107Y-99463868D01*
X119903401Y-99449253D01*
X119885223Y-99432777D01*
X119868747Y-99414599D01*
X119854132Y-99394893D01*
X119841520Y-99373850D01*
X119831030Y-99351671D01*
X119822765Y-99328572D01*
X119816804Y-99304773D01*
X119813204Y-99280505D01*
X119812000Y-99256001D01*
X119812000Y-98355999D01*
X119813204Y-98331495D01*
X119816804Y-98307227D01*
X119822765Y-98283428D01*
X119831030Y-98260329D01*
X119841520Y-98238150D01*
X119854132Y-98217107D01*
X119868747Y-98197401D01*
X119885223Y-98179223D01*
X119903401Y-98162747D01*
X119923107Y-98148132D01*
X119944150Y-98135520D01*
X119966329Y-98125030D01*
X119989428Y-98116765D01*
X120013227Y-98110804D01*
X120037495Y-98107204D01*
X120061999Y-98106000D01*
X120712001Y-98106000D01*
X120736505Y-98107204D01*
G37*
G36*
X122786505Y-98107204D02*
G01*
X122810773Y-98110804D01*
X122834572Y-98116765D01*
X122857671Y-98125030D01*
X122879850Y-98135520D01*
X122900893Y-98148132D01*
X122920599Y-98162747D01*
X122938777Y-98179223D01*
X122955253Y-98197401D01*
X122969868Y-98217107D01*
X122982480Y-98238150D01*
X122992970Y-98260329D01*
X123001235Y-98283428D01*
X123007196Y-98307227D01*
X123010796Y-98331495D01*
X123012000Y-98355999D01*
X123012000Y-99256001D01*
X123010796Y-99280505D01*
X123007196Y-99304773D01*
X123001235Y-99328572D01*
X122992970Y-99351671D01*
X122982480Y-99373850D01*
X122969868Y-99394893D01*
X122955253Y-99414599D01*
X122938777Y-99432777D01*
X122920599Y-99449253D01*
X122900893Y-99463868D01*
X122879850Y-99476480D01*
X122857671Y-99486970D01*
X122834572Y-99495235D01*
X122810773Y-99501196D01*
X122786505Y-99504796D01*
X122762001Y-99506000D01*
X122111999Y-99506000D01*
X122087495Y-99504796D01*
X122063227Y-99501196D01*
X122039428Y-99495235D01*
X122016329Y-99486970D01*
X121994150Y-99476480D01*
X121973107Y-99463868D01*
X121953401Y-99449253D01*
X121935223Y-99432777D01*
X121918747Y-99414599D01*
X121904132Y-99394893D01*
X121891520Y-99373850D01*
X121881030Y-99351671D01*
X121872765Y-99328572D01*
X121866804Y-99304773D01*
X121863204Y-99280505D01*
X121862000Y-99256001D01*
X121862000Y-98355999D01*
X121863204Y-98331495D01*
X121866804Y-98307227D01*
X121872765Y-98283428D01*
X121881030Y-98260329D01*
X121891520Y-98238150D01*
X121904132Y-98217107D01*
X121918747Y-98197401D01*
X121935223Y-98179223D01*
X121953401Y-98162747D01*
X121973107Y-98148132D01*
X121994150Y-98135520D01*
X122016329Y-98125030D01*
X122039428Y-98116765D01*
X122063227Y-98110804D01*
X122087495Y-98107204D01*
X122111999Y-98106000D01*
X122762001Y-98106000D01*
X122786505Y-98107204D01*
G37*
%TD*%
D12*
%TO.C,Q3*%
X103356000Y-81547500D03*
X103356000Y-83447500D03*
X100856000Y-82497500D03*
%TD*%
D10*
%TO.C,R11*%
G36*
X106898505Y-80454204D02*
G01*
X106922773Y-80457804D01*
X106946572Y-80463765D01*
X106969671Y-80472030D01*
X106991850Y-80482520D01*
X107012893Y-80495132D01*
X107032599Y-80509747D01*
X107050777Y-80526223D01*
X107067253Y-80544401D01*
X107081868Y-80564107D01*
X107094480Y-80585150D01*
X107104970Y-80607329D01*
X107113235Y-80630428D01*
X107119196Y-80654227D01*
X107122796Y-80678495D01*
X107124000Y-80702999D01*
X107124000Y-81353001D01*
X107122796Y-81377505D01*
X107119196Y-81401773D01*
X107113235Y-81425572D01*
X107104970Y-81448671D01*
X107094480Y-81470850D01*
X107081868Y-81491893D01*
X107067253Y-81511599D01*
X107050777Y-81529777D01*
X107032599Y-81546253D01*
X107012893Y-81560868D01*
X106991850Y-81573480D01*
X106969671Y-81583970D01*
X106946572Y-81592235D01*
X106922773Y-81598196D01*
X106898505Y-81601796D01*
X106874001Y-81603000D01*
X105973999Y-81603000D01*
X105949495Y-81601796D01*
X105925227Y-81598196D01*
X105901428Y-81592235D01*
X105878329Y-81583970D01*
X105856150Y-81573480D01*
X105835107Y-81560868D01*
X105815401Y-81546253D01*
X105797223Y-81529777D01*
X105780747Y-81511599D01*
X105766132Y-81491893D01*
X105753520Y-81470850D01*
X105743030Y-81448671D01*
X105734765Y-81425572D01*
X105728804Y-81401773D01*
X105725204Y-81377505D01*
X105724000Y-81353001D01*
X105724000Y-80702999D01*
X105725204Y-80678495D01*
X105728804Y-80654227D01*
X105734765Y-80630428D01*
X105743030Y-80607329D01*
X105753520Y-80585150D01*
X105766132Y-80564107D01*
X105780747Y-80544401D01*
X105797223Y-80526223D01*
X105815401Y-80509747D01*
X105835107Y-80495132D01*
X105856150Y-80482520D01*
X105878329Y-80472030D01*
X105901428Y-80463765D01*
X105925227Y-80457804D01*
X105949495Y-80454204D01*
X105973999Y-80453000D01*
X106874001Y-80453000D01*
X106898505Y-80454204D01*
G37*
G36*
X106898505Y-82504204D02*
G01*
X106922773Y-82507804D01*
X106946572Y-82513765D01*
X106969671Y-82522030D01*
X106991850Y-82532520D01*
X107012893Y-82545132D01*
X107032599Y-82559747D01*
X107050777Y-82576223D01*
X107067253Y-82594401D01*
X107081868Y-82614107D01*
X107094480Y-82635150D01*
X107104970Y-82657329D01*
X107113235Y-82680428D01*
X107119196Y-82704227D01*
X107122796Y-82728495D01*
X107124000Y-82752999D01*
X107124000Y-83403001D01*
X107122796Y-83427505D01*
X107119196Y-83451773D01*
X107113235Y-83475572D01*
X107104970Y-83498671D01*
X107094480Y-83520850D01*
X107081868Y-83541893D01*
X107067253Y-83561599D01*
X107050777Y-83579777D01*
X107032599Y-83596253D01*
X107012893Y-83610868D01*
X106991850Y-83623480D01*
X106969671Y-83633970D01*
X106946572Y-83642235D01*
X106922773Y-83648196D01*
X106898505Y-83651796D01*
X106874001Y-83653000D01*
X105973999Y-83653000D01*
X105949495Y-83651796D01*
X105925227Y-83648196D01*
X105901428Y-83642235D01*
X105878329Y-83633970D01*
X105856150Y-83623480D01*
X105835107Y-83610868D01*
X105815401Y-83596253D01*
X105797223Y-83579777D01*
X105780747Y-83561599D01*
X105766132Y-83541893D01*
X105753520Y-83520850D01*
X105743030Y-83498671D01*
X105734765Y-83475572D01*
X105728804Y-83451773D01*
X105725204Y-83427505D01*
X105724000Y-83403001D01*
X105724000Y-82752999D01*
X105725204Y-82728495D01*
X105728804Y-82704227D01*
X105734765Y-82680428D01*
X105743030Y-82657329D01*
X105753520Y-82635150D01*
X105766132Y-82614107D01*
X105780747Y-82594401D01*
X105797223Y-82576223D01*
X105815401Y-82559747D01*
X105835107Y-82545132D01*
X105856150Y-82532520D01*
X105878329Y-82522030D01*
X105901428Y-82513765D01*
X105925227Y-82507804D01*
X105949495Y-82504204D01*
X105973999Y-82503000D01*
X106874001Y-82503000D01*
X106898505Y-82504204D01*
G37*
%TD*%
%TO.C,R10*%
G36*
X106898505Y-75247204D02*
G01*
X106922773Y-75250804D01*
X106946572Y-75256765D01*
X106969671Y-75265030D01*
X106991850Y-75275520D01*
X107012893Y-75288132D01*
X107032599Y-75302747D01*
X107050777Y-75319223D01*
X107067253Y-75337401D01*
X107081868Y-75357107D01*
X107094480Y-75378150D01*
X107104970Y-75400329D01*
X107113235Y-75423428D01*
X107119196Y-75447227D01*
X107122796Y-75471495D01*
X107124000Y-75495999D01*
X107124000Y-76146001D01*
X107122796Y-76170505D01*
X107119196Y-76194773D01*
X107113235Y-76218572D01*
X107104970Y-76241671D01*
X107094480Y-76263850D01*
X107081868Y-76284893D01*
X107067253Y-76304599D01*
X107050777Y-76322777D01*
X107032599Y-76339253D01*
X107012893Y-76353868D01*
X106991850Y-76366480D01*
X106969671Y-76376970D01*
X106946572Y-76385235D01*
X106922773Y-76391196D01*
X106898505Y-76394796D01*
X106874001Y-76396000D01*
X105973999Y-76396000D01*
X105949495Y-76394796D01*
X105925227Y-76391196D01*
X105901428Y-76385235D01*
X105878329Y-76376970D01*
X105856150Y-76366480D01*
X105835107Y-76353868D01*
X105815401Y-76339253D01*
X105797223Y-76322777D01*
X105780747Y-76304599D01*
X105766132Y-76284893D01*
X105753520Y-76263850D01*
X105743030Y-76241671D01*
X105734765Y-76218572D01*
X105728804Y-76194773D01*
X105725204Y-76170505D01*
X105724000Y-76146001D01*
X105724000Y-75495999D01*
X105725204Y-75471495D01*
X105728804Y-75447227D01*
X105734765Y-75423428D01*
X105743030Y-75400329D01*
X105753520Y-75378150D01*
X105766132Y-75357107D01*
X105780747Y-75337401D01*
X105797223Y-75319223D01*
X105815401Y-75302747D01*
X105835107Y-75288132D01*
X105856150Y-75275520D01*
X105878329Y-75265030D01*
X105901428Y-75256765D01*
X105925227Y-75250804D01*
X105949495Y-75247204D01*
X105973999Y-75246000D01*
X106874001Y-75246000D01*
X106898505Y-75247204D01*
G37*
G36*
X106898505Y-77297204D02*
G01*
X106922773Y-77300804D01*
X106946572Y-77306765D01*
X106969671Y-77315030D01*
X106991850Y-77325520D01*
X107012893Y-77338132D01*
X107032599Y-77352747D01*
X107050777Y-77369223D01*
X107067253Y-77387401D01*
X107081868Y-77407107D01*
X107094480Y-77428150D01*
X107104970Y-77450329D01*
X107113235Y-77473428D01*
X107119196Y-77497227D01*
X107122796Y-77521495D01*
X107124000Y-77545999D01*
X107124000Y-78196001D01*
X107122796Y-78220505D01*
X107119196Y-78244773D01*
X107113235Y-78268572D01*
X107104970Y-78291671D01*
X107094480Y-78313850D01*
X107081868Y-78334893D01*
X107067253Y-78354599D01*
X107050777Y-78372777D01*
X107032599Y-78389253D01*
X107012893Y-78403868D01*
X106991850Y-78416480D01*
X106969671Y-78426970D01*
X106946572Y-78435235D01*
X106922773Y-78441196D01*
X106898505Y-78444796D01*
X106874001Y-78446000D01*
X105973999Y-78446000D01*
X105949495Y-78444796D01*
X105925227Y-78441196D01*
X105901428Y-78435235D01*
X105878329Y-78426970D01*
X105856150Y-78416480D01*
X105835107Y-78403868D01*
X105815401Y-78389253D01*
X105797223Y-78372777D01*
X105780747Y-78354599D01*
X105766132Y-78334893D01*
X105753520Y-78313850D01*
X105743030Y-78291671D01*
X105734765Y-78268572D01*
X105728804Y-78244773D01*
X105725204Y-78220505D01*
X105724000Y-78196001D01*
X105724000Y-77545999D01*
X105725204Y-77521495D01*
X105728804Y-77497227D01*
X105734765Y-77473428D01*
X105743030Y-77450329D01*
X105753520Y-77428150D01*
X105766132Y-77407107D01*
X105780747Y-77387401D01*
X105797223Y-77369223D01*
X105815401Y-77352747D01*
X105835107Y-77338132D01*
X105856150Y-77325520D01*
X105878329Y-77315030D01*
X105901428Y-77306765D01*
X105925227Y-77300804D01*
X105949495Y-77297204D01*
X105973999Y-77296000D01*
X106874001Y-77296000D01*
X106898505Y-77297204D01*
G37*
%TD*%
D13*
%TO.C,U3*%
X113028000Y-86346000D03*
D14*
X113028000Y-80046000D03*
X115328000Y-80046000D03*
X110728000Y-80046000D03*
%TD*%
D11*
%TO.C,Q8*%
X89340000Y-81715500D03*
X87440000Y-81715500D03*
X88390000Y-79215500D03*
%TD*%
D12*
%TO.C,Q5*%
X103356000Y-91834500D03*
X103356000Y-93734500D03*
X100856000Y-92784500D03*
%TD*%
D10*
%TO.C,R14*%
G36*
X106898505Y-98125204D02*
G01*
X106922773Y-98128804D01*
X106946572Y-98134765D01*
X106969671Y-98143030D01*
X106991850Y-98153520D01*
X107012893Y-98166132D01*
X107032599Y-98180747D01*
X107050777Y-98197223D01*
X107067253Y-98215401D01*
X107081868Y-98235107D01*
X107094480Y-98256150D01*
X107104970Y-98278329D01*
X107113235Y-98301428D01*
X107119196Y-98325227D01*
X107122796Y-98349495D01*
X107124000Y-98373999D01*
X107124000Y-99024001D01*
X107122796Y-99048505D01*
X107119196Y-99072773D01*
X107113235Y-99096572D01*
X107104970Y-99119671D01*
X107094480Y-99141850D01*
X107081868Y-99162893D01*
X107067253Y-99182599D01*
X107050777Y-99200777D01*
X107032599Y-99217253D01*
X107012893Y-99231868D01*
X106991850Y-99244480D01*
X106969671Y-99254970D01*
X106946572Y-99263235D01*
X106922773Y-99269196D01*
X106898505Y-99272796D01*
X106874001Y-99274000D01*
X105973999Y-99274000D01*
X105949495Y-99272796D01*
X105925227Y-99269196D01*
X105901428Y-99263235D01*
X105878329Y-99254970D01*
X105856150Y-99244480D01*
X105835107Y-99231868D01*
X105815401Y-99217253D01*
X105797223Y-99200777D01*
X105780747Y-99182599D01*
X105766132Y-99162893D01*
X105753520Y-99141850D01*
X105743030Y-99119671D01*
X105734765Y-99096572D01*
X105728804Y-99072773D01*
X105725204Y-99048505D01*
X105724000Y-99024001D01*
X105724000Y-98373999D01*
X105725204Y-98349495D01*
X105728804Y-98325227D01*
X105734765Y-98301428D01*
X105743030Y-98278329D01*
X105753520Y-98256150D01*
X105766132Y-98235107D01*
X105780747Y-98215401D01*
X105797223Y-98197223D01*
X105815401Y-98180747D01*
X105835107Y-98166132D01*
X105856150Y-98153520D01*
X105878329Y-98143030D01*
X105901428Y-98134765D01*
X105925227Y-98128804D01*
X105949495Y-98125204D01*
X105973999Y-98124000D01*
X106874001Y-98124000D01*
X106898505Y-98125204D01*
G37*
G36*
X106898505Y-96075204D02*
G01*
X106922773Y-96078804D01*
X106946572Y-96084765D01*
X106969671Y-96093030D01*
X106991850Y-96103520D01*
X107012893Y-96116132D01*
X107032599Y-96130747D01*
X107050777Y-96147223D01*
X107067253Y-96165401D01*
X107081868Y-96185107D01*
X107094480Y-96206150D01*
X107104970Y-96228329D01*
X107113235Y-96251428D01*
X107119196Y-96275227D01*
X107122796Y-96299495D01*
X107124000Y-96323999D01*
X107124000Y-96974001D01*
X107122796Y-96998505D01*
X107119196Y-97022773D01*
X107113235Y-97046572D01*
X107104970Y-97069671D01*
X107094480Y-97091850D01*
X107081868Y-97112893D01*
X107067253Y-97132599D01*
X107050777Y-97150777D01*
X107032599Y-97167253D01*
X107012893Y-97181868D01*
X106991850Y-97194480D01*
X106969671Y-97204970D01*
X106946572Y-97213235D01*
X106922773Y-97219196D01*
X106898505Y-97222796D01*
X106874001Y-97224000D01*
X105973999Y-97224000D01*
X105949495Y-97222796D01*
X105925227Y-97219196D01*
X105901428Y-97213235D01*
X105878329Y-97204970D01*
X105856150Y-97194480D01*
X105835107Y-97181868D01*
X105815401Y-97167253D01*
X105797223Y-97150777D01*
X105780747Y-97132599D01*
X105766132Y-97112893D01*
X105753520Y-97091850D01*
X105743030Y-97069671D01*
X105734765Y-97046572D01*
X105728804Y-97022773D01*
X105725204Y-96998505D01*
X105724000Y-96974001D01*
X105724000Y-96323999D01*
X105725204Y-96299495D01*
X105728804Y-96275227D01*
X105734765Y-96251428D01*
X105743030Y-96228329D01*
X105753520Y-96206150D01*
X105766132Y-96185107D01*
X105780747Y-96165401D01*
X105797223Y-96147223D01*
X105815401Y-96130747D01*
X105835107Y-96116132D01*
X105856150Y-96103520D01*
X105878329Y-96093030D01*
X105901428Y-96084765D01*
X105925227Y-96078804D01*
X105949495Y-96075204D01*
X105973999Y-96074000D01*
X106874001Y-96074000D01*
X106898505Y-96075204D01*
G37*
%TD*%
D11*
%TO.C,Q10*%
X89340000Y-93018500D03*
X87440000Y-93018500D03*
X88390000Y-90518500D03*
%TD*%
D10*
%TO.C,C1*%
G36*
X120736505Y-101155204D02*
G01*
X120760773Y-101158804D01*
X120784572Y-101164765D01*
X120807671Y-101173030D01*
X120829850Y-101183520D01*
X120850893Y-101196132D01*
X120870599Y-101210747D01*
X120888777Y-101227223D01*
X120905253Y-101245401D01*
X120919868Y-101265107D01*
X120932480Y-101286150D01*
X120942970Y-101308329D01*
X120951235Y-101331428D01*
X120957196Y-101355227D01*
X120960796Y-101379495D01*
X120962000Y-101403999D01*
X120962000Y-102304001D01*
X120960796Y-102328505D01*
X120957196Y-102352773D01*
X120951235Y-102376572D01*
X120942970Y-102399671D01*
X120932480Y-102421850D01*
X120919868Y-102442893D01*
X120905253Y-102462599D01*
X120888777Y-102480777D01*
X120870599Y-102497253D01*
X120850893Y-102511868D01*
X120829850Y-102524480D01*
X120807671Y-102534970D01*
X120784572Y-102543235D01*
X120760773Y-102549196D01*
X120736505Y-102552796D01*
X120712001Y-102554000D01*
X120061999Y-102554000D01*
X120037495Y-102552796D01*
X120013227Y-102549196D01*
X119989428Y-102543235D01*
X119966329Y-102534970D01*
X119944150Y-102524480D01*
X119923107Y-102511868D01*
X119903401Y-102497253D01*
X119885223Y-102480777D01*
X119868747Y-102462599D01*
X119854132Y-102442893D01*
X119841520Y-102421850D01*
X119831030Y-102399671D01*
X119822765Y-102376572D01*
X119816804Y-102352773D01*
X119813204Y-102328505D01*
X119812000Y-102304001D01*
X119812000Y-101403999D01*
X119813204Y-101379495D01*
X119816804Y-101355227D01*
X119822765Y-101331428D01*
X119831030Y-101308329D01*
X119841520Y-101286150D01*
X119854132Y-101265107D01*
X119868747Y-101245401D01*
X119885223Y-101227223D01*
X119903401Y-101210747D01*
X119923107Y-101196132D01*
X119944150Y-101183520D01*
X119966329Y-101173030D01*
X119989428Y-101164765D01*
X120013227Y-101158804D01*
X120037495Y-101155204D01*
X120061999Y-101154000D01*
X120712001Y-101154000D01*
X120736505Y-101155204D01*
G37*
G36*
X122786505Y-101155204D02*
G01*
X122810773Y-101158804D01*
X122834572Y-101164765D01*
X122857671Y-101173030D01*
X122879850Y-101183520D01*
X122900893Y-101196132D01*
X122920599Y-101210747D01*
X122938777Y-101227223D01*
X122955253Y-101245401D01*
X122969868Y-101265107D01*
X122982480Y-101286150D01*
X122992970Y-101308329D01*
X123001235Y-101331428D01*
X123007196Y-101355227D01*
X123010796Y-101379495D01*
X123012000Y-101403999D01*
X123012000Y-102304001D01*
X123010796Y-102328505D01*
X123007196Y-102352773D01*
X123001235Y-102376572D01*
X122992970Y-102399671D01*
X122982480Y-102421850D01*
X122969868Y-102442893D01*
X122955253Y-102462599D01*
X122938777Y-102480777D01*
X122920599Y-102497253D01*
X122900893Y-102511868D01*
X122879850Y-102524480D01*
X122857671Y-102534970D01*
X122834572Y-102543235D01*
X122810773Y-102549196D01*
X122786505Y-102552796D01*
X122762001Y-102554000D01*
X122111999Y-102554000D01*
X122087495Y-102552796D01*
X122063227Y-102549196D01*
X122039428Y-102543235D01*
X122016329Y-102534970D01*
X121994150Y-102524480D01*
X121973107Y-102511868D01*
X121953401Y-102497253D01*
X121935223Y-102480777D01*
X121918747Y-102462599D01*
X121904132Y-102442893D01*
X121891520Y-102421850D01*
X121881030Y-102399671D01*
X121872765Y-102376572D01*
X121866804Y-102352773D01*
X121863204Y-102328505D01*
X121862000Y-102304001D01*
X121862000Y-101403999D01*
X121863204Y-101379495D01*
X121866804Y-101355227D01*
X121872765Y-101331428D01*
X121881030Y-101308329D01*
X121891520Y-101286150D01*
X121904132Y-101265107D01*
X121918747Y-101245401D01*
X121935223Y-101227223D01*
X121953401Y-101210747D01*
X121973107Y-101196132D01*
X121994150Y-101183520D01*
X122016329Y-101173030D01*
X122039428Y-101164765D01*
X122063227Y-101158804D01*
X122087495Y-101155204D01*
X122111999Y-101154000D01*
X122762001Y-101154000D01*
X122786505Y-101155204D01*
G37*
%TD*%
%TO.C,R12*%
G36*
X106898505Y-85661204D02*
G01*
X106922773Y-85664804D01*
X106946572Y-85670765D01*
X106969671Y-85679030D01*
X106991850Y-85689520D01*
X107012893Y-85702132D01*
X107032599Y-85716747D01*
X107050777Y-85733223D01*
X107067253Y-85751401D01*
X107081868Y-85771107D01*
X107094480Y-85792150D01*
X107104970Y-85814329D01*
X107113235Y-85837428D01*
X107119196Y-85861227D01*
X107122796Y-85885495D01*
X107124000Y-85909999D01*
X107124000Y-86560001D01*
X107122796Y-86584505D01*
X107119196Y-86608773D01*
X107113235Y-86632572D01*
X107104970Y-86655671D01*
X107094480Y-86677850D01*
X107081868Y-86698893D01*
X107067253Y-86718599D01*
X107050777Y-86736777D01*
X107032599Y-86753253D01*
X107012893Y-86767868D01*
X106991850Y-86780480D01*
X106969671Y-86790970D01*
X106946572Y-86799235D01*
X106922773Y-86805196D01*
X106898505Y-86808796D01*
X106874001Y-86810000D01*
X105973999Y-86810000D01*
X105949495Y-86808796D01*
X105925227Y-86805196D01*
X105901428Y-86799235D01*
X105878329Y-86790970D01*
X105856150Y-86780480D01*
X105835107Y-86767868D01*
X105815401Y-86753253D01*
X105797223Y-86736777D01*
X105780747Y-86718599D01*
X105766132Y-86698893D01*
X105753520Y-86677850D01*
X105743030Y-86655671D01*
X105734765Y-86632572D01*
X105728804Y-86608773D01*
X105725204Y-86584505D01*
X105724000Y-86560001D01*
X105724000Y-85909999D01*
X105725204Y-85885495D01*
X105728804Y-85861227D01*
X105734765Y-85837428D01*
X105743030Y-85814329D01*
X105753520Y-85792150D01*
X105766132Y-85771107D01*
X105780747Y-85751401D01*
X105797223Y-85733223D01*
X105815401Y-85716747D01*
X105835107Y-85702132D01*
X105856150Y-85689520D01*
X105878329Y-85679030D01*
X105901428Y-85670765D01*
X105925227Y-85664804D01*
X105949495Y-85661204D01*
X105973999Y-85660000D01*
X106874001Y-85660000D01*
X106898505Y-85661204D01*
G37*
G36*
X106898505Y-87711204D02*
G01*
X106922773Y-87714804D01*
X106946572Y-87720765D01*
X106969671Y-87729030D01*
X106991850Y-87739520D01*
X107012893Y-87752132D01*
X107032599Y-87766747D01*
X107050777Y-87783223D01*
X107067253Y-87801401D01*
X107081868Y-87821107D01*
X107094480Y-87842150D01*
X107104970Y-87864329D01*
X107113235Y-87887428D01*
X107119196Y-87911227D01*
X107122796Y-87935495D01*
X107124000Y-87959999D01*
X107124000Y-88610001D01*
X107122796Y-88634505D01*
X107119196Y-88658773D01*
X107113235Y-88682572D01*
X107104970Y-88705671D01*
X107094480Y-88727850D01*
X107081868Y-88748893D01*
X107067253Y-88768599D01*
X107050777Y-88786777D01*
X107032599Y-88803253D01*
X107012893Y-88817868D01*
X106991850Y-88830480D01*
X106969671Y-88840970D01*
X106946572Y-88849235D01*
X106922773Y-88855196D01*
X106898505Y-88858796D01*
X106874001Y-88860000D01*
X105973999Y-88860000D01*
X105949495Y-88858796D01*
X105925227Y-88855196D01*
X105901428Y-88849235D01*
X105878329Y-88840970D01*
X105856150Y-88830480D01*
X105835107Y-88817868D01*
X105815401Y-88803253D01*
X105797223Y-88786777D01*
X105780747Y-88768599D01*
X105766132Y-88748893D01*
X105753520Y-88727850D01*
X105743030Y-88705671D01*
X105734765Y-88682572D01*
X105728804Y-88658773D01*
X105725204Y-88634505D01*
X105724000Y-88610001D01*
X105724000Y-87959999D01*
X105725204Y-87935495D01*
X105728804Y-87911227D01*
X105734765Y-87887428D01*
X105743030Y-87864329D01*
X105753520Y-87842150D01*
X105766132Y-87821107D01*
X105780747Y-87801401D01*
X105797223Y-87783223D01*
X105815401Y-87766747D01*
X105835107Y-87752132D01*
X105856150Y-87739520D01*
X105878329Y-87729030D01*
X105901428Y-87720765D01*
X105925227Y-87714804D01*
X105949495Y-87711204D01*
X105973999Y-87710000D01*
X106874001Y-87710000D01*
X106898505Y-87711204D01*
G37*
%TD*%
D11*
%TO.C,Q7*%
X89340000Y-76064000D03*
X87440000Y-76064000D03*
X88390000Y-73564000D03*
%TD*%
D10*
%TO.C,R13*%
G36*
X106898505Y-90868204D02*
G01*
X106922773Y-90871804D01*
X106946572Y-90877765D01*
X106969671Y-90886030D01*
X106991850Y-90896520D01*
X107012893Y-90909132D01*
X107032599Y-90923747D01*
X107050777Y-90940223D01*
X107067253Y-90958401D01*
X107081868Y-90978107D01*
X107094480Y-90999150D01*
X107104970Y-91021329D01*
X107113235Y-91044428D01*
X107119196Y-91068227D01*
X107122796Y-91092495D01*
X107124000Y-91116999D01*
X107124000Y-91767001D01*
X107122796Y-91791505D01*
X107119196Y-91815773D01*
X107113235Y-91839572D01*
X107104970Y-91862671D01*
X107094480Y-91884850D01*
X107081868Y-91905893D01*
X107067253Y-91925599D01*
X107050777Y-91943777D01*
X107032599Y-91960253D01*
X107012893Y-91974868D01*
X106991850Y-91987480D01*
X106969671Y-91997970D01*
X106946572Y-92006235D01*
X106922773Y-92012196D01*
X106898505Y-92015796D01*
X106874001Y-92017000D01*
X105973999Y-92017000D01*
X105949495Y-92015796D01*
X105925227Y-92012196D01*
X105901428Y-92006235D01*
X105878329Y-91997970D01*
X105856150Y-91987480D01*
X105835107Y-91974868D01*
X105815401Y-91960253D01*
X105797223Y-91943777D01*
X105780747Y-91925599D01*
X105766132Y-91905893D01*
X105753520Y-91884850D01*
X105743030Y-91862671D01*
X105734765Y-91839572D01*
X105728804Y-91815773D01*
X105725204Y-91791505D01*
X105724000Y-91767001D01*
X105724000Y-91116999D01*
X105725204Y-91092495D01*
X105728804Y-91068227D01*
X105734765Y-91044428D01*
X105743030Y-91021329D01*
X105753520Y-90999150D01*
X105766132Y-90978107D01*
X105780747Y-90958401D01*
X105797223Y-90940223D01*
X105815401Y-90923747D01*
X105835107Y-90909132D01*
X105856150Y-90896520D01*
X105878329Y-90886030D01*
X105901428Y-90877765D01*
X105925227Y-90871804D01*
X105949495Y-90868204D01*
X105973999Y-90867000D01*
X106874001Y-90867000D01*
X106898505Y-90868204D01*
G37*
G36*
X106898505Y-92918204D02*
G01*
X106922773Y-92921804D01*
X106946572Y-92927765D01*
X106969671Y-92936030D01*
X106991850Y-92946520D01*
X107012893Y-92959132D01*
X107032599Y-92973747D01*
X107050777Y-92990223D01*
X107067253Y-93008401D01*
X107081868Y-93028107D01*
X107094480Y-93049150D01*
X107104970Y-93071329D01*
X107113235Y-93094428D01*
X107119196Y-93118227D01*
X107122796Y-93142495D01*
X107124000Y-93166999D01*
X107124000Y-93817001D01*
X107122796Y-93841505D01*
X107119196Y-93865773D01*
X107113235Y-93889572D01*
X107104970Y-93912671D01*
X107094480Y-93934850D01*
X107081868Y-93955893D01*
X107067253Y-93975599D01*
X107050777Y-93993777D01*
X107032599Y-94010253D01*
X107012893Y-94024868D01*
X106991850Y-94037480D01*
X106969671Y-94047970D01*
X106946572Y-94056235D01*
X106922773Y-94062196D01*
X106898505Y-94065796D01*
X106874001Y-94067000D01*
X105973999Y-94067000D01*
X105949495Y-94065796D01*
X105925227Y-94062196D01*
X105901428Y-94056235D01*
X105878329Y-94047970D01*
X105856150Y-94037480D01*
X105835107Y-94024868D01*
X105815401Y-94010253D01*
X105797223Y-93993777D01*
X105780747Y-93975599D01*
X105766132Y-93955893D01*
X105753520Y-93934850D01*
X105743030Y-93912671D01*
X105734765Y-93889572D01*
X105728804Y-93865773D01*
X105725204Y-93841505D01*
X105724000Y-93817001D01*
X105724000Y-93166999D01*
X105725204Y-93142495D01*
X105728804Y-93118227D01*
X105734765Y-93094428D01*
X105743030Y-93071329D01*
X105753520Y-93049150D01*
X105766132Y-93028107D01*
X105780747Y-93008401D01*
X105797223Y-92990223D01*
X105815401Y-92973747D01*
X105835107Y-92959132D01*
X105856150Y-92946520D01*
X105878329Y-92936030D01*
X105901428Y-92927765D01*
X105925227Y-92921804D01*
X105949495Y-92918204D01*
X105973999Y-92917000D01*
X106874001Y-92917000D01*
X106898505Y-92918204D01*
G37*
%TD*%
M02*
