M48
; DRILL file {KiCad 5.1.5+dfsg1-2build2} date Thu 07 Jan 2021 21:05:09 -03
; FORMAT={-:-/ absolute / inch / decimal}
; #@! TF.CreationDate,2021-01-07T21:05:09-03:00
; #@! TF.GenerationSoftware,Kicad,Pcbnew,5.1.5+dfsg1-2build2
FMAT,2
INCH
T1C0.0157
T2C0.0236
T3C0.0300
T4C0.0315
T5C0.0320
T6C0.0354
T7C0.0394
T8C0.0472
T9C0.1378
%
G90
G05
T1
X3.6099Y-3.8354
X4.0691Y-2.9362
X4.0691Y-3.1462
X4.0691Y-3.3462
X4.0691Y-3.5562
X4.0691Y-3.7562
X4.2598Y-3.3701
X4.2677Y-3.5984
X4.2699Y-3.1954
X4.2799Y-2.9854
X4.2953Y-3.8051
X4.53Y-3.61
X4.6079Y-3.5583
X4.6732Y-3.1575
X4.7362Y-3.1614
X4.7362Y-3.4305
X4.9921Y-3.6142
X5.0787Y-3.4449
X5.1742Y-4.1408
X5.2244Y-3.3937
X5.2598Y-2.9882
X5.311Y-2.9882
X5.3268Y-3.2323
X5.3268Y-3.2953
X5.3268Y-3.3543
X5.3293Y-3.1825
X5.3307Y-4.0669
X5.3819Y-3.8268
X5.4134Y-2.9409
T2
X4.7126Y-2.9843
X5.0295Y-2.8839
T3
X3.8228Y-4.4488
X3.8228Y-4.7244
T4
X3.3031Y-4.2165
X3.3031Y-4.2953
X3.3031Y-4.374
X4.4343Y-4.3731
X4.4343Y-4.5069
T5
X3.7866Y-2.4378
X3.7866Y-2.6378
X4.0866Y-2.4378
X4.0866Y-2.6378
X4.2165Y-2.4378
X4.2165Y-2.6378
X4.5165Y-2.4378
X4.5165Y-2.6378
T6
X5.56Y-4.44
X5.61Y-4.44
X5.66Y-4.44
X5.71Y-4.44
X5.2165Y-4.44
X5.3165Y-4.44
T7
X4.7327Y-4.1406
X4.8327Y-4.1406
X4.9327Y-4.1406
X5.6811Y-2.8386
X5.6811Y-2.9386
X5.6811Y-3.0386
X5.6811Y-3.1386
X2.9099Y-3.9804
X3.0099Y-3.9804
X3.2099Y-3.9804
X3.6099Y-3.9804
X3.7099Y-3.9804
X4.8327Y-3.7106
X4.9327Y-3.7106
X5.0327Y-3.7106
X5.1327Y-3.7106
X5.2327Y-3.7106
X5.3327Y-3.7106
X5.17Y-3.94
X5.27Y-3.94
X2.9099Y-2.8704
X3.0099Y-2.8704
X3.2099Y-2.8704
X3.6099Y-2.8704
X3.7099Y-2.8704
X2.9099Y-3.4254
X3.0099Y-3.4254
X3.2099Y-3.4254
X3.6099Y-3.4254
X3.7099Y-3.4254
X5.6181Y-3.8307
X5.6181Y-3.9307
X5.6181Y-4.0307
X5.6181Y-4.1307
X5.6181Y-4.2307
X5.7181Y-3.8307
X5.7181Y-3.9307
X5.7181Y-4.0307
X5.7181Y-4.1307
X5.7181Y-4.2307
X3.9252Y-2.918
X4.1299Y-4.0754
X4.3268Y-4.0754
X4.5315Y-2.918
X2.9099Y-3.1479
X3.0099Y-3.1479
X3.2099Y-3.1479
X3.6099Y-3.1479
X3.7099Y-3.1479
X2.9099Y-3.7029
X3.0099Y-3.7029
X3.2099Y-3.7029
X3.6099Y-3.7029
X3.7099Y-3.7029
T8
X3.5299Y-4.2913
X4.1299Y-4.2913
X3.2465Y-4.5748
X3.3465Y-4.5748
X2.9724Y-4.2299
X2.9724Y-4.3299
X2.9724Y-4.4299
X2.9724Y-4.5299
X2.9724Y-4.6299
T9
X3.5709Y-2.5
X5.7087Y-2.5
X5.4528Y-4.6063
X3.5669Y-4.6063
T0
M30
