%TF.GenerationSoftware,KiCad,Pcbnew,5.1.5+dfsg1-2build2*%
%TF.CreationDate,2021-01-07T21:04:46-03:00*%
%TF.ProjectId,Punkatoo,50756e6b-6174-46f6-9f2e-6b696361645f,rev?*%
%TF.SameCoordinates,Original*%
%TF.FileFunction,Soldermask,Bot*%
%TF.FilePolarity,Negative*%
%FSLAX46Y46*%
G04 Gerber Fmt 4.6, Leading zero omitted, Abs format (unit mm)*
G04 Created by KiCad (PCBNEW 5.1.5+dfsg1-2build2) date 2021-01-07 21:04:46*
%MOMM*%
%LPD*%
G04 APERTURE LIST*
%ADD10O,1.800000X1.800000*%
%ADD11R,1.800000X1.800000*%
%ADD12C,3.600000*%
%ADD13C,1.497000*%
%ADD14C,1.624000*%
%ADD15O,1.450000X1.450000*%
%ADD16R,1.450000X1.450000*%
%ADD17O,2.500000X2.500000*%
%ADD18C,2.500000*%
%ADD19C,0.100000*%
%ADD20O,2.300000X1.840000*%
%ADD21O,1.840000X2.300000*%
%ADD22C,2.400000*%
%ADD23R,2.100000X2.400000*%
%ADD24C,1.800000*%
%ADD25O,1.170000X1.900000*%
%ADD26R,1.170000X1.900000*%
%ADD27C,1.600000*%
%ADD28R,0.900000X1.600000*%
%ADD29R,1.600000X0.900000*%
%ADD30R,3.900000X2.100000*%
%ADD31R,1.600000X2.100000*%
%ADD32C,1.900000*%
%ADD33R,1.900000X1.900000*%
G04 APERTURE END LIST*
D10*
%TO.C,U2*%
X120210000Y-105172000D03*
X122750000Y-105172000D03*
D11*
X125290000Y-105172000D03*
%TD*%
D12*
%TO.C,REF\002A\002A*%
X90600000Y-117000000D03*
%TD*%
%TO.C,REF\002A\002A*%
X138500000Y-117000000D03*
%TD*%
%TO.C,REF\002A\002A*%
X145000000Y-63500000D03*
%TD*%
%TO.C,REF\002A\002A*%
X90700000Y-63500000D03*
%TD*%
D10*
%TO.C,J6*%
X144300000Y-79720000D03*
X144300000Y-77180000D03*
X144300000Y-74640000D03*
D11*
X144300000Y-72100000D03*
%TD*%
D13*
%TO.C,SW2*%
X103800000Y-61920000D03*
X103800000Y-67000000D03*
X96180000Y-61920000D03*
X96180000Y-67000000D03*
%TD*%
%TO.C,SW1*%
X107100000Y-67000000D03*
X107100000Y-61920000D03*
X114720000Y-67000000D03*
X114720000Y-61920000D03*
%TD*%
D14*
%TO.C,RV1*%
X97100000Y-120000000D03*
X97100000Y-113000000D03*
%TD*%
D15*
%TO.C,C2*%
X83900000Y-111100000D03*
X83900000Y-109100000D03*
D16*
X83900000Y-107100000D03*
%TD*%
D17*
%TO.C,F1*%
X89660000Y-109000000D03*
D18*
X104900000Y-109000000D03*
%TD*%
D19*
%TO.C,JP3*%
G36*
X80304897Y-89251308D02*
G01*
X80331275Y-89255221D01*
X80357143Y-89261701D01*
X80382252Y-89270685D01*
X80406358Y-89282086D01*
X80429232Y-89295796D01*
X80450651Y-89311682D01*
X80470410Y-89329590D01*
X80488318Y-89349349D01*
X80504204Y-89370768D01*
X80517914Y-89393642D01*
X80529315Y-89417748D01*
X80538299Y-89442857D01*
X80544779Y-89468725D01*
X80548692Y-89495103D01*
X80550000Y-89521738D01*
X80550000Y-90478262D01*
X80548692Y-90504897D01*
X80544779Y-90531275D01*
X80538299Y-90557143D01*
X80529315Y-90582252D01*
X80517914Y-90606358D01*
X80504204Y-90629232D01*
X80488318Y-90650651D01*
X80470410Y-90670410D01*
X80450651Y-90688318D01*
X80429232Y-90704204D01*
X80406358Y-90717914D01*
X80382252Y-90729315D01*
X80357143Y-90738299D01*
X80331275Y-90744779D01*
X80304897Y-90748692D01*
X80278262Y-90750000D01*
X79571738Y-90750000D01*
X79545103Y-90748692D01*
X79518725Y-90744779D01*
X79492857Y-90738299D01*
X79467748Y-90729315D01*
X79443642Y-90717914D01*
X79420768Y-90704204D01*
X79399349Y-90688318D01*
X79379590Y-90670410D01*
X79361682Y-90650651D01*
X79345796Y-90629232D01*
X79332086Y-90606358D01*
X79320685Y-90582252D01*
X79311701Y-90557143D01*
X79305221Y-90531275D01*
X79301308Y-90504897D01*
X79300000Y-90478262D01*
X79300000Y-89521738D01*
X79301308Y-89495103D01*
X79305221Y-89468725D01*
X79311701Y-89442857D01*
X79320685Y-89417748D01*
X79332086Y-89393642D01*
X79345796Y-89370768D01*
X79361682Y-89349349D01*
X79379590Y-89329590D01*
X79399349Y-89311682D01*
X79420768Y-89295796D01*
X79443642Y-89282086D01*
X79467748Y-89270685D01*
X79492857Y-89261701D01*
X79518725Y-89255221D01*
X79545103Y-89251308D01*
X79571738Y-89250000D01*
X80278262Y-89250000D01*
X80304897Y-89251308D01*
G37*
G36*
X78254897Y-89251308D02*
G01*
X78281275Y-89255221D01*
X78307143Y-89261701D01*
X78332252Y-89270685D01*
X78356358Y-89282086D01*
X78379232Y-89295796D01*
X78400651Y-89311682D01*
X78420410Y-89329590D01*
X78438318Y-89349349D01*
X78454204Y-89370768D01*
X78467914Y-89393642D01*
X78479315Y-89417748D01*
X78488299Y-89442857D01*
X78494779Y-89468725D01*
X78498692Y-89495103D01*
X78500000Y-89521738D01*
X78500000Y-90478262D01*
X78498692Y-90504897D01*
X78494779Y-90531275D01*
X78488299Y-90557143D01*
X78479315Y-90582252D01*
X78467914Y-90606358D01*
X78454204Y-90629232D01*
X78438318Y-90650651D01*
X78420410Y-90670410D01*
X78400651Y-90688318D01*
X78379232Y-90704204D01*
X78356358Y-90717914D01*
X78332252Y-90729315D01*
X78307143Y-90738299D01*
X78281275Y-90744779D01*
X78254897Y-90748692D01*
X78228262Y-90750000D01*
X77521738Y-90750000D01*
X77495103Y-90748692D01*
X77468725Y-90744779D01*
X77442857Y-90738299D01*
X77417748Y-90729315D01*
X77393642Y-90717914D01*
X77370768Y-90704204D01*
X77349349Y-90688318D01*
X77329590Y-90670410D01*
X77311682Y-90650651D01*
X77295796Y-90629232D01*
X77282086Y-90606358D01*
X77270685Y-90582252D01*
X77261701Y-90557143D01*
X77255221Y-90531275D01*
X77251308Y-90504897D01*
X77250000Y-90478262D01*
X77250000Y-89521738D01*
X77251308Y-89495103D01*
X77255221Y-89468725D01*
X77261701Y-89442857D01*
X77270685Y-89417748D01*
X77282086Y-89393642D01*
X77295796Y-89370768D01*
X77311682Y-89349349D01*
X77329590Y-89329590D01*
X77349349Y-89311682D01*
X77370768Y-89295796D01*
X77393642Y-89282086D01*
X77417748Y-89270685D01*
X77442857Y-89261701D01*
X77468725Y-89255221D01*
X77495103Y-89251308D01*
X77521738Y-89250000D01*
X78228262Y-89250000D01*
X78254897Y-89251308D01*
G37*
%TD*%
%TO.C,JP2*%
G36*
X74254897Y-89251308D02*
G01*
X74281275Y-89255221D01*
X74307143Y-89261701D01*
X74332252Y-89270685D01*
X74356358Y-89282086D01*
X74379232Y-89295796D01*
X74400651Y-89311682D01*
X74420410Y-89329590D01*
X74438318Y-89349349D01*
X74454204Y-89370768D01*
X74467914Y-89393642D01*
X74479315Y-89417748D01*
X74488299Y-89442857D01*
X74494779Y-89468725D01*
X74498692Y-89495103D01*
X74500000Y-89521738D01*
X74500000Y-90478262D01*
X74498692Y-90504897D01*
X74494779Y-90531275D01*
X74488299Y-90557143D01*
X74479315Y-90582252D01*
X74467914Y-90606358D01*
X74454204Y-90629232D01*
X74438318Y-90650651D01*
X74420410Y-90670410D01*
X74400651Y-90688318D01*
X74379232Y-90704204D01*
X74356358Y-90717914D01*
X74332252Y-90729315D01*
X74307143Y-90738299D01*
X74281275Y-90744779D01*
X74254897Y-90748692D01*
X74228262Y-90750000D01*
X73521738Y-90750000D01*
X73495103Y-90748692D01*
X73468725Y-90744779D01*
X73442857Y-90738299D01*
X73417748Y-90729315D01*
X73393642Y-90717914D01*
X73370768Y-90704204D01*
X73349349Y-90688318D01*
X73329590Y-90670410D01*
X73311682Y-90650651D01*
X73295796Y-90629232D01*
X73282086Y-90606358D01*
X73270685Y-90582252D01*
X73261701Y-90557143D01*
X73255221Y-90531275D01*
X73251308Y-90504897D01*
X73250000Y-90478262D01*
X73250000Y-89521738D01*
X73251308Y-89495103D01*
X73255221Y-89468725D01*
X73261701Y-89442857D01*
X73270685Y-89417748D01*
X73282086Y-89393642D01*
X73295796Y-89370768D01*
X73311682Y-89349349D01*
X73329590Y-89329590D01*
X73349349Y-89311682D01*
X73370768Y-89295796D01*
X73393642Y-89282086D01*
X73417748Y-89270685D01*
X73442857Y-89261701D01*
X73468725Y-89255221D01*
X73495103Y-89251308D01*
X73521738Y-89250000D01*
X74228262Y-89250000D01*
X74254897Y-89251308D01*
G37*
G36*
X76304897Y-89251308D02*
G01*
X76331275Y-89255221D01*
X76357143Y-89261701D01*
X76382252Y-89270685D01*
X76406358Y-89282086D01*
X76429232Y-89295796D01*
X76450651Y-89311682D01*
X76470410Y-89329590D01*
X76488318Y-89349349D01*
X76504204Y-89370768D01*
X76517914Y-89393642D01*
X76529315Y-89417748D01*
X76538299Y-89442857D01*
X76544779Y-89468725D01*
X76548692Y-89495103D01*
X76550000Y-89521738D01*
X76550000Y-90478262D01*
X76548692Y-90504897D01*
X76544779Y-90531275D01*
X76538299Y-90557143D01*
X76529315Y-90582252D01*
X76517914Y-90606358D01*
X76504204Y-90629232D01*
X76488318Y-90650651D01*
X76470410Y-90670410D01*
X76450651Y-90688318D01*
X76429232Y-90704204D01*
X76406358Y-90717914D01*
X76382252Y-90729315D01*
X76357143Y-90738299D01*
X76331275Y-90744779D01*
X76304897Y-90748692D01*
X76278262Y-90750000D01*
X75571738Y-90750000D01*
X75545103Y-90748692D01*
X75518725Y-90744779D01*
X75492857Y-90738299D01*
X75467748Y-90729315D01*
X75443642Y-90717914D01*
X75420768Y-90704204D01*
X75399349Y-90688318D01*
X75379590Y-90670410D01*
X75361682Y-90650651D01*
X75345796Y-90629232D01*
X75332086Y-90606358D01*
X75320685Y-90582252D01*
X75311701Y-90557143D01*
X75305221Y-90531275D01*
X75301308Y-90504897D01*
X75300000Y-90478262D01*
X75300000Y-89521738D01*
X75301308Y-89495103D01*
X75305221Y-89468725D01*
X75311701Y-89442857D01*
X75320685Y-89417748D01*
X75332086Y-89393642D01*
X75345796Y-89370768D01*
X75361682Y-89349349D01*
X75379590Y-89329590D01*
X75399349Y-89311682D01*
X75420768Y-89295796D01*
X75443642Y-89282086D01*
X75467748Y-89270685D01*
X75492857Y-89261701D01*
X75518725Y-89255221D01*
X75545103Y-89251308D01*
X75571738Y-89250000D01*
X76278262Y-89250000D01*
X76304897Y-89251308D01*
G37*
%TD*%
%TO.C,J5*%
G36*
X141404897Y-85601308D02*
G01*
X141431275Y-85605221D01*
X141457143Y-85611701D01*
X141482252Y-85620685D01*
X141506358Y-85632086D01*
X141529232Y-85645796D01*
X141550651Y-85661682D01*
X141570410Y-85679590D01*
X141588318Y-85699349D01*
X141604204Y-85720768D01*
X141617914Y-85743642D01*
X141629315Y-85767748D01*
X141638299Y-85792857D01*
X141644779Y-85818725D01*
X141648692Y-85845103D01*
X141650000Y-85871738D01*
X141650000Y-86578262D01*
X141648692Y-86604897D01*
X141644779Y-86631275D01*
X141638299Y-86657143D01*
X141629315Y-86682252D01*
X141617914Y-86706358D01*
X141604204Y-86729232D01*
X141588318Y-86750651D01*
X141570410Y-86770410D01*
X141550651Y-86788318D01*
X141529232Y-86804204D01*
X141506358Y-86817914D01*
X141482252Y-86829315D01*
X141457143Y-86838299D01*
X141431275Y-86844779D01*
X141404897Y-86848692D01*
X141378262Y-86850000D01*
X140421738Y-86850000D01*
X140395103Y-86848692D01*
X140368725Y-86844779D01*
X140342857Y-86838299D01*
X140317748Y-86829315D01*
X140293642Y-86817914D01*
X140270768Y-86804204D01*
X140249349Y-86788318D01*
X140229590Y-86770410D01*
X140211682Y-86750651D01*
X140195796Y-86729232D01*
X140182086Y-86706358D01*
X140170685Y-86682252D01*
X140161701Y-86657143D01*
X140155221Y-86631275D01*
X140151308Y-86604897D01*
X140150000Y-86578262D01*
X140150000Y-85871738D01*
X140151308Y-85845103D01*
X140155221Y-85818725D01*
X140161701Y-85792857D01*
X140170685Y-85767748D01*
X140182086Y-85743642D01*
X140195796Y-85720768D01*
X140211682Y-85699349D01*
X140229590Y-85679590D01*
X140249349Y-85661682D01*
X140270768Y-85645796D01*
X140293642Y-85632086D01*
X140317748Y-85620685D01*
X140342857Y-85611701D01*
X140368725Y-85605221D01*
X140395103Y-85601308D01*
X140421738Y-85600000D01*
X141378262Y-85600000D01*
X141404897Y-85601308D01*
G37*
G36*
X141404897Y-83551308D02*
G01*
X141431275Y-83555221D01*
X141457143Y-83561701D01*
X141482252Y-83570685D01*
X141506358Y-83582086D01*
X141529232Y-83595796D01*
X141550651Y-83611682D01*
X141570410Y-83629590D01*
X141588318Y-83649349D01*
X141604204Y-83670768D01*
X141617914Y-83693642D01*
X141629315Y-83717748D01*
X141638299Y-83742857D01*
X141644779Y-83768725D01*
X141648692Y-83795103D01*
X141650000Y-83821738D01*
X141650000Y-84528262D01*
X141648692Y-84554897D01*
X141644779Y-84581275D01*
X141638299Y-84607143D01*
X141629315Y-84632252D01*
X141617914Y-84656358D01*
X141604204Y-84679232D01*
X141588318Y-84700651D01*
X141570410Y-84720410D01*
X141550651Y-84738318D01*
X141529232Y-84754204D01*
X141506358Y-84767914D01*
X141482252Y-84779315D01*
X141457143Y-84788299D01*
X141431275Y-84794779D01*
X141404897Y-84798692D01*
X141378262Y-84800000D01*
X140421738Y-84800000D01*
X140395103Y-84798692D01*
X140368725Y-84794779D01*
X140342857Y-84788299D01*
X140317748Y-84779315D01*
X140293642Y-84767914D01*
X140270768Y-84754204D01*
X140249349Y-84738318D01*
X140229590Y-84720410D01*
X140211682Y-84700651D01*
X140195796Y-84679232D01*
X140182086Y-84656358D01*
X140170685Y-84632252D01*
X140161701Y-84607143D01*
X140155221Y-84581275D01*
X140151308Y-84554897D01*
X140150000Y-84528262D01*
X140150000Y-83821738D01*
X140151308Y-83795103D01*
X140155221Y-83768725D01*
X140161701Y-83742857D01*
X140170685Y-83717748D01*
X140182086Y-83693642D01*
X140195796Y-83670768D01*
X140211682Y-83649349D01*
X140229590Y-83629590D01*
X140249349Y-83611682D01*
X140270768Y-83595796D01*
X140293642Y-83582086D01*
X140317748Y-83570685D01*
X140342857Y-83561701D01*
X140368725Y-83555221D01*
X140395103Y-83551308D01*
X140421738Y-83550000D01*
X141378262Y-83550000D01*
X141404897Y-83551308D01*
G37*
%TD*%
%TO.C,J4*%
G36*
X148004897Y-111451308D02*
G01*
X148031275Y-111455221D01*
X148057143Y-111461701D01*
X148082252Y-111470685D01*
X148106358Y-111482086D01*
X148129232Y-111495796D01*
X148150651Y-111511682D01*
X148170410Y-111529590D01*
X148188318Y-111549349D01*
X148204204Y-111570768D01*
X148217914Y-111593642D01*
X148229315Y-111617748D01*
X148238299Y-111642857D01*
X148244779Y-111668725D01*
X148248692Y-111695103D01*
X148250000Y-111721738D01*
X148250000Y-112428262D01*
X148248692Y-112454897D01*
X148244779Y-112481275D01*
X148238299Y-112507143D01*
X148229315Y-112532252D01*
X148217914Y-112556358D01*
X148204204Y-112579232D01*
X148188318Y-112600651D01*
X148170410Y-112620410D01*
X148150651Y-112638318D01*
X148129232Y-112654204D01*
X148106358Y-112667914D01*
X148082252Y-112679315D01*
X148057143Y-112688299D01*
X148031275Y-112694779D01*
X148004897Y-112698692D01*
X147978262Y-112700000D01*
X147021738Y-112700000D01*
X146995103Y-112698692D01*
X146968725Y-112694779D01*
X146942857Y-112688299D01*
X146917748Y-112679315D01*
X146893642Y-112667914D01*
X146870768Y-112654204D01*
X146849349Y-112638318D01*
X146829590Y-112620410D01*
X146811682Y-112600651D01*
X146795796Y-112579232D01*
X146782086Y-112556358D01*
X146770685Y-112532252D01*
X146761701Y-112507143D01*
X146755221Y-112481275D01*
X146751308Y-112454897D01*
X146750000Y-112428262D01*
X146750000Y-111721738D01*
X146751308Y-111695103D01*
X146755221Y-111668725D01*
X146761701Y-111642857D01*
X146770685Y-111617748D01*
X146782086Y-111593642D01*
X146795796Y-111570768D01*
X146811682Y-111549349D01*
X146829590Y-111529590D01*
X146849349Y-111511682D01*
X146870768Y-111495796D01*
X146893642Y-111482086D01*
X146917748Y-111470685D01*
X146942857Y-111461701D01*
X146968725Y-111455221D01*
X146995103Y-111451308D01*
X147021738Y-111450000D01*
X147978262Y-111450000D01*
X148004897Y-111451308D01*
G37*
G36*
X148004897Y-113501308D02*
G01*
X148031275Y-113505221D01*
X148057143Y-113511701D01*
X148082252Y-113520685D01*
X148106358Y-113532086D01*
X148129232Y-113545796D01*
X148150651Y-113561682D01*
X148170410Y-113579590D01*
X148188318Y-113599349D01*
X148204204Y-113620768D01*
X148217914Y-113643642D01*
X148229315Y-113667748D01*
X148238299Y-113692857D01*
X148244779Y-113718725D01*
X148248692Y-113745103D01*
X148250000Y-113771738D01*
X148250000Y-114478262D01*
X148248692Y-114504897D01*
X148244779Y-114531275D01*
X148238299Y-114557143D01*
X148229315Y-114582252D01*
X148217914Y-114606358D01*
X148204204Y-114629232D01*
X148188318Y-114650651D01*
X148170410Y-114670410D01*
X148150651Y-114688318D01*
X148129232Y-114704204D01*
X148106358Y-114717914D01*
X148082252Y-114729315D01*
X148057143Y-114738299D01*
X148031275Y-114744779D01*
X148004897Y-114748692D01*
X147978262Y-114750000D01*
X147021738Y-114750000D01*
X146995103Y-114748692D01*
X146968725Y-114744779D01*
X146942857Y-114738299D01*
X146917748Y-114729315D01*
X146893642Y-114717914D01*
X146870768Y-114704204D01*
X146849349Y-114688318D01*
X146829590Y-114670410D01*
X146811682Y-114650651D01*
X146795796Y-114629232D01*
X146782086Y-114606358D01*
X146770685Y-114582252D01*
X146761701Y-114557143D01*
X146755221Y-114531275D01*
X146751308Y-114504897D01*
X146750000Y-114478262D01*
X146750000Y-113771738D01*
X146751308Y-113745103D01*
X146755221Y-113718725D01*
X146761701Y-113692857D01*
X146770685Y-113667748D01*
X146782086Y-113643642D01*
X146795796Y-113620768D01*
X146811682Y-113599349D01*
X146829590Y-113579590D01*
X146849349Y-113561682D01*
X146870768Y-113545796D01*
X146893642Y-113532086D01*
X146917748Y-113520685D01*
X146942857Y-113511701D01*
X146968725Y-113505221D01*
X146995103Y-113501308D01*
X147021738Y-113500000D01*
X147978262Y-113500000D01*
X148004897Y-113501308D01*
G37*
%TD*%
D10*
%TO.C,J2*%
X145240000Y-107460000D03*
X142700000Y-107460000D03*
X145240000Y-104920000D03*
X142700000Y-104920000D03*
X145240000Y-102380000D03*
X142700000Y-102380000D03*
X145240000Y-99840000D03*
X142700000Y-99840000D03*
X145240000Y-97300000D03*
D11*
X142700000Y-97300000D03*
%TD*%
D10*
%TO.C,J3*%
X135450000Y-94250000D03*
X132910000Y-94250000D03*
X130370000Y-94250000D03*
X127830000Y-94250000D03*
X125290000Y-94250000D03*
D11*
X122750000Y-94250000D03*
%TD*%
D20*
%TO.C,J7*%
X75500000Y-107440000D03*
X75500000Y-109980000D03*
X75500000Y-112520000D03*
X75500000Y-115060000D03*
D19*
G36*
X76411545Y-116681273D02*
G01*
X76437208Y-116685080D01*
X76462375Y-116691384D01*
X76486802Y-116700124D01*
X76510255Y-116711216D01*
X76532507Y-116724554D01*
X76553346Y-116740009D01*
X76572569Y-116757431D01*
X76589991Y-116776654D01*
X76605446Y-116797493D01*
X76618784Y-116819745D01*
X76629876Y-116843198D01*
X76638616Y-116867625D01*
X76644920Y-116892792D01*
X76648727Y-116918455D01*
X76650000Y-116944367D01*
X76650000Y-118255633D01*
X76648727Y-118281545D01*
X76644920Y-118307208D01*
X76638616Y-118332375D01*
X76629876Y-118356802D01*
X76618784Y-118380255D01*
X76605446Y-118402507D01*
X76589991Y-118423346D01*
X76572569Y-118442569D01*
X76553346Y-118459991D01*
X76532507Y-118475446D01*
X76510255Y-118488784D01*
X76486802Y-118499876D01*
X76462375Y-118508616D01*
X76437208Y-118514920D01*
X76411545Y-118518727D01*
X76385633Y-118520000D01*
X74614367Y-118520000D01*
X74588455Y-118518727D01*
X74562792Y-118514920D01*
X74537625Y-118508616D01*
X74513198Y-118499876D01*
X74489745Y-118488784D01*
X74467493Y-118475446D01*
X74446654Y-118459991D01*
X74427431Y-118442569D01*
X74410009Y-118423346D01*
X74394554Y-118402507D01*
X74381216Y-118380255D01*
X74370124Y-118356802D01*
X74361384Y-118332375D01*
X74355080Y-118307208D01*
X74351273Y-118281545D01*
X74350000Y-118255633D01*
X74350000Y-116944367D01*
X74351273Y-116918455D01*
X74355080Y-116892792D01*
X74361384Y-116867625D01*
X74370124Y-116843198D01*
X74381216Y-116819745D01*
X74394554Y-116797493D01*
X74410009Y-116776654D01*
X74427431Y-116757431D01*
X74446654Y-116740009D01*
X74467493Y-116724554D01*
X74489745Y-116711216D01*
X74513198Y-116700124D01*
X74537625Y-116691384D01*
X74562792Y-116685080D01*
X74588455Y-116681273D01*
X74614367Y-116680000D01*
X76385633Y-116680000D01*
X76411545Y-116681273D01*
G37*
%TD*%
D21*
%TO.C,J1*%
X82460000Y-116200000D03*
D19*
G36*
X85681545Y-115051273D02*
G01*
X85707208Y-115055080D01*
X85732375Y-115061384D01*
X85756802Y-115070124D01*
X85780255Y-115081216D01*
X85802507Y-115094554D01*
X85823346Y-115110009D01*
X85842569Y-115127431D01*
X85859991Y-115146654D01*
X85875446Y-115167493D01*
X85888784Y-115189745D01*
X85899876Y-115213198D01*
X85908616Y-115237625D01*
X85914920Y-115262792D01*
X85918727Y-115288455D01*
X85920000Y-115314367D01*
X85920000Y-117085633D01*
X85918727Y-117111545D01*
X85914920Y-117137208D01*
X85908616Y-117162375D01*
X85899876Y-117186802D01*
X85888784Y-117210255D01*
X85875446Y-117232507D01*
X85859991Y-117253346D01*
X85842569Y-117272569D01*
X85823346Y-117289991D01*
X85802507Y-117305446D01*
X85780255Y-117318784D01*
X85756802Y-117329876D01*
X85732375Y-117338616D01*
X85707208Y-117344920D01*
X85681545Y-117348727D01*
X85655633Y-117350000D01*
X84344367Y-117350000D01*
X84318455Y-117348727D01*
X84292792Y-117344920D01*
X84267625Y-117338616D01*
X84243198Y-117329876D01*
X84219745Y-117318784D01*
X84197493Y-117305446D01*
X84176654Y-117289991D01*
X84157431Y-117272569D01*
X84140009Y-117253346D01*
X84124554Y-117232507D01*
X84111216Y-117210255D01*
X84100124Y-117186802D01*
X84091384Y-117162375D01*
X84085080Y-117137208D01*
X84081273Y-117111545D01*
X84080000Y-117085633D01*
X84080000Y-115314367D01*
X84081273Y-115288455D01*
X84085080Y-115262792D01*
X84091384Y-115237625D01*
X84100124Y-115213198D01*
X84111216Y-115189745D01*
X84124554Y-115167493D01*
X84140009Y-115146654D01*
X84157431Y-115127431D01*
X84176654Y-115110009D01*
X84197493Y-115094554D01*
X84219745Y-115081216D01*
X84243198Y-115070124D01*
X84267625Y-115061384D01*
X84292792Y-115055080D01*
X84318455Y-115051273D01*
X84344367Y-115050000D01*
X85655633Y-115050000D01*
X85681545Y-115051273D01*
G37*
%TD*%
D22*
%TO.C,PS1*%
X115100000Y-74116000D03*
X109900000Y-103516000D03*
D23*
X104900000Y-103516000D03*
D22*
X99700000Y-74116000D03*
%TD*%
D24*
%TO.C,K5*%
X81532000Y-101103000D03*
X73912000Y-101103000D03*
X91692000Y-101103000D03*
X94232000Y-101103000D03*
X76452000Y-101103000D03*
%TD*%
%TO.C,K4*%
X81532000Y-94054500D03*
X73912000Y-94054500D03*
X91692000Y-94054500D03*
X94232000Y-94054500D03*
X76452000Y-94054500D03*
%TD*%
%TO.C,K3*%
X81532000Y-87006000D03*
X73912000Y-87006000D03*
X91692000Y-87006000D03*
X94232000Y-87006000D03*
X76452000Y-87006000D03*
%TD*%
%TO.C,K2*%
X81532000Y-79957500D03*
X73912000Y-79957500D03*
X91692000Y-79957500D03*
X94232000Y-79957500D03*
X76452000Y-79957500D03*
%TD*%
%TO.C,K1*%
X81532000Y-72909000D03*
X73912000Y-72909000D03*
X91692000Y-72909000D03*
X94232000Y-72909000D03*
X76452000Y-72909000D03*
%TD*%
D25*
%TO.C,D1*%
X141224000Y-112776000D03*
X142494000Y-112776000D03*
X143764000Y-112776000D03*
D26*
X145034000Y-112776000D03*
%TD*%
D19*
%TO.C,R6*%
G36*
X138904897Y-111201308D02*
G01*
X138931275Y-111205221D01*
X138957143Y-111211701D01*
X138982252Y-111220685D01*
X139006358Y-111232086D01*
X139029232Y-111245796D01*
X139050651Y-111261682D01*
X139070410Y-111279590D01*
X139088318Y-111299349D01*
X139104204Y-111320768D01*
X139117914Y-111343642D01*
X139129315Y-111367748D01*
X139138299Y-111392857D01*
X139144779Y-111418725D01*
X139148692Y-111445103D01*
X139150000Y-111471738D01*
X139150000Y-112178262D01*
X139148692Y-112204897D01*
X139144779Y-112231275D01*
X139138299Y-112257143D01*
X139129315Y-112282252D01*
X139117914Y-112306358D01*
X139104204Y-112329232D01*
X139088318Y-112350651D01*
X139070410Y-112370410D01*
X139050651Y-112388318D01*
X139029232Y-112404204D01*
X139006358Y-112417914D01*
X138982252Y-112429315D01*
X138957143Y-112438299D01*
X138931275Y-112444779D01*
X138904897Y-112448692D01*
X138878262Y-112450000D01*
X137921738Y-112450000D01*
X137895103Y-112448692D01*
X137868725Y-112444779D01*
X137842857Y-112438299D01*
X137817748Y-112429315D01*
X137793642Y-112417914D01*
X137770768Y-112404204D01*
X137749349Y-112388318D01*
X137729590Y-112370410D01*
X137711682Y-112350651D01*
X137695796Y-112329232D01*
X137682086Y-112306358D01*
X137670685Y-112282252D01*
X137661701Y-112257143D01*
X137655221Y-112231275D01*
X137651308Y-112204897D01*
X137650000Y-112178262D01*
X137650000Y-111471738D01*
X137651308Y-111445103D01*
X137655221Y-111418725D01*
X137661701Y-111392857D01*
X137670685Y-111367748D01*
X137682086Y-111343642D01*
X137695796Y-111320768D01*
X137711682Y-111299349D01*
X137729590Y-111279590D01*
X137749349Y-111261682D01*
X137770768Y-111245796D01*
X137793642Y-111232086D01*
X137817748Y-111220685D01*
X137842857Y-111211701D01*
X137868725Y-111205221D01*
X137895103Y-111201308D01*
X137921738Y-111200000D01*
X138878262Y-111200000D01*
X138904897Y-111201308D01*
G37*
G36*
X138904897Y-109151308D02*
G01*
X138931275Y-109155221D01*
X138957143Y-109161701D01*
X138982252Y-109170685D01*
X139006358Y-109182086D01*
X139029232Y-109195796D01*
X139050651Y-109211682D01*
X139070410Y-109229590D01*
X139088318Y-109249349D01*
X139104204Y-109270768D01*
X139117914Y-109293642D01*
X139129315Y-109317748D01*
X139138299Y-109342857D01*
X139144779Y-109368725D01*
X139148692Y-109395103D01*
X139150000Y-109421738D01*
X139150000Y-110128262D01*
X139148692Y-110154897D01*
X139144779Y-110181275D01*
X139138299Y-110207143D01*
X139129315Y-110232252D01*
X139117914Y-110256358D01*
X139104204Y-110279232D01*
X139088318Y-110300651D01*
X139070410Y-110320410D01*
X139050651Y-110338318D01*
X139029232Y-110354204D01*
X139006358Y-110367914D01*
X138982252Y-110379315D01*
X138957143Y-110388299D01*
X138931275Y-110394779D01*
X138904897Y-110398692D01*
X138878262Y-110400000D01*
X137921738Y-110400000D01*
X137895103Y-110398692D01*
X137868725Y-110394779D01*
X137842857Y-110388299D01*
X137817748Y-110379315D01*
X137793642Y-110367914D01*
X137770768Y-110354204D01*
X137749349Y-110338318D01*
X137729590Y-110320410D01*
X137711682Y-110300651D01*
X137695796Y-110279232D01*
X137682086Y-110256358D01*
X137670685Y-110232252D01*
X137661701Y-110207143D01*
X137655221Y-110181275D01*
X137651308Y-110154897D01*
X137650000Y-110128262D01*
X137650000Y-109421738D01*
X137651308Y-109395103D01*
X137655221Y-109368725D01*
X137661701Y-109342857D01*
X137670685Y-109317748D01*
X137682086Y-109293642D01*
X137695796Y-109270768D01*
X137711682Y-109249349D01*
X137729590Y-109229590D01*
X137749349Y-109211682D01*
X137770768Y-109195796D01*
X137793642Y-109182086D01*
X137817748Y-109170685D01*
X137842857Y-109161701D01*
X137868725Y-109155221D01*
X137895103Y-109151308D01*
X137921738Y-109150000D01*
X138878262Y-109150000D01*
X138904897Y-109151308D01*
G37*
%TD*%
%TO.C,R7*%
G36*
X129704897Y-112201308D02*
G01*
X129731275Y-112205221D01*
X129757143Y-112211701D01*
X129782252Y-112220685D01*
X129806358Y-112232086D01*
X129829232Y-112245796D01*
X129850651Y-112261682D01*
X129870410Y-112279590D01*
X129888318Y-112299349D01*
X129904204Y-112320768D01*
X129917914Y-112343642D01*
X129929315Y-112367748D01*
X129938299Y-112392857D01*
X129944779Y-112418725D01*
X129948692Y-112445103D01*
X129950000Y-112471738D01*
X129950000Y-113178262D01*
X129948692Y-113204897D01*
X129944779Y-113231275D01*
X129938299Y-113257143D01*
X129929315Y-113282252D01*
X129917914Y-113306358D01*
X129904204Y-113329232D01*
X129888318Y-113350651D01*
X129870410Y-113370410D01*
X129850651Y-113388318D01*
X129829232Y-113404204D01*
X129806358Y-113417914D01*
X129782252Y-113429315D01*
X129757143Y-113438299D01*
X129731275Y-113444779D01*
X129704897Y-113448692D01*
X129678262Y-113450000D01*
X128721738Y-113450000D01*
X128695103Y-113448692D01*
X128668725Y-113444779D01*
X128642857Y-113438299D01*
X128617748Y-113429315D01*
X128593642Y-113417914D01*
X128570768Y-113404204D01*
X128549349Y-113388318D01*
X128529590Y-113370410D01*
X128511682Y-113350651D01*
X128495796Y-113329232D01*
X128482086Y-113306358D01*
X128470685Y-113282252D01*
X128461701Y-113257143D01*
X128455221Y-113231275D01*
X128451308Y-113204897D01*
X128450000Y-113178262D01*
X128450000Y-112471738D01*
X128451308Y-112445103D01*
X128455221Y-112418725D01*
X128461701Y-112392857D01*
X128470685Y-112367748D01*
X128482086Y-112343642D01*
X128495796Y-112320768D01*
X128511682Y-112299349D01*
X128529590Y-112279590D01*
X128549349Y-112261682D01*
X128570768Y-112245796D01*
X128593642Y-112232086D01*
X128617748Y-112220685D01*
X128642857Y-112211701D01*
X128668725Y-112205221D01*
X128695103Y-112201308D01*
X128721738Y-112200000D01*
X129678262Y-112200000D01*
X129704897Y-112201308D01*
G37*
G36*
X129704897Y-110151308D02*
G01*
X129731275Y-110155221D01*
X129757143Y-110161701D01*
X129782252Y-110170685D01*
X129806358Y-110182086D01*
X129829232Y-110195796D01*
X129850651Y-110211682D01*
X129870410Y-110229590D01*
X129888318Y-110249349D01*
X129904204Y-110270768D01*
X129917914Y-110293642D01*
X129929315Y-110317748D01*
X129938299Y-110342857D01*
X129944779Y-110368725D01*
X129948692Y-110395103D01*
X129950000Y-110421738D01*
X129950000Y-111128262D01*
X129948692Y-111154897D01*
X129944779Y-111181275D01*
X129938299Y-111207143D01*
X129929315Y-111232252D01*
X129917914Y-111256358D01*
X129904204Y-111279232D01*
X129888318Y-111300651D01*
X129870410Y-111320410D01*
X129850651Y-111338318D01*
X129829232Y-111354204D01*
X129806358Y-111367914D01*
X129782252Y-111379315D01*
X129757143Y-111388299D01*
X129731275Y-111394779D01*
X129704897Y-111398692D01*
X129678262Y-111400000D01*
X128721738Y-111400000D01*
X128695103Y-111398692D01*
X128668725Y-111394779D01*
X128642857Y-111388299D01*
X128617748Y-111379315D01*
X128593642Y-111367914D01*
X128570768Y-111354204D01*
X128549349Y-111338318D01*
X128529590Y-111320410D01*
X128511682Y-111300651D01*
X128495796Y-111279232D01*
X128482086Y-111256358D01*
X128470685Y-111232252D01*
X128461701Y-111207143D01*
X128455221Y-111181275D01*
X128451308Y-111154897D01*
X128450000Y-111128262D01*
X128450000Y-110421738D01*
X128451308Y-110395103D01*
X128455221Y-110368725D01*
X128461701Y-110342857D01*
X128470685Y-110317748D01*
X128482086Y-110293642D01*
X128495796Y-110270768D01*
X128511682Y-110249349D01*
X128529590Y-110229590D01*
X128549349Y-110211682D01*
X128570768Y-110195796D01*
X128593642Y-110182086D01*
X128617748Y-110170685D01*
X128642857Y-110161701D01*
X128668725Y-110155221D01*
X128695103Y-110151308D01*
X128721738Y-110150000D01*
X129678262Y-110150000D01*
X129704897Y-110151308D01*
G37*
%TD*%
D27*
%TO.C,R1*%
X112630000Y-114476000D03*
X112630000Y-111076000D03*
%TD*%
D28*
%TO.C,Q11*%
X89340000Y-98670000D03*
X87440000Y-98670000D03*
X88390000Y-96170000D03*
%TD*%
D29*
%TO.C,Q4*%
X103356000Y-86691000D03*
X103356000Y-88591000D03*
X100856000Y-87641000D03*
%TD*%
D28*
%TO.C,Q9*%
X89340000Y-87367000D03*
X87440000Y-87367000D03*
X88390000Y-84867000D03*
%TD*%
D29*
%TO.C,Q6*%
X103356000Y-96978000D03*
X103356000Y-98878000D03*
X100856000Y-97928000D03*
%TD*%
%TO.C,Q2*%
X103356000Y-76404000D03*
X103356000Y-78304000D03*
X100856000Y-77354000D03*
%TD*%
D19*
%TO.C,R9*%
G36*
X120766897Y-98057308D02*
G01*
X120793275Y-98061221D01*
X120819143Y-98067701D01*
X120844252Y-98076685D01*
X120868358Y-98088086D01*
X120891232Y-98101796D01*
X120912651Y-98117682D01*
X120932410Y-98135590D01*
X120950318Y-98155349D01*
X120966204Y-98176768D01*
X120979914Y-98199642D01*
X120991315Y-98223748D01*
X121000299Y-98248857D01*
X121006779Y-98274725D01*
X121010692Y-98301103D01*
X121012000Y-98327738D01*
X121012000Y-99284262D01*
X121010692Y-99310897D01*
X121006779Y-99337275D01*
X121000299Y-99363143D01*
X120991315Y-99388252D01*
X120979914Y-99412358D01*
X120966204Y-99435232D01*
X120950318Y-99456651D01*
X120932410Y-99476410D01*
X120912651Y-99494318D01*
X120891232Y-99510204D01*
X120868358Y-99523914D01*
X120844252Y-99535315D01*
X120819143Y-99544299D01*
X120793275Y-99550779D01*
X120766897Y-99554692D01*
X120740262Y-99556000D01*
X120033738Y-99556000D01*
X120007103Y-99554692D01*
X119980725Y-99550779D01*
X119954857Y-99544299D01*
X119929748Y-99535315D01*
X119905642Y-99523914D01*
X119882768Y-99510204D01*
X119861349Y-99494318D01*
X119841590Y-99476410D01*
X119823682Y-99456651D01*
X119807796Y-99435232D01*
X119794086Y-99412358D01*
X119782685Y-99388252D01*
X119773701Y-99363143D01*
X119767221Y-99337275D01*
X119763308Y-99310897D01*
X119762000Y-99284262D01*
X119762000Y-98327738D01*
X119763308Y-98301103D01*
X119767221Y-98274725D01*
X119773701Y-98248857D01*
X119782685Y-98223748D01*
X119794086Y-98199642D01*
X119807796Y-98176768D01*
X119823682Y-98155349D01*
X119841590Y-98135590D01*
X119861349Y-98117682D01*
X119882768Y-98101796D01*
X119905642Y-98088086D01*
X119929748Y-98076685D01*
X119954857Y-98067701D01*
X119980725Y-98061221D01*
X120007103Y-98057308D01*
X120033738Y-98056000D01*
X120740262Y-98056000D01*
X120766897Y-98057308D01*
G37*
G36*
X122816897Y-98057308D02*
G01*
X122843275Y-98061221D01*
X122869143Y-98067701D01*
X122894252Y-98076685D01*
X122918358Y-98088086D01*
X122941232Y-98101796D01*
X122962651Y-98117682D01*
X122982410Y-98135590D01*
X123000318Y-98155349D01*
X123016204Y-98176768D01*
X123029914Y-98199642D01*
X123041315Y-98223748D01*
X123050299Y-98248857D01*
X123056779Y-98274725D01*
X123060692Y-98301103D01*
X123062000Y-98327738D01*
X123062000Y-99284262D01*
X123060692Y-99310897D01*
X123056779Y-99337275D01*
X123050299Y-99363143D01*
X123041315Y-99388252D01*
X123029914Y-99412358D01*
X123016204Y-99435232D01*
X123000318Y-99456651D01*
X122982410Y-99476410D01*
X122962651Y-99494318D01*
X122941232Y-99510204D01*
X122918358Y-99523914D01*
X122894252Y-99535315D01*
X122869143Y-99544299D01*
X122843275Y-99550779D01*
X122816897Y-99554692D01*
X122790262Y-99556000D01*
X122083738Y-99556000D01*
X122057103Y-99554692D01*
X122030725Y-99550779D01*
X122004857Y-99544299D01*
X121979748Y-99535315D01*
X121955642Y-99523914D01*
X121932768Y-99510204D01*
X121911349Y-99494318D01*
X121891590Y-99476410D01*
X121873682Y-99456651D01*
X121857796Y-99435232D01*
X121844086Y-99412358D01*
X121832685Y-99388252D01*
X121823701Y-99363143D01*
X121817221Y-99337275D01*
X121813308Y-99310897D01*
X121812000Y-99284262D01*
X121812000Y-98327738D01*
X121813308Y-98301103D01*
X121817221Y-98274725D01*
X121823701Y-98248857D01*
X121832685Y-98223748D01*
X121844086Y-98199642D01*
X121857796Y-98176768D01*
X121873682Y-98155349D01*
X121891590Y-98135590D01*
X121911349Y-98117682D01*
X121932768Y-98101796D01*
X121955642Y-98088086D01*
X121979748Y-98076685D01*
X122004857Y-98067701D01*
X122030725Y-98061221D01*
X122057103Y-98057308D01*
X122083738Y-98056000D01*
X122790262Y-98056000D01*
X122816897Y-98057308D01*
G37*
%TD*%
D29*
%TO.C,Q3*%
X103356000Y-81547500D03*
X103356000Y-83447500D03*
X100856000Y-82497500D03*
%TD*%
D19*
%TO.C,R11*%
G36*
X106928897Y-80404308D02*
G01*
X106955275Y-80408221D01*
X106981143Y-80414701D01*
X107006252Y-80423685D01*
X107030358Y-80435086D01*
X107053232Y-80448796D01*
X107074651Y-80464682D01*
X107094410Y-80482590D01*
X107112318Y-80502349D01*
X107128204Y-80523768D01*
X107141914Y-80546642D01*
X107153315Y-80570748D01*
X107162299Y-80595857D01*
X107168779Y-80621725D01*
X107172692Y-80648103D01*
X107174000Y-80674738D01*
X107174000Y-81381262D01*
X107172692Y-81407897D01*
X107168779Y-81434275D01*
X107162299Y-81460143D01*
X107153315Y-81485252D01*
X107141914Y-81509358D01*
X107128204Y-81532232D01*
X107112318Y-81553651D01*
X107094410Y-81573410D01*
X107074651Y-81591318D01*
X107053232Y-81607204D01*
X107030358Y-81620914D01*
X107006252Y-81632315D01*
X106981143Y-81641299D01*
X106955275Y-81647779D01*
X106928897Y-81651692D01*
X106902262Y-81653000D01*
X105945738Y-81653000D01*
X105919103Y-81651692D01*
X105892725Y-81647779D01*
X105866857Y-81641299D01*
X105841748Y-81632315D01*
X105817642Y-81620914D01*
X105794768Y-81607204D01*
X105773349Y-81591318D01*
X105753590Y-81573410D01*
X105735682Y-81553651D01*
X105719796Y-81532232D01*
X105706086Y-81509358D01*
X105694685Y-81485252D01*
X105685701Y-81460143D01*
X105679221Y-81434275D01*
X105675308Y-81407897D01*
X105674000Y-81381262D01*
X105674000Y-80674738D01*
X105675308Y-80648103D01*
X105679221Y-80621725D01*
X105685701Y-80595857D01*
X105694685Y-80570748D01*
X105706086Y-80546642D01*
X105719796Y-80523768D01*
X105735682Y-80502349D01*
X105753590Y-80482590D01*
X105773349Y-80464682D01*
X105794768Y-80448796D01*
X105817642Y-80435086D01*
X105841748Y-80423685D01*
X105866857Y-80414701D01*
X105892725Y-80408221D01*
X105919103Y-80404308D01*
X105945738Y-80403000D01*
X106902262Y-80403000D01*
X106928897Y-80404308D01*
G37*
G36*
X106928897Y-82454308D02*
G01*
X106955275Y-82458221D01*
X106981143Y-82464701D01*
X107006252Y-82473685D01*
X107030358Y-82485086D01*
X107053232Y-82498796D01*
X107074651Y-82514682D01*
X107094410Y-82532590D01*
X107112318Y-82552349D01*
X107128204Y-82573768D01*
X107141914Y-82596642D01*
X107153315Y-82620748D01*
X107162299Y-82645857D01*
X107168779Y-82671725D01*
X107172692Y-82698103D01*
X107174000Y-82724738D01*
X107174000Y-83431262D01*
X107172692Y-83457897D01*
X107168779Y-83484275D01*
X107162299Y-83510143D01*
X107153315Y-83535252D01*
X107141914Y-83559358D01*
X107128204Y-83582232D01*
X107112318Y-83603651D01*
X107094410Y-83623410D01*
X107074651Y-83641318D01*
X107053232Y-83657204D01*
X107030358Y-83670914D01*
X107006252Y-83682315D01*
X106981143Y-83691299D01*
X106955275Y-83697779D01*
X106928897Y-83701692D01*
X106902262Y-83703000D01*
X105945738Y-83703000D01*
X105919103Y-83701692D01*
X105892725Y-83697779D01*
X105866857Y-83691299D01*
X105841748Y-83682315D01*
X105817642Y-83670914D01*
X105794768Y-83657204D01*
X105773349Y-83641318D01*
X105753590Y-83623410D01*
X105735682Y-83603651D01*
X105719796Y-83582232D01*
X105706086Y-83559358D01*
X105694685Y-83535252D01*
X105685701Y-83510143D01*
X105679221Y-83484275D01*
X105675308Y-83457897D01*
X105674000Y-83431262D01*
X105674000Y-82724738D01*
X105675308Y-82698103D01*
X105679221Y-82671725D01*
X105685701Y-82645857D01*
X105694685Y-82620748D01*
X105706086Y-82596642D01*
X105719796Y-82573768D01*
X105735682Y-82552349D01*
X105753590Y-82532590D01*
X105773349Y-82514682D01*
X105794768Y-82498796D01*
X105817642Y-82485086D01*
X105841748Y-82473685D01*
X105866857Y-82464701D01*
X105892725Y-82458221D01*
X105919103Y-82454308D01*
X105945738Y-82453000D01*
X106902262Y-82453000D01*
X106928897Y-82454308D01*
G37*
%TD*%
%TO.C,R10*%
G36*
X106928897Y-75197308D02*
G01*
X106955275Y-75201221D01*
X106981143Y-75207701D01*
X107006252Y-75216685D01*
X107030358Y-75228086D01*
X107053232Y-75241796D01*
X107074651Y-75257682D01*
X107094410Y-75275590D01*
X107112318Y-75295349D01*
X107128204Y-75316768D01*
X107141914Y-75339642D01*
X107153315Y-75363748D01*
X107162299Y-75388857D01*
X107168779Y-75414725D01*
X107172692Y-75441103D01*
X107174000Y-75467738D01*
X107174000Y-76174262D01*
X107172692Y-76200897D01*
X107168779Y-76227275D01*
X107162299Y-76253143D01*
X107153315Y-76278252D01*
X107141914Y-76302358D01*
X107128204Y-76325232D01*
X107112318Y-76346651D01*
X107094410Y-76366410D01*
X107074651Y-76384318D01*
X107053232Y-76400204D01*
X107030358Y-76413914D01*
X107006252Y-76425315D01*
X106981143Y-76434299D01*
X106955275Y-76440779D01*
X106928897Y-76444692D01*
X106902262Y-76446000D01*
X105945738Y-76446000D01*
X105919103Y-76444692D01*
X105892725Y-76440779D01*
X105866857Y-76434299D01*
X105841748Y-76425315D01*
X105817642Y-76413914D01*
X105794768Y-76400204D01*
X105773349Y-76384318D01*
X105753590Y-76366410D01*
X105735682Y-76346651D01*
X105719796Y-76325232D01*
X105706086Y-76302358D01*
X105694685Y-76278252D01*
X105685701Y-76253143D01*
X105679221Y-76227275D01*
X105675308Y-76200897D01*
X105674000Y-76174262D01*
X105674000Y-75467738D01*
X105675308Y-75441103D01*
X105679221Y-75414725D01*
X105685701Y-75388857D01*
X105694685Y-75363748D01*
X105706086Y-75339642D01*
X105719796Y-75316768D01*
X105735682Y-75295349D01*
X105753590Y-75275590D01*
X105773349Y-75257682D01*
X105794768Y-75241796D01*
X105817642Y-75228086D01*
X105841748Y-75216685D01*
X105866857Y-75207701D01*
X105892725Y-75201221D01*
X105919103Y-75197308D01*
X105945738Y-75196000D01*
X106902262Y-75196000D01*
X106928897Y-75197308D01*
G37*
G36*
X106928897Y-77247308D02*
G01*
X106955275Y-77251221D01*
X106981143Y-77257701D01*
X107006252Y-77266685D01*
X107030358Y-77278086D01*
X107053232Y-77291796D01*
X107074651Y-77307682D01*
X107094410Y-77325590D01*
X107112318Y-77345349D01*
X107128204Y-77366768D01*
X107141914Y-77389642D01*
X107153315Y-77413748D01*
X107162299Y-77438857D01*
X107168779Y-77464725D01*
X107172692Y-77491103D01*
X107174000Y-77517738D01*
X107174000Y-78224262D01*
X107172692Y-78250897D01*
X107168779Y-78277275D01*
X107162299Y-78303143D01*
X107153315Y-78328252D01*
X107141914Y-78352358D01*
X107128204Y-78375232D01*
X107112318Y-78396651D01*
X107094410Y-78416410D01*
X107074651Y-78434318D01*
X107053232Y-78450204D01*
X107030358Y-78463914D01*
X107006252Y-78475315D01*
X106981143Y-78484299D01*
X106955275Y-78490779D01*
X106928897Y-78494692D01*
X106902262Y-78496000D01*
X105945738Y-78496000D01*
X105919103Y-78494692D01*
X105892725Y-78490779D01*
X105866857Y-78484299D01*
X105841748Y-78475315D01*
X105817642Y-78463914D01*
X105794768Y-78450204D01*
X105773349Y-78434318D01*
X105753590Y-78416410D01*
X105735682Y-78396651D01*
X105719796Y-78375232D01*
X105706086Y-78352358D01*
X105694685Y-78328252D01*
X105685701Y-78303143D01*
X105679221Y-78277275D01*
X105675308Y-78250897D01*
X105674000Y-78224262D01*
X105674000Y-77517738D01*
X105675308Y-77491103D01*
X105679221Y-77464725D01*
X105685701Y-77438857D01*
X105694685Y-77413748D01*
X105706086Y-77389642D01*
X105719796Y-77366768D01*
X105735682Y-77345349D01*
X105753590Y-77325590D01*
X105773349Y-77307682D01*
X105794768Y-77291796D01*
X105817642Y-77278086D01*
X105841748Y-77266685D01*
X105866857Y-77257701D01*
X105892725Y-77251221D01*
X105919103Y-77247308D01*
X105945738Y-77246000D01*
X106902262Y-77246000D01*
X106928897Y-77247308D01*
G37*
%TD*%
D30*
%TO.C,U3*%
X113028000Y-86346000D03*
D31*
X113028000Y-80046000D03*
X115328000Y-80046000D03*
X110728000Y-80046000D03*
%TD*%
D28*
%TO.C,Q8*%
X89340000Y-81715500D03*
X87440000Y-81715500D03*
X88390000Y-79215500D03*
%TD*%
D29*
%TO.C,Q5*%
X103356000Y-91834500D03*
X103356000Y-93734500D03*
X100856000Y-92784500D03*
%TD*%
D19*
%TO.C,R14*%
G36*
X106928897Y-98075308D02*
G01*
X106955275Y-98079221D01*
X106981143Y-98085701D01*
X107006252Y-98094685D01*
X107030358Y-98106086D01*
X107053232Y-98119796D01*
X107074651Y-98135682D01*
X107094410Y-98153590D01*
X107112318Y-98173349D01*
X107128204Y-98194768D01*
X107141914Y-98217642D01*
X107153315Y-98241748D01*
X107162299Y-98266857D01*
X107168779Y-98292725D01*
X107172692Y-98319103D01*
X107174000Y-98345738D01*
X107174000Y-99052262D01*
X107172692Y-99078897D01*
X107168779Y-99105275D01*
X107162299Y-99131143D01*
X107153315Y-99156252D01*
X107141914Y-99180358D01*
X107128204Y-99203232D01*
X107112318Y-99224651D01*
X107094410Y-99244410D01*
X107074651Y-99262318D01*
X107053232Y-99278204D01*
X107030358Y-99291914D01*
X107006252Y-99303315D01*
X106981143Y-99312299D01*
X106955275Y-99318779D01*
X106928897Y-99322692D01*
X106902262Y-99324000D01*
X105945738Y-99324000D01*
X105919103Y-99322692D01*
X105892725Y-99318779D01*
X105866857Y-99312299D01*
X105841748Y-99303315D01*
X105817642Y-99291914D01*
X105794768Y-99278204D01*
X105773349Y-99262318D01*
X105753590Y-99244410D01*
X105735682Y-99224651D01*
X105719796Y-99203232D01*
X105706086Y-99180358D01*
X105694685Y-99156252D01*
X105685701Y-99131143D01*
X105679221Y-99105275D01*
X105675308Y-99078897D01*
X105674000Y-99052262D01*
X105674000Y-98345738D01*
X105675308Y-98319103D01*
X105679221Y-98292725D01*
X105685701Y-98266857D01*
X105694685Y-98241748D01*
X105706086Y-98217642D01*
X105719796Y-98194768D01*
X105735682Y-98173349D01*
X105753590Y-98153590D01*
X105773349Y-98135682D01*
X105794768Y-98119796D01*
X105817642Y-98106086D01*
X105841748Y-98094685D01*
X105866857Y-98085701D01*
X105892725Y-98079221D01*
X105919103Y-98075308D01*
X105945738Y-98074000D01*
X106902262Y-98074000D01*
X106928897Y-98075308D01*
G37*
G36*
X106928897Y-96025308D02*
G01*
X106955275Y-96029221D01*
X106981143Y-96035701D01*
X107006252Y-96044685D01*
X107030358Y-96056086D01*
X107053232Y-96069796D01*
X107074651Y-96085682D01*
X107094410Y-96103590D01*
X107112318Y-96123349D01*
X107128204Y-96144768D01*
X107141914Y-96167642D01*
X107153315Y-96191748D01*
X107162299Y-96216857D01*
X107168779Y-96242725D01*
X107172692Y-96269103D01*
X107174000Y-96295738D01*
X107174000Y-97002262D01*
X107172692Y-97028897D01*
X107168779Y-97055275D01*
X107162299Y-97081143D01*
X107153315Y-97106252D01*
X107141914Y-97130358D01*
X107128204Y-97153232D01*
X107112318Y-97174651D01*
X107094410Y-97194410D01*
X107074651Y-97212318D01*
X107053232Y-97228204D01*
X107030358Y-97241914D01*
X107006252Y-97253315D01*
X106981143Y-97262299D01*
X106955275Y-97268779D01*
X106928897Y-97272692D01*
X106902262Y-97274000D01*
X105945738Y-97274000D01*
X105919103Y-97272692D01*
X105892725Y-97268779D01*
X105866857Y-97262299D01*
X105841748Y-97253315D01*
X105817642Y-97241914D01*
X105794768Y-97228204D01*
X105773349Y-97212318D01*
X105753590Y-97194410D01*
X105735682Y-97174651D01*
X105719796Y-97153232D01*
X105706086Y-97130358D01*
X105694685Y-97106252D01*
X105685701Y-97081143D01*
X105679221Y-97055275D01*
X105675308Y-97028897D01*
X105674000Y-97002262D01*
X105674000Y-96295738D01*
X105675308Y-96269103D01*
X105679221Y-96242725D01*
X105685701Y-96216857D01*
X105694685Y-96191748D01*
X105706086Y-96167642D01*
X105719796Y-96144768D01*
X105735682Y-96123349D01*
X105753590Y-96103590D01*
X105773349Y-96085682D01*
X105794768Y-96069796D01*
X105817642Y-96056086D01*
X105841748Y-96044685D01*
X105866857Y-96035701D01*
X105892725Y-96029221D01*
X105919103Y-96025308D01*
X105945738Y-96024000D01*
X106902262Y-96024000D01*
X106928897Y-96025308D01*
G37*
%TD*%
D28*
%TO.C,Q10*%
X89340000Y-93018500D03*
X87440000Y-93018500D03*
X88390000Y-90518500D03*
%TD*%
D19*
%TO.C,C1*%
G36*
X120766897Y-101105308D02*
G01*
X120793275Y-101109221D01*
X120819143Y-101115701D01*
X120844252Y-101124685D01*
X120868358Y-101136086D01*
X120891232Y-101149796D01*
X120912651Y-101165682D01*
X120932410Y-101183590D01*
X120950318Y-101203349D01*
X120966204Y-101224768D01*
X120979914Y-101247642D01*
X120991315Y-101271748D01*
X121000299Y-101296857D01*
X121006779Y-101322725D01*
X121010692Y-101349103D01*
X121012000Y-101375738D01*
X121012000Y-102332262D01*
X121010692Y-102358897D01*
X121006779Y-102385275D01*
X121000299Y-102411143D01*
X120991315Y-102436252D01*
X120979914Y-102460358D01*
X120966204Y-102483232D01*
X120950318Y-102504651D01*
X120932410Y-102524410D01*
X120912651Y-102542318D01*
X120891232Y-102558204D01*
X120868358Y-102571914D01*
X120844252Y-102583315D01*
X120819143Y-102592299D01*
X120793275Y-102598779D01*
X120766897Y-102602692D01*
X120740262Y-102604000D01*
X120033738Y-102604000D01*
X120007103Y-102602692D01*
X119980725Y-102598779D01*
X119954857Y-102592299D01*
X119929748Y-102583315D01*
X119905642Y-102571914D01*
X119882768Y-102558204D01*
X119861349Y-102542318D01*
X119841590Y-102524410D01*
X119823682Y-102504651D01*
X119807796Y-102483232D01*
X119794086Y-102460358D01*
X119782685Y-102436252D01*
X119773701Y-102411143D01*
X119767221Y-102385275D01*
X119763308Y-102358897D01*
X119762000Y-102332262D01*
X119762000Y-101375738D01*
X119763308Y-101349103D01*
X119767221Y-101322725D01*
X119773701Y-101296857D01*
X119782685Y-101271748D01*
X119794086Y-101247642D01*
X119807796Y-101224768D01*
X119823682Y-101203349D01*
X119841590Y-101183590D01*
X119861349Y-101165682D01*
X119882768Y-101149796D01*
X119905642Y-101136086D01*
X119929748Y-101124685D01*
X119954857Y-101115701D01*
X119980725Y-101109221D01*
X120007103Y-101105308D01*
X120033738Y-101104000D01*
X120740262Y-101104000D01*
X120766897Y-101105308D01*
G37*
G36*
X122816897Y-101105308D02*
G01*
X122843275Y-101109221D01*
X122869143Y-101115701D01*
X122894252Y-101124685D01*
X122918358Y-101136086D01*
X122941232Y-101149796D01*
X122962651Y-101165682D01*
X122982410Y-101183590D01*
X123000318Y-101203349D01*
X123016204Y-101224768D01*
X123029914Y-101247642D01*
X123041315Y-101271748D01*
X123050299Y-101296857D01*
X123056779Y-101322725D01*
X123060692Y-101349103D01*
X123062000Y-101375738D01*
X123062000Y-102332262D01*
X123060692Y-102358897D01*
X123056779Y-102385275D01*
X123050299Y-102411143D01*
X123041315Y-102436252D01*
X123029914Y-102460358D01*
X123016204Y-102483232D01*
X123000318Y-102504651D01*
X122982410Y-102524410D01*
X122962651Y-102542318D01*
X122941232Y-102558204D01*
X122918358Y-102571914D01*
X122894252Y-102583315D01*
X122869143Y-102592299D01*
X122843275Y-102598779D01*
X122816897Y-102602692D01*
X122790262Y-102604000D01*
X122083738Y-102604000D01*
X122057103Y-102602692D01*
X122030725Y-102598779D01*
X122004857Y-102592299D01*
X121979748Y-102583315D01*
X121955642Y-102571914D01*
X121932768Y-102558204D01*
X121911349Y-102542318D01*
X121891590Y-102524410D01*
X121873682Y-102504651D01*
X121857796Y-102483232D01*
X121844086Y-102460358D01*
X121832685Y-102436252D01*
X121823701Y-102411143D01*
X121817221Y-102385275D01*
X121813308Y-102358897D01*
X121812000Y-102332262D01*
X121812000Y-101375738D01*
X121813308Y-101349103D01*
X121817221Y-101322725D01*
X121823701Y-101296857D01*
X121832685Y-101271748D01*
X121844086Y-101247642D01*
X121857796Y-101224768D01*
X121873682Y-101203349D01*
X121891590Y-101183590D01*
X121911349Y-101165682D01*
X121932768Y-101149796D01*
X121955642Y-101136086D01*
X121979748Y-101124685D01*
X122004857Y-101115701D01*
X122030725Y-101109221D01*
X122057103Y-101105308D01*
X122083738Y-101104000D01*
X122790262Y-101104000D01*
X122816897Y-101105308D01*
G37*
%TD*%
%TO.C,R12*%
G36*
X106928897Y-85611308D02*
G01*
X106955275Y-85615221D01*
X106981143Y-85621701D01*
X107006252Y-85630685D01*
X107030358Y-85642086D01*
X107053232Y-85655796D01*
X107074651Y-85671682D01*
X107094410Y-85689590D01*
X107112318Y-85709349D01*
X107128204Y-85730768D01*
X107141914Y-85753642D01*
X107153315Y-85777748D01*
X107162299Y-85802857D01*
X107168779Y-85828725D01*
X107172692Y-85855103D01*
X107174000Y-85881738D01*
X107174000Y-86588262D01*
X107172692Y-86614897D01*
X107168779Y-86641275D01*
X107162299Y-86667143D01*
X107153315Y-86692252D01*
X107141914Y-86716358D01*
X107128204Y-86739232D01*
X107112318Y-86760651D01*
X107094410Y-86780410D01*
X107074651Y-86798318D01*
X107053232Y-86814204D01*
X107030358Y-86827914D01*
X107006252Y-86839315D01*
X106981143Y-86848299D01*
X106955275Y-86854779D01*
X106928897Y-86858692D01*
X106902262Y-86860000D01*
X105945738Y-86860000D01*
X105919103Y-86858692D01*
X105892725Y-86854779D01*
X105866857Y-86848299D01*
X105841748Y-86839315D01*
X105817642Y-86827914D01*
X105794768Y-86814204D01*
X105773349Y-86798318D01*
X105753590Y-86780410D01*
X105735682Y-86760651D01*
X105719796Y-86739232D01*
X105706086Y-86716358D01*
X105694685Y-86692252D01*
X105685701Y-86667143D01*
X105679221Y-86641275D01*
X105675308Y-86614897D01*
X105674000Y-86588262D01*
X105674000Y-85881738D01*
X105675308Y-85855103D01*
X105679221Y-85828725D01*
X105685701Y-85802857D01*
X105694685Y-85777748D01*
X105706086Y-85753642D01*
X105719796Y-85730768D01*
X105735682Y-85709349D01*
X105753590Y-85689590D01*
X105773349Y-85671682D01*
X105794768Y-85655796D01*
X105817642Y-85642086D01*
X105841748Y-85630685D01*
X105866857Y-85621701D01*
X105892725Y-85615221D01*
X105919103Y-85611308D01*
X105945738Y-85610000D01*
X106902262Y-85610000D01*
X106928897Y-85611308D01*
G37*
G36*
X106928897Y-87661308D02*
G01*
X106955275Y-87665221D01*
X106981143Y-87671701D01*
X107006252Y-87680685D01*
X107030358Y-87692086D01*
X107053232Y-87705796D01*
X107074651Y-87721682D01*
X107094410Y-87739590D01*
X107112318Y-87759349D01*
X107128204Y-87780768D01*
X107141914Y-87803642D01*
X107153315Y-87827748D01*
X107162299Y-87852857D01*
X107168779Y-87878725D01*
X107172692Y-87905103D01*
X107174000Y-87931738D01*
X107174000Y-88638262D01*
X107172692Y-88664897D01*
X107168779Y-88691275D01*
X107162299Y-88717143D01*
X107153315Y-88742252D01*
X107141914Y-88766358D01*
X107128204Y-88789232D01*
X107112318Y-88810651D01*
X107094410Y-88830410D01*
X107074651Y-88848318D01*
X107053232Y-88864204D01*
X107030358Y-88877914D01*
X107006252Y-88889315D01*
X106981143Y-88898299D01*
X106955275Y-88904779D01*
X106928897Y-88908692D01*
X106902262Y-88910000D01*
X105945738Y-88910000D01*
X105919103Y-88908692D01*
X105892725Y-88904779D01*
X105866857Y-88898299D01*
X105841748Y-88889315D01*
X105817642Y-88877914D01*
X105794768Y-88864204D01*
X105773349Y-88848318D01*
X105753590Y-88830410D01*
X105735682Y-88810651D01*
X105719796Y-88789232D01*
X105706086Y-88766358D01*
X105694685Y-88742252D01*
X105685701Y-88717143D01*
X105679221Y-88691275D01*
X105675308Y-88664897D01*
X105674000Y-88638262D01*
X105674000Y-87931738D01*
X105675308Y-87905103D01*
X105679221Y-87878725D01*
X105685701Y-87852857D01*
X105694685Y-87827748D01*
X105706086Y-87803642D01*
X105719796Y-87780768D01*
X105735682Y-87759349D01*
X105753590Y-87739590D01*
X105773349Y-87721682D01*
X105794768Y-87705796D01*
X105817642Y-87692086D01*
X105841748Y-87680685D01*
X105866857Y-87671701D01*
X105892725Y-87665221D01*
X105919103Y-87661308D01*
X105945738Y-87660000D01*
X106902262Y-87660000D01*
X106928897Y-87661308D01*
G37*
%TD*%
D28*
%TO.C,Q7*%
X89340000Y-76064000D03*
X87440000Y-76064000D03*
X88390000Y-73564000D03*
%TD*%
D19*
%TO.C,R13*%
G36*
X106928897Y-90818308D02*
G01*
X106955275Y-90822221D01*
X106981143Y-90828701D01*
X107006252Y-90837685D01*
X107030358Y-90849086D01*
X107053232Y-90862796D01*
X107074651Y-90878682D01*
X107094410Y-90896590D01*
X107112318Y-90916349D01*
X107128204Y-90937768D01*
X107141914Y-90960642D01*
X107153315Y-90984748D01*
X107162299Y-91009857D01*
X107168779Y-91035725D01*
X107172692Y-91062103D01*
X107174000Y-91088738D01*
X107174000Y-91795262D01*
X107172692Y-91821897D01*
X107168779Y-91848275D01*
X107162299Y-91874143D01*
X107153315Y-91899252D01*
X107141914Y-91923358D01*
X107128204Y-91946232D01*
X107112318Y-91967651D01*
X107094410Y-91987410D01*
X107074651Y-92005318D01*
X107053232Y-92021204D01*
X107030358Y-92034914D01*
X107006252Y-92046315D01*
X106981143Y-92055299D01*
X106955275Y-92061779D01*
X106928897Y-92065692D01*
X106902262Y-92067000D01*
X105945738Y-92067000D01*
X105919103Y-92065692D01*
X105892725Y-92061779D01*
X105866857Y-92055299D01*
X105841748Y-92046315D01*
X105817642Y-92034914D01*
X105794768Y-92021204D01*
X105773349Y-92005318D01*
X105753590Y-91987410D01*
X105735682Y-91967651D01*
X105719796Y-91946232D01*
X105706086Y-91923358D01*
X105694685Y-91899252D01*
X105685701Y-91874143D01*
X105679221Y-91848275D01*
X105675308Y-91821897D01*
X105674000Y-91795262D01*
X105674000Y-91088738D01*
X105675308Y-91062103D01*
X105679221Y-91035725D01*
X105685701Y-91009857D01*
X105694685Y-90984748D01*
X105706086Y-90960642D01*
X105719796Y-90937768D01*
X105735682Y-90916349D01*
X105753590Y-90896590D01*
X105773349Y-90878682D01*
X105794768Y-90862796D01*
X105817642Y-90849086D01*
X105841748Y-90837685D01*
X105866857Y-90828701D01*
X105892725Y-90822221D01*
X105919103Y-90818308D01*
X105945738Y-90817000D01*
X106902262Y-90817000D01*
X106928897Y-90818308D01*
G37*
G36*
X106928897Y-92868308D02*
G01*
X106955275Y-92872221D01*
X106981143Y-92878701D01*
X107006252Y-92887685D01*
X107030358Y-92899086D01*
X107053232Y-92912796D01*
X107074651Y-92928682D01*
X107094410Y-92946590D01*
X107112318Y-92966349D01*
X107128204Y-92987768D01*
X107141914Y-93010642D01*
X107153315Y-93034748D01*
X107162299Y-93059857D01*
X107168779Y-93085725D01*
X107172692Y-93112103D01*
X107174000Y-93138738D01*
X107174000Y-93845262D01*
X107172692Y-93871897D01*
X107168779Y-93898275D01*
X107162299Y-93924143D01*
X107153315Y-93949252D01*
X107141914Y-93973358D01*
X107128204Y-93996232D01*
X107112318Y-94017651D01*
X107094410Y-94037410D01*
X107074651Y-94055318D01*
X107053232Y-94071204D01*
X107030358Y-94084914D01*
X107006252Y-94096315D01*
X106981143Y-94105299D01*
X106955275Y-94111779D01*
X106928897Y-94115692D01*
X106902262Y-94117000D01*
X105945738Y-94117000D01*
X105919103Y-94115692D01*
X105892725Y-94111779D01*
X105866857Y-94105299D01*
X105841748Y-94096315D01*
X105817642Y-94084914D01*
X105794768Y-94071204D01*
X105773349Y-94055318D01*
X105753590Y-94037410D01*
X105735682Y-94017651D01*
X105719796Y-93996232D01*
X105706086Y-93973358D01*
X105694685Y-93949252D01*
X105685701Y-93924143D01*
X105679221Y-93898275D01*
X105675308Y-93871897D01*
X105674000Y-93845262D01*
X105674000Y-93138738D01*
X105675308Y-93112103D01*
X105679221Y-93085725D01*
X105685701Y-93059857D01*
X105694685Y-93034748D01*
X105706086Y-93010642D01*
X105719796Y-92987768D01*
X105735682Y-92966349D01*
X105753590Y-92946590D01*
X105773349Y-92928682D01*
X105794768Y-92912796D01*
X105817642Y-92899086D01*
X105841748Y-92887685D01*
X105866857Y-92878701D01*
X105892725Y-92872221D01*
X105919103Y-92868308D01*
X105945738Y-92867000D01*
X106902262Y-92867000D01*
X106928897Y-92868308D01*
G37*
%TD*%
D32*
%TO.C,D2*%
X132500000Y-112776000D03*
D33*
X135040000Y-112776000D03*
%TD*%
D10*
%TO.C,JP1*%
X131318000Y-100076000D03*
D11*
X133858000Y-100076000D03*
%TD*%
M02*
